<svg xmlns="http://www.w3.org/2000/svg" xmlns:xlink="http://www.w3.org/1999/xlink" width="113.566" height="94.206" viewBox="0 0 113.566 94.206">
  <defs>
    <filter id="Path_113" x="0" y="7.254" width="22.906" height="19.981" filterUnits="userSpaceOnUse">
      <feOffset input="SourceAlpha"/>
      <feGaussianBlur stdDeviation="2.5" result="blur"/>
      <feFlood flood-color="#aa4db9" flood-opacity="0.102"/>
      <feComposite operator="in" in2="blur"/>
      <feComposite in="SourceGraphic"/>
    </filter>
  </defs>
  <g id="Group_43779" data-name="Group 43779" transform="translate(-3.257 1)">
    <g id="Group_157" data-name="Group 157" transform="translate(12 -1)">
      <g id="Group_156" data-name="Group 156" transform="translate(0 0)">
        <g id="Group_43784" data-name="Group 43784">
          <g id="Group_43781" data-name="Group 43781" transform="translate(-11.78 1.834)">
            <path id="Path_150" data-name="Path 150" d="M210.577,60.148a.4.4,0,0,1-.19-.048c-21.4-11.714-43.894-8.609-44.118-8.577a.4.4,0,1,1-.114-.785c.228-.032,22.988-3.173,44.613,8.666a.4.4,0,0,1-.191.744Z" transform="translate(-108.877 -50.337)" fill="#fff"/>
            <path id="Path_151" data-name="Path 151" d="M236,68.551a.4.4,0,0,1-.368-.25c-1.139-2.859-6.529-3.767-6.583-3.776a.4.4,0,0,1-.328-.455.392.392,0,0,1,.455-.327c.239.038,5.888.988,7.193,4.265a.4.4,0,0,1-.369.543Z" transform="translate(-135.434 -53.111)" fill="#fff"/>
          </g>
          <g id="Group_43782" data-name="Group 43782" transform="translate(16.682 8.26)" opacity="0.53">
            <path id="Path_247" data-name="Path 247" d="M577.9,41.553a3.827,3.827,0,0,1-.787-1.628,1.743,1.743,0,0,1,.553-1.65,1.146,1.146,0,0,1,1.612.19,1.874,1.874,0,0,1,.223.751l.351,2.349a5.2,5.2,0,0,1,2.172-2.257c.491-.266,1.192-.41,1.537.03a.909.909,0,0,1,.07.9,2.444,2.444,0,0,1-.565.748,17.828,17.828,0,0,1-2.3,1.941,2.888,2.888,0,0,1,2.2,2.368,1.174,1.174,0,0,1-.065.666.992.992,0,0,1-1.178.416,2.5,2.5,0,0,1-1.075-.805,12.1,12.1,0,0,1-1.094-1.432,3.543,3.543,0,0,1-1.652,2.286,1.21,1.21,0,0,1-1.327.085,1.038,1.038,0,0,1-.327-.834,3.728,3.728,0,0,1,1.341-2.351c-.529-.061-1.061.078-1.594.063a1.321,1.321,0,0,1-1.285-.762,1.065,1.065,0,0,1,.469-1.14,1.985,1.985,0,0,1,1.268-.266,3.592,3.592,0,0,1,1.607.525" transform="translate(-537.613 -38.031)" fill="#add6e5"/>
            <g id="Group_118" data-name="Group 118" transform="translate(14.084 62.845)">
              <path id="Path_249" data-name="Path 249" d="M558.329,310.166c-.727-.35-1.439-.736-2.146-1.14v1.389l.025.014c.367.2.736.385,1.105.564h3.021A18.841,18.841,0,0,1,558.329,310.166Z" transform="translate(-556.183 -302.299)" fill="#add6e5"/>
              <path id="Path_250" data-name="Path 250" d="M644.993,292.617a28.8,28.8,0,0,0-3.089-1.032,24.492,24.492,0,0,1,3.089-2.06v-1.376a25.422,25.422,0,0,0-4.561,3.077,27.488,27.488,0,0,0-9.909-.307c-5.825.894-11.676,3.614-17.554,5.374-.327.084-.653.176-.977.284q-.495.138-.99.266h9.358c-.2-.085-.4-.167-.6-.239a11.286,11.286,0,0,0-2.233-.574c3.01-1.066,6-2.195,9.08-3.029a29.427,29.427,0,0,1,12.7-.765,35.051,35.051,0,0,0-3.646,4.606h1.406a22.166,22.166,0,0,1,1.607-2.2,22.964,22.964,0,0,1,2.1-2.119,26.163,26.163,0,0,1,3.04.893c.4.143.788.3,1.177.46Z" transform="translate(-593.339 -288.148)" fill="#add6e5"/>
            </g>
            <path id="Path_252" data-name="Path 252" d="M672.171,27.337a4.892,4.892,0,0,1,.884-4.065,3,3,0,0,1,3.861-.652c-.089-2.478,1.951-4.649,4.3-5.446a4.763,4.763,0,0,1,3.26-.08,4.443,4.443,0,0,1,2.181,2.127,13,13,0,0,1,.99,2.941c.782-1.145,2.415-1.246,3.8-1.127a3.187,3.187,0,0,1,2.169.793,2.641,2.641,0,0,1,.54,1.149,6.247,6.247,0,0,1-.305,3.889c1.075-.342,2.192.4,2.954,1.23a4.676,4.676,0,0,1,1.443,3.519,3.651,3.651,0,0,1-3.563,3,5.291,5.291,0,0,1-4.262-2.384c-.156,1.9-1.9,3.292-3.656,4.038a8.416,8.416,0,0,1-2.69.7,6.39,6.39,0,0,1-6.344-4.326,4.327,4.327,0,0,1-6.934-.122,3.359,3.359,0,0,1-.594-2.832,2.315,2.315,0,0,1,2.2-1.7" transform="translate(-670.093 -13.495)" fill="#add6e5"/>
          </g>
          <g id="Group_43783" data-name="Group 43783" transform="translate(-1.243 14.754)">
            <g transform="matrix(1, 0, 0, 1, -7.5, -14.75)" filter="url(#Path_113)">
              <path id="Path_113-2" data-name="Path 113" d="M5.909,44.289c-2.834,1.185-1.047,4.518,1.1,4.383.322-.02.687-.028,1.071-.04-.021.116.663.036.7-.028,1.4-.077,2.85-.32,3.286-1.431C13.643,43.16,8.243,43.313,5.909,44.289Z" transform="translate(3.05 -28.96)" fill="#add6e5"/>
            </g>
          </g>
        </g>
        <g id="Group_139" data-name="Group 139" transform="translate(45.172 66.908)">
          <g id="Group_137" data-name="Group 137">
            <g id="Group_133" data-name="Group 133" transform="translate(0)">
              <path id="Path_268" data-name="Path 268" d="M144.56,214.79s-11.69,22.716-12.3,22-6.78-5.936-5.915-5.77,5.52.811,5.52.811l5.8-18.516Z" transform="translate(-124.92 -213.316)" fill="#fdc59d"/>
              <path id="Path_269" data-name="Path 269" d="M137.578,235.491l-3.794-2.054,1.811-5.777,0,0,5.362,1.51C139.893,231.19,138.712,233.405,137.578,235.491Z" transform="translate(-125.114 -220.425)" fill="#efa47d"/>
              <path id="Path_270" data-name="Path 270" d="M147.586,242.474l3.222,2.375c-1.153,2.084-2.192,3.9-2.929,5.062l-5.2-3.678.322-.425c1.574.229,3.39.481,3.39.481Z" transform="translate(-139.446 -227.772)" fill="#f7fffa"/>
              <g id="Group_131" data-name="Group 131" transform="translate(7.645 14.951)">
                <path id="Path_271" data-name="Path 271" d="M143.343,242.968l3.052,2.573-.151.273-3.072-2.3Z" transform="translate(-142.926 -242.968)" fill="#51a7bb"/>
                <path id="Path_272" data-name="Path 272" d="M144.3,244.775l2.837,2.558-.2.348-2.772-2.487Z" transform="translate(-144.164 -243.864)" fill="#0074af"/>
              </g>
              <g id="Group_132" data-name="Group 132" transform="translate(0 15.289)">
                <path id="Path_273" data-name="Path 273" d="M153.319,247.372s1.9-1.49,1.247-2.257-2.512-1.932-2.817-1.29a13.091,13.091,0,0,0-.586,2.308s-5.136-1.723-5.383-.515c-.154.756,6.9,7.434,7.442,7.016s2.69-3.068,2.311-3.455a4.63,4.63,0,0,0-1.69-.641Z" transform="translate(-145.778 -243.639)" fill="#add6e5"/>
                <path id="Path_274" data-name="Path 274" d="M148.6,247.229a.483.483,0,0,1,.359-.34l4.646,4.476a7.283,7.283,0,0,1,2.324.747,2.44,2.44,0,0,1,1.044,1.127,7.97,7.97,0,0,1-.932,1.006C155.5,254.663,148.45,247.986,148.6,247.229Z" transform="translate(-148.601 -245.25)" fill="#add6e5"/>
                <path id="Path_275" data-name="Path 275" d="M155,246.869c-.5.174-.282,1.707.184,1.954S155.495,246.7,155,246.869Z" transform="translate(-150.165 -245.236)" fill="#2b2b2b"/>
                <path id="Path_276" data-name="Path 276" d="M157.07,246.47c-.5.174-.282,1.706.184,1.954S157.568,246.3,157.07,246.47Z" transform="translate(-153.284 -245.038)" fill="#2b2b2b"/>
                <path id="Path_277" data-name="Path 277" d="M158.937,245.725c-.5.174-.282,1.707.184,1.954S159.435,245.551,158.937,245.725Z" transform="translate(-156.093 -244.669)" fill="#2b2b2b"/>
              </g>
            </g>
            <g id="Group_136" data-name="Group 136" transform="translate(21.851 2.057)">
              <path id="Path_278" data-name="Path 278" d="M109.4,217.395l-.557,21.567s4.014-2.218,3.675-1.237-6.708,3.793-6.708,3.793l-2.769-23.7Z" transform="translate(-103.041 -217.395)" fill="#fdc59d"/>
              <path id="Path_279" data-name="Path 279" d="M109.782,234.538l5.138,1.446-.113,4.386-4.271.619Z" transform="translate(-108.821 -225.894)" fill="#efa47d"/>
              <path id="Path_280" data-name="Path 280" d="M103.041,252.856l3.835-.5-.1,3.938s4.014-2.218,3.675-1.237-6.708,3.793-6.708,3.793Z" transform="translate(-100.972 -234.73)" fill="#f7fffa"/>
              <g id="Group_134" data-name="Group 134" transform="translate(2.107 18.237)">
                <path id="Path_281" data-name="Path 281" d="M113.98,253.564l-.013.491-3.7.309-.068-.581Z" transform="translate(-110.2 -253.564)" fill="#51a7bb"/>
                <path id="Path_282" data-name="Path 282" d="M110.246,255.569l3.652-.215-.01.373-3.59.293Z" transform="translate(-110.141 -254.452)" fill="#0074af"/>
              </g>
              <g id="Group_135" data-name="Group 135" transform="translate(1.971 17.13)">
                <path id="Path_283" data-name="Path 283" d="M99.962,254.481s-1.23-2.082-.339-2.556,3.043-.883,3.093-.175a13.083,13.083,0,0,1-.295,2.363s5.411.267,5.2,1.482c-.132.76-9.133,4.409-9.486,3.821s-1.388-3.837-.893-4.059a4.636,4.636,0,0,1,1.808.019Z" transform="translate(-97.11 -251.369)" fill="#add6e5"/>
                <path id="Path_284" data-name="Path 284" d="M107.1,259.31a.483.483,0,0,0-.211-.448l-5.957,2.475a7.287,7.287,0,0,0-2.437-.151,2.439,2.439,0,0,0-1.383.669,7.894,7.894,0,0,0,.5,1.276C97.966,263.719,106.967,260.07,107.1,259.31Z" transform="translate(-96.587 -255.084)" fill="#add6e5"/>
                <path id="Path_285" data-name="Path 285" d="M106.6,255.585c.4.343-.358,1.692-.883,1.753S106.2,255.242,106.6,255.585Z" transform="translate(-100.458 -253.441)" fill="#2b2b2b"/>
                <path id="Path_286" data-name="Path 286" d="M104.522,255.969c.4.343-.358,1.692-.883,1.753S104.121,255.626,104.522,255.969Z" transform="translate(-97.334 -253.631)" fill="#2b2b2b"/>
                <path id="Path_287" data-name="Path 287" d="M102.512,255.957c.4.343-.359,1.692-.883,1.753S102.112,255.613,102.512,255.957Z" transform="translate(-94.311 -253.625)" fill="#2b2b2b"/>
              </g>
            </g>
          </g>
          <g id="Group_138" data-name="Group 138" transform="translate(4.629 0.119)">
            <path id="Path_288" data-name="Path 288" d="M128.5,217.15l1.477,11.081-10.582.74.574-7.49-1.085-.3-3.642,5.593-9.659-4.064,6.352-9.152Z" transform="translate(-104.537 -213.553)" fill="#51a7bb"/>
            <path id="Path_289" data-name="Path 289" d="M106.848,217.921l3.032-4.368,3.636.79,13.19,4.774.577,4.326c-.873.125-1.826-.436-2.708-2.433L110.69,215.7S109.06,218.093,106.848,217.921Z" transform="translate(-102.483 -213.553)" fill="#69bccd"/>
            <path id="Path_290" data-name="Path 290" d="M143.6,233.28l-11.311-5.129-1.33,1.874,11.337,5.513Z" transform="translate(-130.962 -220.791)" fill="#69bccd"/>
            <path id="Path_291" data-name="Path 291" d="M115.616,239.271l-12.128.009-.024,2.979,12.334-.565Z" transform="translate(-89.291 -226.303)" fill="#69bccd"/>
          </g>
        </g>
        <g id="Group_140" data-name="Group 140" transform="translate(54.863 51.149)">
          <path id="Path_292" data-name="Path 292" d="M120.894,206.626s4.074-18.467,2.11-21.195-7.65-4.788-11.889-2.147S100.7,199.414,100.7,199.414Z" transform="translate(-100.705 -182.061)" fill="#0074af"/>
          <path id="Path_293" data-name="Path 293" d="M114.845,187.233l-.806,3.831-2.4-.8,1.127-4.011Z" transform="translate(-97.524 -184.14)" fill="#efa47d"/>
        </g>
        <g id="Group_150" data-name="Group 150" transform="translate(45.094)">
          <g id="Group_148" data-name="Group 148" transform="translate(0 12.06)">
            <g id="Group_147" data-name="Group 147" transform="translate(0 0)">
              <g id="Group_146" data-name="Group 146">
                <g id="Group_145" data-name="Group 145">
                  <g id="Group_144" data-name="Group 144">
                    <ellipse id="Ellipse_7" data-name="Ellipse 7" cx="6.894" cy="7.521" rx="6.894" ry="7.521" transform="matrix(-0.973, -0.232, 0.232, -0.973, 56.243, 40.223)" fill="#fdc59d"/>
                    <path id="Path_294" data-name="Path 294" d="M60.829,163.694a4.08,4.08,0,1,1-2.926-5.255A4.262,4.262,0,0,1,60.829,163.694Z" transform="translate(-4.197 -131.21)" fill="#efa47d"/>
                    <path id="Path_295" data-name="Path 295" d="M151.514,138.539c-.963,4.04-4.745,6.6-8.449,5.718s-5.926-4.873-4.964-8.913,4.746-6.6,8.449-5.718S152.476,134.5,151.514,138.539Z" transform="translate(-137.877 -116.889)" fill="#fdc59d"/>
                    <path id="Path_296" data-name="Path 296" d="M152.162,140.652a4.08,4.08,0,1,1-2.927-5.255A4.262,4.262,0,0,1,152.162,140.652Z" transform="translate(-141.581 -119.785)" fill="#efa47d"/>
                    <path id="Rectangle_28" data-name="Rectangle 28" d="M19.882,0h4.85A19.883,19.883,0,0,1,44.615,19.883v0A19.883,19.883,0,0,1,24.732,39.765H19.883A19.883,19.883,0,0,1,0,19.882v0A19.882,19.882,0,0,1,19.882,0Z" transform="translate(46.727 49.021) rotate(-166.601)" fill="#fdc59d"/>
                    <g id="Group_141" data-name="Group 141" transform="translate(18.824 28.811)">
                      <path id="Path_297" data-name="Path 297" d="M104.414,161.751c3.565.847,2.865,3.468,4.346,3.686s3.784-1.384,5.235.739-1.732,9.354-10.227,4.645C97.824,167.526,100.849,160.9,104.414,161.751Z" transform="translate(-100.399 -161.677)" fill="#2b2b2b"/>
                      <path id="Path_298" data-name="Path 298" d="M112.988,174.479a10.436,10.436,0,0,0-2.9-1.394,8.981,8.981,0,0,0-9.05,1.908,7.816,7.816,0,0,0,1.708,1.259C108.657,179.53,111.994,177.022,112.988,174.479Z" transform="translate(-99.375 -167.108)" fill="#ffac9f"/>
                      <path id="Path_299" data-name="Path 299" d="M100.6,161.791c-.071,2.548,1.9,5.061,4.89,5.965a6.853,6.853,0,0,0,6.306-1.05,1.8,1.8,0,0,0-.237-.528c-1.451-2.123-3.754-.521-5.235-.739s-.781-2.839-4.346-3.686A2.662,2.662,0,0,0,100.6,161.791Z" transform="translate(-97.965 -161.678)" fill="#f7fffa"/>
                    </g>
                    <path id="Path_300" data-name="Path 300" d="M86.827,141.179a6.989,6.989,0,0,0-.664-1.654,2.1,2.1,0,0,0-2.9-.89,7,7,0,0,0-1.32.875" transform="translate(-44.762 -121.314)" fill="none" stroke="#4f0200" stroke-miterlimit="10" stroke-width="0.75"/>
                    <path id="Path_301" data-name="Path 301" d="M120.24,132.948a9.48,9.48,0,0,0-.813-1.615,2.247,2.247,0,0,0-.845-.876,1.854,1.854,0,0,0-1.611.114,15.415,15.415,0,0,0-1.4.922" transform="translate(-95.134 -117.319)" fill="none" stroke="#4f0200" stroke-miterlimit="10" stroke-width="0.75"/>
                    <path id="Path_302" data-name="Path 302" d="M109.456,151.262l-.768.948a10.7,10.7,0,0,0-.762-1.409,10.107,10.107,0,0,0-.4,1.7" transform="translate(-80.293 -127.474)" fill="none" stroke="#4f0200" stroke-miterlimit="10" stroke-width="0.5"/>
                    <g id="Group_142" data-name="Group 142" transform="translate(14.969 16.528)">
                      <path id="Path_303" data-name="Path 303" d="M119.782,148.807h0a4.619,4.619,0,0,1-3.423-5.563l.567-2.378a4.619,4.619,0,0,1,5.563-3.423h0a4.619,4.619,0,0,1,3.423,5.563l-.567,2.378A4.618,4.618,0,0,1,119.782,148.807Z" transform="translate(-116.233 -137.317)" fill="#f7fffa"/>
                      <path id="Path_304" data-name="Path 304" d="M123.325,144.384a4.6,4.6,0,0,0-.724-3.731,3.342,3.342,0,0,0-1.069-.466c-2.189-.522-4.486,1.244-5.129,3.944s.61,5.312,2.8,5.834a3.314,3.314,0,0,0,.6.08,4.611,4.611,0,0,0,2.958-3.283Z" transform="translate(-113.646 -138.695)" fill="#2b2b2b"/>
                    </g>
                    <g id="Group_143" data-name="Group 143" transform="translate(32.213 21.047)">
                      <path id="Path_305" data-name="Path 305" d="M84.853,157.616h0a4.618,4.618,0,0,0,5.818-2.967l.755-2.325a4.618,4.618,0,0,0-2.967-5.819h0a4.619,4.619,0,0,0-5.819,2.967l-.754,2.326A4.618,4.618,0,0,0,84.853,157.616Z" transform="translate(-81.659 -146.278)" fill="#f7fffa"/>
                      <path id="Path_306" data-name="Path 306" d="M87.939,149.849a4.6,4.6,0,0,1,2.56-2.808,3.352,3.352,0,0,1,1.156.159c2.14.694,3.181,3.4,2.324,6.038s-3.287,4.217-5.427,3.522a3.317,3.317,0,0,1-.552-.243,4.61,4.61,0,0,1-.816-4.343Z" transform="translate(-86.957 -146.656)" fill="#2b2b2b"/>
                    </g>
                  </g>
                  <path id="Path_307" data-name="Path 307" d="M137.607,161.755c-.4,1.692-2.533,2.634-4.757,2.1s-3.7-2.331-3.3-4.023,2.533-2.634,4.757-2.105S138.01,160.063,137.607,161.755Z" transform="translate(-119.581 -130.837)" fill="#faa29d"/>
                  <path id="Path_308" data-name="Path 308" d="M86.891,175.194c-.4,1.692-2.533,2.635-4.757,2.1s-3.7-2.331-3.3-4.023,2.533-2.635,4.757-2.105S87.294,173.5,86.891,175.194Z" transform="translate(-43.294 -137.499)" fill="#faa29d"/>
                </g>
              </g>
            </g>
          </g>
          <path id="Path_309" data-name="Path 309" d="M65.432,93.812s-7.032-3.86-5.471-6.14,12.323-1.454,12.323-1.454-4.349-2.7,1.991-4.365c18.447-4.839,21.877,5.8,23.815,10.236,1.224-.793,2.734-1.484,3.577-.778,1.573,1.318.042,3.783.042,3.783s4.049-1.158,4.24,1.01c.1,1.1-1.259,1.965-2.623,2.558,5.972,7.2,3.751,15.431,3.049,17.509-.129,1.814-.695,7.431-2.853,8.9-1.953,1.331-1.661-5.627-1.4-9.11-7.291-3.07-10.382-14.89-10.382-14.89s.884,7.185-3.289,7c-2.166-.095-2.85-3.9-3.062-5.993-.014,1.466-.444,3.536-2.865,2.959-3.658-.871-1.709-6.226-1.709-6.226-3.471,7.1-10.608,7.675-15.336,7.153l-4.038,4.7C51.56,99.952,65.432,93.812,65.432,93.812Z" transform="translate(-53.171 -80.618)" fill="#2b2b2b"/>
          <g id="Group_149" data-name="Group 149" transform="translate(27.63 2.115)">
            <path id="Path_310" data-name="Path 310" d="M95.164,85.481c-1.26,1.736,5.971,4.826,6.995,2.509S96.424,83.746,95.164,85.481Z" transform="translate(-94.422 -84.812)" fill="#686868"/>
            <path id="Path_311" data-name="Path 311" d="M98.89,93.807c-.248,1.39,4.161,4.546,5.669,3.253S99.137,92.417,98.89,93.807Z" transform="translate(-98.88 -89.107)" fill="#686868"/>
            <path id="Path_312" data-name="Path 312" d="M62.579,121.582c-1.315.6-1.551,3.686.8,4.289S63.894,120.978,62.579,121.582Z" transform="translate(-39.816 -103.019)" fill="#686868"/>
            <path id="Path_313" data-name="Path 313" d="M70.665,121.04c-1.433.313-1.917,4.785.465,4.968S72.1,120.727,70.665,121.04Z" transform="translate(-51.685 -102.767)" fill="#686868"/>
          </g>
        </g>
        <g id="Group_155" data-name="Group 155" transform="translate(0 41.79)">
          <path id="Path_314" data-name="Path 314" d="M72.616,197.025c-1.455.674-1.326,3.339-.278,3.627C74.317,201.2,74.07,196.351,72.616,197.025Z" transform="translate(18.64 -180.09)" fill="#efa47d"/>
          <path id="Path_315" data-name="Path 315" d="M163.805,178.346c-1.455.675-1.326,3.339-.278,3.627C165.507,182.517,165.261,177.671,163.805,178.346Z" transform="translate(-159.479 -170.828)" fill="#efa47d"/>
          <g id="Group_152" data-name="Group 152" transform="translate(0 0)">
            <path id="Path_316" data-name="Path 316" d="M150.656,205.894,162.9,173.451,80.074,163.5,69.426,196.539Z" transform="translate(-69.426 -163.5)" fill="#fff"/>
          </g>
          <g id="Group_153" data-name="Group 153" transform="translate(87.948 19.487)">
            <path id="Path_317" data-name="Path 317" d="M69.335,202.5c-.9.936,2.027,3.562,3.423,2.6S70.656,201.129,69.335,202.5Z" transform="translate(-67.429 -202.149)" fill="#fdc59d"/>
            <path id="Path_318" data-name="Path 318" d="M71.241,205.585c-.9.936,2.027,3.563,3.423,2.6S72.562,204.211,71.241,205.585Z" transform="translate(-70.296 -203.677)" fill="#fdc59d"/>
            <path id="Path_319" data-name="Path 319" d="M72.781,208.25c-.9.936,2.027,3.563,3.423,2.6S74.1,206.876,72.781,208.25Z" transform="translate(-72.613 -204.998)" fill="#fdc59d"/>
            <path id="Path_320" data-name="Path 320" d="M73.691,212.061c-.708.737,1.6,2.8,2.695,2.043S74.73,210.979,73.691,212.061Z" transform="translate(-73.202 -206.925)" fill="#fdc59d"/>
          </g>
          <g id="Group_154" data-name="Group 154" transform="translate(2.587 10.156)">
            <path id="Path_321" data-name="Path 321" d="M164.143,184.6c.373,1.244-3.431,2.242-4.231.744S163.6,182.777,164.143,184.6Z" transform="translate(-159.813 -183.641)" fill="#fdc59d"/>
            <path id="Path_322" data-name="Path 322" d="M163.856,188.216c.373,1.244-3.432,2.242-4.231.745S163.309,186.39,163.856,188.216Z" transform="translate(-159.382 -185.433)" fill="#fdc59d"/>
            <path id="Path_323" data-name="Path 323" d="M163.7,191.29c.373,1.244-3.432,2.242-4.231.745S163.157,189.464,163.7,191.29Z" transform="translate(-159.153 -186.957)" fill="#fdc59d"/>
            <path id="Path_324" data-name="Path 324" d="M165.067,194.524c.293.98-2.7,1.765-3.33.586S164.637,193.087,165.067,194.524Z" transform="translate(-161.662 -188.662)" fill="#fdc59d"/>
          </g>
        </g>
      </g>
    </g>
  </g>
</svg>
