<svg xmlns="http://www.w3.org/2000/svg" xmlns:xlink="http://www.w3.org/1999/xlink" width="118.3" height="95.202" viewBox="0 0 118.3 95.202">
  <defs>
    <filter id="Path_113" x="0" y="20.06" width="22.906" height="19.981" filterUnits="userSpaceOnUse">
      <feOffset input="SourceAlpha"/>
      <feGaussianBlur stdDeviation="2.5" result="blur"/>
      <feFlood flood-color="#aa4db9" flood-opacity="0.102"/>
      <feComposite operator="in" in2="blur"/>
      <feComposite in="SourceGraphic"/>
    </filter>
  </defs>
  <g id="Group_43780" data-name="Group 43780" transform="translate(-46.592 12.471)">
    <g id="Group_43519" data-name="Group 43519" transform="translate(43.555 -12.471)">
      <g id="Group_43518" data-name="Group 43518" transform="translate(0 14.64)">
        <path id="Path_150" data-name="Path 150" d="M210.577,60.148a.4.4,0,0,1-.19-.048c-21.4-11.714-43.894-8.609-44.118-8.577a.4.4,0,1,1-.114-.785c.228-.032,22.988-3.173,44.613,8.666a.4.4,0,0,1-.191.744Z" transform="translate(-108.877 -50.337)" fill="#fff"/>
        <path id="Path_151" data-name="Path 151" d="M236,68.551a.4.4,0,0,1-.368-.25c-1.139-2.859-6.529-3.767-6.583-3.776a.4.4,0,0,1-.328-.455.392.392,0,0,1,.455-.327c.239.038,5.888.988,7.193,4.265a.4.4,0,0,1-.369.543Z" transform="translate(-135.434 -53.111)" fill="#fff"/>
      </g>
      <g id="Group_122" data-name="Group 122" transform="translate(7.869 0)">
        <g id="Group_43509" data-name="Group 43509">
          <g id="Group_120" data-name="Group 120">
            <g id="Group_119" data-name="Group 119" transform="translate(20.593 21.066)" opacity="0.53">
              <path id="Path_247" data-name="Path 247" d="M577.9,41.553a3.827,3.827,0,0,1-.787-1.628,1.743,1.743,0,0,1,.553-1.65,1.146,1.146,0,0,1,1.612.19,1.874,1.874,0,0,1,.223.751l.351,2.349a5.2,5.2,0,0,1,2.172-2.257c.491-.266,1.192-.41,1.537.03a.909.909,0,0,1,.07.9,2.444,2.444,0,0,1-.565.748,17.828,17.828,0,0,1-2.3,1.941,2.888,2.888,0,0,1,2.2,2.368,1.174,1.174,0,0,1-.065.666.992.992,0,0,1-1.178.416,2.5,2.5,0,0,1-1.075-.805,12.1,12.1,0,0,1-1.094-1.432,3.543,3.543,0,0,1-1.652,2.286,1.21,1.21,0,0,1-1.327.085,1.038,1.038,0,0,1-.327-.834,3.728,3.728,0,0,1,1.341-2.351c-.529-.061-1.061.078-1.594.063a1.321,1.321,0,0,1-1.285-.762,1.065,1.065,0,0,1,.469-1.14,1.985,1.985,0,0,1,1.268-.266,3.592,3.592,0,0,1,1.607.525" transform="translate(-537.613 -38.031)" fill="#faa29d"/>
              <g id="Group_118" data-name="Group 118" transform="translate(14.084 62.845)">
                <path id="Path_249" data-name="Path 249" d="M558.329,310.166c-.727-.35-1.439-.736-2.146-1.14v1.389l.025.014c.367.2.736.385,1.105.564h3.021A18.841,18.841,0,0,1,558.329,310.166Z" transform="translate(-556.183 -302.299)" fill="#faa29d"/>
                <path id="Path_250" data-name="Path 250" d="M644.993,292.617a28.8,28.8,0,0,0-3.089-1.032,24.492,24.492,0,0,1,3.089-2.06v-1.376a25.422,25.422,0,0,0-4.561,3.077,27.488,27.488,0,0,0-9.909-.307c-5.825.894-11.676,3.614-17.554,5.374-.327.084-.653.176-.977.284q-.495.138-.99.266h9.358c-.2-.085-.4-.167-.6-.239a11.286,11.286,0,0,0-2.233-.574c3.01-1.066,6-2.195,9.08-3.029a29.427,29.427,0,0,1,12.7-.765,35.051,35.051,0,0,0-3.646,4.606h1.406a22.166,22.166,0,0,1,1.607-2.2,22.964,22.964,0,0,1,2.1-2.119,26.163,26.163,0,0,1,3.04.893c.4.143.788.3,1.177.46Z" transform="translate(-593.339 -288.148)" fill="#faa29d"/>
              </g>
              <path id="Path_252" data-name="Path 252" d="M672.171,27.337a4.892,4.892,0,0,1,.884-4.065,3,3,0,0,1,3.861-.652c-.089-2.478,1.951-4.649,4.3-5.446a4.763,4.763,0,0,1,3.26-.08,4.443,4.443,0,0,1,2.181,2.127,13,13,0,0,1,.99,2.941c.782-1.145,2.415-1.246,3.8-1.127a3.187,3.187,0,0,1,2.169.793,2.641,2.641,0,0,1,.54,1.149,6.247,6.247,0,0,1-.305,3.889c1.075-.342,2.192.4,2.954,1.23a4.676,4.676,0,0,1,1.443,3.519,3.651,3.651,0,0,1-3.563,3,5.291,5.291,0,0,1-4.262-2.384c-.156,1.9-1.9,3.292-3.656,4.038a8.416,8.416,0,0,1-2.69.7,6.39,6.39,0,0,1-6.344-4.326,4.327,4.327,0,0,1-6.934-.122,3.359,3.359,0,0,1-.594-2.832,2.315,2.315,0,0,1,2.2-1.7" transform="translate(-670.093 -13.495)" fill="#faa29d"/>
            </g>
            <g id="Group_117" data-name="Group 117">
              <g id="Group_43529" data-name="Group 43529" transform="translate(62.516)">
                <g id="Group_96" data-name="Group 96" transform="translate(10.412 71.489)">
                  <g id="Group_93" data-name="Group 93" transform="translate(9.493 0.882)">
                    <path id="Path_188" data-name="Path 188" d="M657.382,230.642s-3.344,21.389-2.569,21.2,6.845,1.3,6.17.984-3.423-4.181-3.423-4.181l5.276-15.574Z" transform="translate(-653.491 -230.642)" fill="#fdc59d"/>
                    <path id="Path_189" data-name="Path 189" d="M657.559,264.34l.8-2.367a28.807,28.807,0,0,1-3.175-.274c-.414,3.351-.643,5.9-.373,5.838a3.078,3.078,0,0,1,.838.04l3.639-.915C658.415,265.543,657.559,264.34,657.559,264.34Z" transform="translate(-653.491 -246.334)" fill="#fff"/>
                    <path id="Path_190" data-name="Path 190" d="M656.331,250.543l3.623.489,1.646-4.859,0-.005-4.424-1.645C656.9,246.443,656.6,248.549,656.331,250.543Z" transform="translate(-654.317 -237.655)" fill="#efa47d"/>
                    <g id="Group_92" data-name="Group 92" transform="translate(0 16.874)">
                      <path id="Path_191" data-name="Path 191" d="M655.836,266.288s-.176-1.613.676-1.539,2.664.7,2.373,1.224a5.483,5.483,0,0,1-1.132,1.187s3.723,2.687,3.012,3.453c-.445.479-8.526-1.082-8.505-1.663s.785-3.367,1.238-3.3a3.928,3.928,0,0,1,1.276.848Z" transform="translate(-652.26 -264.747)" fill="#faa29d"/>
                      <path id="Path_192" data-name="Path 192" d="M660.639,273.135a21.982,21.982,0,0,1-8.194-1.827,5.87,5.87,0,0,0-.185.958c-.02.581,8.061,2.142,8.505,1.663C660.932,273.75,660.853,273.465,660.639,273.135Z" transform="translate(-652.26 -268.062)" fill="#faa29d"/>
                      <path id="Path_193" data-name="Path 193" d="M663.572,269.725s-.312-.561-.739-.6-1.361.424-1.029.988S663.353,270.25,663.572,269.725Z" transform="translate(-657.047 -266.957)" fill="#2b2b2b"/>
                      <path id="Path_194" data-name="Path 194" d="M665.8,271.535s-.312-.561-.739-.6-1.361.424-1.028.987S665.578,272.061,665.8,271.535Z" transform="translate(-658.171 -267.872)" fill="#2b2b2b"/>
                    </g>
                  </g>
                  <g id="Group_95" data-name="Group 95" transform="translate(0 0)">
                    <path id="Path_195" data-name="Path 195" d="M641.9,228.859l-1.988,18.174s-3.933.265-3.761,1.128,6.016,1.364,6.016,1.364l5.024-19.587Z" transform="translate(-634.627 -228.859)" fill="#fdc59d"/>
                    <path id="Path_196" data-name="Path 196" d="M643.657,265.213l1.223-4.766c-1.208-.189-2.34-.386-3.17-.536l-.308,2.81a18.975,18.975,0,0,0-2.312.313l1.318,1.721.27.093C642.171,265.085,643.657,265.213,643.657,265.213Z" transform="translate(-636.112 -244.548)" fill="#fff"/>
                    <path id="Path_197" data-name="Path 197" d="M649.967,244.771l-4.479.63-.4,3.7L648.6,250.1Z" transform="translate(-639.141 -236.898)" fill="#efa47d"/>
                    <g id="Group_94" data-name="Group 94" transform="translate(0 16.04)">
                      <path id="Path_198" data-name="Path 198" d="M639.052,262.866s.97-1.1.161-1.382-2.458-.343-2.408.257.14,1.137.14,1.137-4.19,1.578-3.854,2.568c.21.619,7.917,1.85,8.136,1.312s.66-3.394.217-3.515a3.921,3.921,0,0,0-1.511.252Z" transform="translate(-633.072 -261.278)" fill="#faa29d"/>
                      <path id="Path_199" data-name="Path 199" d="M641.411,269.828c-2.179.25-6.24-.58-8.209-1.03a.507.507,0,0,0-.11.448c.21.619,7.917,1.85,8.136,1.312A4.7,4.7,0,0,0,641.411,269.828Z" transform="translate(-633.073 -265.077)" fill="#faa29d"/>
                      <path id="Path_200" data-name="Path 200" d="M638.848,264.021s.457-.45.878-.37,1.187.789.711,1.236S638.911,264.587,638.848,264.021Z" transform="translate(-635.991 -262.472)" fill="#2b2b2b"/>
                      <path id="Path_201" data-name="Path 201" d="M636.2,265.135s.456-.45.878-.37,1.187.789.71,1.236S636.268,265.7,636.2,265.135Z" transform="translate(-634.655 -263.035)" fill="#2b2b2b"/>
                    </g>
                  </g>
                </g>
                <g id="Group_99" data-name="Group 99" transform="translate(11.022 55.707)">
                  <g id="Group_98" data-name="Group 98" transform="translate(0 0)">
                    <path id="Path_202" data-name="Path 202" d="M634.3,222.746s7.133-24.1,9.676-25.381,6.261.686,9.775,3.046c5.555,3.731,5.228,24.661,5.228,24.661Z" transform="translate(-634.305 -196.961)" fill="#faa29d"/>
                    <g id="Group_97" data-name="Group 97" transform="translate(0.768 19.504)">
                      <path id="Path_203" data-name="Path 203" d="M659.709,243.155a5.973,5.973,0,0,0-1.279-.467,4.261,4.261,0,0,0-2.908.634,1.694,1.694,0,0,1-1.663-.084,7.148,7.148,0,0,0-1.406-.764,3.637,3.637,0,0,0-2.439.43,3.037,3.037,0,0,1-1.443.341,4.327,4.327,0,0,1-1.542-.62,2.6,2.6,0,0,0-2.388-.316,5.743,5.743,0,0,1-1.314.639,1.691,1.691,0,0,1-1.245-.392,16.209,16.209,0,0,0-2.017-1.492,3.109,3.109,0,0,0-2.828.321,3.348,3.348,0,0,1-1.164.291c-.075.243-.148.477-.215.7a8.354,8.354,0,0,0,2.6-.807c1.87-.612,2.8,1.937,4.546,2.058,1.071.074,1.681-1.15,2.7-1.01.982.135,1.721.973,2.709,1.127a4.936,4.936,0,0,0,2.526-.657,1.885,1.885,0,0,1,1.545-.052c.507.228.913.632,1.412.876,1.114.546,1.931-.166,2.953-.531a3.191,3.191,0,0,1,2.881.654Q659.725,243.614,659.709,243.155Z" transform="translate(-635.858 -238.632)" fill="#f7fffa"/>
                      <path id="Path_204" data-name="Path 204" d="M639.61,237.9a15.706,15.706,0,0,1,1.336-.847,1.338,1.338,0,0,1,1.385.345,5.2,5.2,0,0,0,1.885,1.328c1.054.246,1.7-.852,2.693-.763.946.084,1.639,1.039,2.644.916.974-.12,1.53-1.4,2.59-.914.781.359,1.336,1.113,2.187,1.343a2.18,2.18,0,0,0,1.4-.152,6.678,6.678,0,0,1,1.853-.572,7.331,7.331,0,0,1,2.658.373q-.017-.324-.037-.659a7.267,7.267,0,0,0-4.51.3,1.817,1.817,0,0,1-1.557.1,9.59,9.59,0,0,1-1.277-.807,2.034,2.034,0,0,0-1.932-.321c-.407.177-.716.534-1.132.691a2.1,2.1,0,0,1-1.682-.366,2.478,2.478,0,0,0-2.36-.161,2.087,2.087,0,0,1-1.491.376,2.991,2.991,0,0,1-1.032-.715,2.955,2.955,0,0,0-1.85-1.009c-1.108-.006-1.888,1.028-2.991,1.146a3.3,3.3,0,0,1-1.084-.07c-.078.248-.154.489-.228.724A3.575,3.575,0,0,0,639.61,237.9Z" transform="translate(-636.473 -236.382)" fill="#f7fffa"/>
                    </g>
                    <path id="Path_205" data-name="Path 205" d="M653.281,204.829s6.708,8.238,9.153.619a8.3,8.3,0,0,0-2.688-4.03c-.4-.266-.795-.525-1.193-.777l-9.173-1.686a35.834,35.834,0,0,0-3.22,7.022,3.05,3.05,0,0,0,1.512.775C652.035,207.536,653.281,204.829,653.281,204.829Z" transform="translate(-640.294 -197.969)" fill="#f7fffa"/>
                    <path id="Path_206" data-name="Path 206" d="M659.592,201.136l-.9,3.194,2.114.339.725-3.456Z" transform="translate(-646.628 -199.071)" fill="#efa47d"/>
                  </g>
                  <path id="Path_207" data-name="Path 207" d="M660.23,212.194c-1.544,4.09-4.529,11.414-7.641,10.36,0,0,.242-2.5-1.368-2.5l-.839,5.859s8.1,5.124,13.514-11.294c.213-.647.419-2.438-.488-3.015h0A1.94,1.94,0,0,0,660.23,212.194Z" transform="translate(-642.428 -204.066)" fill="#ffc89e"/>
                </g>
                <g id="Group_111" data-name="Group 111" transform="translate(0)">
                  <g id="Group_109" data-name="Group 109" transform="translate(0 15.272)">
                    <g id="Group_108" data-name="Group 108" transform="translate(0)">
                      <g id="Group_107" data-name="Group 107" transform="translate(0)">
                        <g id="Group_106" data-name="Group 106" transform="translate(0 5.134)">
                          <g id="Group_105" data-name="Group 105" transform="translate(0 0)">
                            <g id="Group_104" data-name="Group 104">
                              <ellipse id="Ellipse_5" data-name="Ellipse 5" cx="6.196" cy="5.68" rx="6.196" ry="5.68" transform="translate(34.727 33.918) rotate(-67.941)" fill="#ffc89e"/>
                              <path id="Path_208" data-name="Path 208" d="M699.443,185.172a3.362,3.362,0,1,1-1.732-4.644A3.511,3.511,0,0,1,699.443,185.172Z" transform="translate(-652.91 -153.242)" fill="#efa47d"/>
                              <ellipse id="Ellipse_6" data-name="Ellipse 6" cx="6.196" cy="5.68" rx="6.196" ry="5.68" transform="translate(0 19.248) rotate(-67.944)" fill="#ffc89e"/>
                              <path id="Path_209" data-name="Path 209" d="M626.541,154.5a3.362,3.362,0,1,1-1.732-4.644A3.511,3.511,0,0,1,626.541,154.5Z" transform="translate(-616.077 -137.744)" fill="#efa47d"/>
                              <path id="Rectangle_21" data-name="Rectangle 21" d="M16.382,0h0A16.382,16.382,0,0,1,32.764,16.382v4A16.382,16.382,0,0,1,16.382,36.759h0A16.382,16.382,0,0,1,0,20.377v-4A16.382,16.382,0,0,1,16.382,0Z" transform="translate(2.344 30.366) rotate(-67.942)" fill="#ffc89e"/>
                              <path id="Path_210" data-name="Path 210" d="M661.277,168.364l-.743.678a8.776,8.776,0,0,0-.446-1.242,8.322,8.322,0,0,0-.533,1.334" transform="translate(-636.041 -146.926)" fill="none" stroke="#4f0200" stroke-miterlimit="10" stroke-width="1"/>
                              <g id="Group_100" data-name="Group 100" transform="translate(13.413 14.369)">
                                <path id="Path_211" data-name="Path 211" d="M641.515,163.853h0a3.805,3.805,0,0,1-2.1-4.956l.756-1.867a3.806,3.806,0,0,1,4.956-2.1h0a3.805,3.805,0,0,1,2.1,4.955l-.757,1.867A3.805,3.805,0,0,1,641.515,163.853Z" transform="translate(-639.138 -154.653)" fill="#f7fffa"/>
                                <path id="Path_212" data-name="Path 212" d="M649.388,161.309a3.792,3.792,0,0,0-.127-3.129,2.766,2.766,0,0,0-.813-.512c-1.718-.7-3.808.457-4.667,2.577s-.162,4.4,1.557,5.1a2.757,2.757,0,0,0,.476.14,3.8,3.8,0,0,0,2.817-2.307Z" transform="translate(-641.298 -156.074)" fill="#2b2b2b"/>
                              </g>
                              <g id="Group_101" data-name="Group 101" transform="translate(28.509 20.419)">
                                <path id="Path_213" data-name="Path 213" d="M672.362,176.261h0a3.805,3.805,0,0,0,4.739-2.55l.58-1.929a3.8,3.8,0,0,0-2.549-4.739h0a3.8,3.8,0,0,0-4.739,2.549l-.58,1.929A3.806,3.806,0,0,0,672.362,176.261Z" transform="translate(-669.651 -166.881)" fill="#f7fffa"/>
                                <path id="Path_214" data-name="Path 214" d="M670.393,169.947a3.79,3.79,0,0,1,2.058-2.36,2.757,2.757,0,0,1,.955.11c1.776.533,2.682,2.742,2.024,4.932s-2.632,3.534-4.407,3a2.739,2.739,0,0,1-.459-.189,3.8,3.8,0,0,1-.751-3.563Z" transform="translate(-669.651 -167.236)" fill="#2b2b2b"/>
                              </g>
                              <g id="Group_103" data-name="Group 103" transform="translate(16.516 26.033)">
                                <path id="Path_215" data-name="Path 215" d="M648.774,178.284c3.029.683,2.461,2.911,3.718,3.081s3.193-1.21,4.443.575-1.378,7.943-8.621,4.035C643.246,183.241,645.744,177.6,648.774,178.284Z" transform="translate(-645.411 -178.227)" fill="#2b2b2b"/>
                                <path id="Path_216" data-name="Path 216" d="M658.451,189.11a8.832,8.832,0,0,0-2.472-1.153,7.61,7.61,0,0,0-7.65,1.7,6.62,6.62,0,0,0,1.459,1.05C654.83,193.431,657.633,191.274,658.451,189.11Z" transform="translate(-646.885 -182.963)" fill="#ffac9f"/>
                                <path id="Path_217" data-name="Path 217" d="M649.847,178.33a5.452,5.452,0,0,0,4.2,5.007,5.808,5.808,0,0,0,5.333-.951,1.545,1.545,0,0,0-.206-.445c-1.251-1.785-3.187-.405-4.443-.575s-.689-2.4-3.718-3.081A2.258,2.258,0,0,0,649.847,178.33Z" transform="translate(-647.652 -178.228)" fill="#f7fffa"/>
                                <g id="Group_102" data-name="Group 102" transform="translate(2.861 0.005)">
                                  <path id="Path_218" data-name="Path 218" d="M659.571,181.607a2.06,2.06,0,0,0-.215-.193,4.458,4.458,0,0,1-.924.567c-.008-.014-.013-.028-.023-.042a.524.524,0,0,0-.2-.18.563.563,0,0,0-.289-.06.549.549,0,0,0-.266.089.528.528,0,0,0-.2.251c-.012.018-.025.035-.037.053l-.005.008-.008.017a1.234,1.234,0,0,0-.049.14c0,.006,0,.013,0,.019s0,.025,0,.038a4.611,4.611,0,0,1-2.49-.241l.015-.022v0l.045-.127v0l.009-.135v0h0a.463.463,0,0,0-.013-.065l-.013-.065h0v0s-.057-.117-.058-.119a.634.634,0,0,0-.045-.053l-.043-.05-.111-.076-.065-.023c-.009,0-.018,0-.027-.005l-.02-.007a.3.3,0,0,0-.068-.022c-.046-.006-.092-.008-.138-.01a.172.172,0,0,0-.032,0c-.043.007-.088.017-.131.026l-.008,0-.017.005-.016.007c-.039.019-.082.038-.121.059l-.007,0a.894.894,0,0,0-.123.1.187.187,0,0,0-.024.026l-.009.012a5.765,5.765,0,0,1-1.434-1.421.18.18,0,0,0,.018-.02c.009-.012.016-.025.025-.037l.039-.055c.015-.022.033-.046.046-.07,0-.008.005-.017.009-.025a.475.475,0,0,0,.075-.169.363.363,0,0,0,0-.19.358.358,0,0,0-.066-.172.479.479,0,0,0-.183-.164l-.071-.025h0l-.057-.02.057.02c-.007,0-.013-.011-.02-.015a.36.36,0,0,0-.173-.078c-.023,0-.054,0-.071,0a.427.427,0,0,0-.071,0,.6.6,0,0,0-.135.027,6.43,6.43,0,0,1-.313-.844,2.224,2.224,0,0,0-.317-.022,6.286,6.286,0,0,0,.348,1.088c-.01.015-.022.029-.031.044a.37.37,0,0,0-.029.076.387.387,0,0,0-.025.079l-.009.133v0a1.016,1.016,0,0,0,.026.133l.038.077.024.12.054.11.079.093a.357.357,0,0,0,.163.092.241.241,0,0,0,.125.026.234.234,0,0,0,.111-.006,5.59,5.59,0,0,0,1.632,1.614c0,.013,0,.023,0,.037a.526.526,0,0,0,.285.434.533.533,0,0,0,.273.056.524.524,0,0,0,.254-.086l.01-.006c.026.011.049.024.076.035a5.025,5.025,0,0,0,2.824.285l.013.026,0,.005a.086.086,0,0,0,.011.016.507.507,0,0,0,.457.228.507.507,0,0,0,.418-.275l.057-.091.028-.044.014-.023a.216.216,0,0,0,.011-.025l0,.011s0-.008,0-.012a.759.759,0,0,0,.035-.1c0-.011.009-.02.011-.031h0c0-.009.008-.017.009-.026v0A4.312,4.312,0,0,0,659.571,181.607Zm-6.978-1.844-.04.114,0,.007C652.564,179.844,652.58,179.8,652.593,179.763Zm-.719-.554h0l.011,0Zm6.468,2.81a.362.362,0,0,0-.07-.1l.078.09v0Z" transform="translate(-651.194 -178.238)" fill="#a0a0a0"/>
                                  <path id="Path_219" data-name="Path 219" d="M653.42,180.142h0l.065.023Z" transform="translate(-652.318 -179.2)" fill="#a0a0a0"/>
                                  <path id="Path_220" data-name="Path 220" d="M653.418,180.142Z" transform="translate(-652.317 -179.2)" fill="#a0a0a0"/>
                                </g>
                              </g>
                            </g>
                            <path id="Path_221" data-name="Path 221" d="M636.264,174.6c-.538,1.328-2.39,1.832-4.136,1.124s-2.725-2.358-2.186-3.686,2.39-1.832,4.136-1.125S636.8,173.269,636.264,174.6Z" transform="translate(-621.004 -148.336)" fill="#ffb8a1"/>
                            <path id="Path_222" data-name="Path 222" d="M679.085,191.08c-.538,1.328-2.39,1.832-4.136,1.124s-2.724-2.357-2.186-3.686,2.39-1.832,4.136-1.125S679.623,189.752,679.085,191.08Z" transform="translate(-642.639 -156.664)" fill="#ffb8a1"/>
                          </g>
                        </g>
                        <path id="Path_223" data-name="Path 223" d="M659.419,119.783c-17.4-10.841-34.972-.2-34.045,9.968,0,0,5.122,1.272,6.16,1.785,2.223,1.1,5.592-5.159,7.231-5.285,0,0-3.24,4.785-2.693,4.951.251.076,5.189,2.5,10.449,5.086,1.133-1.978,4.491-7.837,4.245-7.366-.255.487-2.175,6.464-2.706,8.124l3.766,1.858c1.143-1.711,4.544-6.747,4.352-5.816a71.338,71.338,0,0,1-2.827,6.57c3.413,1.687,5.967,2.951,5.967,2.951s2.828-6.886,2.916-5.865a51.95,51.95,0,0,1-.5,8.066s5.09,1.08,5.151,5.474C666.88,150.284,676.816,130.623,659.419,119.783Z" transform="translate(-618.753 -115.234)" fill="#2b2b2b"/>
                      </g>
                    </g>
                  </g>
                  <path id="Path_229" data-name="Path 229" d="M648.545,151.008a3.96,3.96,0,0,1,3.959.7" transform="translate(-630.478 -117.909)" fill="#2b2b2b" stroke="#2b2b2b" stroke-miterlimit="10" stroke-width="1"/>
                  <path id="Path_230" data-name="Path 230" d="M679.716,162.86a2.622,2.622,0,0,1,2,.3,6.482,6.482,0,0,1,1.565,1.351" transform="translate(-646.227 -123.981)" fill="#2b2b2b" stroke="#2b2b2b" stroke-miterlimit="10" stroke-width="1"/>
                  <g id="Group_110" data-name="Group 110" transform="translate(19.095)">
                    <path id="Path_231" data-name="Path 231" d="M661.484,100.222s-11.364-10.26-10.844-11,4.407-2.511,4.407-2.511l2.134,4.821-.372-6.176,6.357.1-.658,4.557,3.464-5.643s4.942.139,5.069,1.155-4.447,8.972-4.447,8.972l4.693-6.273,1.7,1.137s-5.058,11-5.984,11.363S661.484,100.222,661.484,100.222Z" transform="translate(-650.623 -84.367)" fill="#2b2b2b"/>
                    <path id="Path_232" data-name="Path 232" d="M665.625,111.389c1.753-2.919,7.022-1.041,4.888,2.648S663.872,114.308,665.625,111.389Z" transform="translate(-658.003 -97.297)" fill="#2b2b2b"/>
                    <path id="Path_233" data-name="Path 233" d="M670.3,112.875c1.44,1.249-.13,3.837-2.149,2.222S669.225,111.938,670.3,112.875Z" transform="translate(-659.143 -98.627)" fill="#2b2b2b"/>
                    <path id="Path_234" data-name="Path 234" d="M677.343,112.348c1.753-2.919,7.022-1.041,4.888,2.648S675.59,115.267,677.343,112.348Z" transform="translate(-663.923 -97.781)" fill="#2b2b2b"/>
                    <path id="Path_235" data-name="Path 235" d="M683.3,113.09c1.085.941-.1,2.891-1.619,1.675S682.491,112.385,683.3,113.09Z" transform="translate(-666.062 -98.771)" fill="#2b2b2b"/>
                  </g>
                </g>
              </g>
              <g id="Group_116" data-name="Group 116" transform="translate(0 51.07)">
                <g id="Group_113" data-name="Group 113">
                  <path id="Path_236" data-name="Path 236" d="M652.275,226.018c-.618-.094-.771-1.964.044-2.3S653.309,226.173,652.275,226.018Z" transform="translate(-566.279 -205.639)" fill="#efa47d"/>
                  <path id="Path_237" data-name="Path 237" d="M619.938,182.63c-.618-.094-.77-1.964.044-2.3S620.972,182.786,619.938,182.63Z" transform="translate(-560.255 -178.629)" fill="#efa47d"/>
                  <path id="Path_238" data-name="Path 238" d="M558.346,202.544c-.444-.33,9.689-26.67,9.689-26.67l78.29,5.268-7.671,25.42Z" transform="translate(-558.332 -175.874)" fill="#fff"/>
                </g>
                <g id="Group_114" data-name="Group 114" transform="translate(84.29 19.551)">
                  <path id="Path_239" data-name="Path 239" d="M651.168,228.268c-.026.625-1.868.98-2.292.207S651.211,227.223,651.168,228.268Z" transform="translate(-648.747 -227.666)" fill="#ffc89e"/>
                  <path id="Path_240" data-name="Path 240" d="M650.943,231.162c-.026.624-1.869.98-2.292.207S650.985,230.117,650.943,231.162Z" transform="translate(-648.607 -229.467)" fill="#ffc89e"/>
                  <path id="Path_241" data-name="Path 241" d="M650.982,233.527c-.026.625-1.868.98-2.292.206S651.025,232.482,650.982,233.527Z" transform="translate(-648.631 -230.94)" fill="#ffc89e"/>
                  <path id="Path_242" data-name="Path 242" d="M651.166,236.03c-.018.456-1.363.715-1.672.151S651.2,235.267,651.166,236.03Z" transform="translate(-649.139 -232.599)" fill="#ffc89e"/>
                </g>
                <g id="Group_115" data-name="Group 115" transform="translate(52.824 1.349)">
                  <path id="Path_243" data-name="Path 243" d="M609.944,179.454c.619.089.784,1.959-.029,2.3S608.909,179.305,609.944,179.454Z" transform="translate(-609.236 -179.449)" fill="#ffc89e"/>
                  <path id="Path_244" data-name="Path 244" d="M612.8,179.974c.619.089.783,1.959-.029,2.3S611.765,179.825,612.8,179.974Z" transform="translate(-611.014 -179.772)" fill="#ffc89e"/>
                  <path id="Path_245" data-name="Path 245" d="M615.157,180.177c.618.089.783,1.959-.029,2.3S614.122,180.028,615.157,180.177Z" transform="translate(-612.48 -179.899)" fill="#ffc89e"/>
                  <path id="Path_246" data-name="Path 246" d="M617.607,181.262c.452.065.572,1.429-.021,1.679S616.853,181.153,617.607,181.262Z" transform="translate(-614.125 -180.575)" fill="#ffc89e"/>
                </g>
              </g>
            </g>
          </g>
        </g>
      </g>
    </g>
    <g id="Group_43521" data-name="Group 43521" transform="translate(54.092 15.089)">
      <g transform="matrix(1, 0, 0, 1, -7.5, -27.56)" filter="url(#Path_113)">
        <path id="Path_113-2" data-name="Path 113" d="M5.909,44.289c-2.834,1.185-1.047,4.518,1.1,4.383.322-.02.687-.028,1.071-.04-.021.116.663.036.7-.028,1.4-.077,2.85-.32,3.286-1.431C13.643,43.16,8.243,43.313,5.909,44.289Z" transform="translate(3.05 -16.15)" fill="#faa29d"/>
      </g>
    </g>
  </g>
</svg>
