<svg width="226" height="176" viewBox="0 0 226 176" fill="none" xmlns="http://www.w3.org/2000/svg">
<g clip-path="url(#clip0_103_239)">
<g opacity="0.4">
<path d="M98.7316 75.243C101.661 76.5661 104.817 77.2676 108.013 77.306C108.791 77.1335 109.556 76.9056 110.303 76.624C112.561 75.601 112.924 73.437 111.107 71.688C108.775 69.445 105.829 69.174 102.841 69.076C101.154 69.021 99.4924 69.544 97.8009 69.286C96.7699 68.447 96.4851 69.026 96.4329 70.055C96.4599 70.3314 96.5061 70.6055 96.571 70.875C96.7667 71.4264 96.843 72.0156 96.7945 72.6009C96.7459 73.1862 96.5737 73.7533 96.29 74.262C96.3065 74.719 96.6878 75.293 96.9002 75.162C97.5914 74.737 98.1282 75.4 98.7316 75.243Z" fill="#ADD6E5"/>
<path d="M96.8761 70.1911C96.5864 69.2341 96.9543 68.9991 97.799 69.2911C99.811 67.4811 100.951 65.0481 102.197 62.6911C102.512 61.205 102.409 59.6563 101.9 58.2291C100.863 55.8881 98.8272 55.3291 96.7834 56.8471C95.8628 57.7054 95.0931 58.7228 94.5088 59.8541C93.4525 61.9305 92.984 64.2739 93.1572 66.6141C93.184 67.024 93.3033 67.4217 93.5057 67.7751C94.0657 68.5291 94.3968 69.1201 93.3793 69.8441C92.9728 70.1341 92.5886 71.0021 93.7094 71.1861C94.3262 70.7546 95.0506 70.518 95.7948 70.5051C96.1732 70.4621 96.5748 70.5091 96.8761 70.1911Z" fill="#ADD6E5"/>
<path d="M93.0693 76.6011C92.6369 78.5363 92.4965 80.5293 92.6532 82.5091C92.4495 84.1091 93.5076 84.5601 94.6855 84.7291C95.0202 84.7193 95.3524 84.7913 95.6553 84.9391C95.9581 85.087 96.2232 85.3065 96.429 85.5801C97.0875 86.5981 97.8888 87.2191 99.1322 86.4801C99.5831 86.2121 100.128 86.7401 100.608 86.4061C101.709 82.9731 100.925 79.8541 99.1332 76.9061C98.4574 77.4631 99.0048 78.5261 98.1552 79.2151C98.0828 78.5921 98.1012 77.9831 97.491 77.7311C97.2344 77.607 96.9506 77.5553 96.6685 77.5813C96.3864 77.6073 96.116 77.71 95.8845 77.8791C95.284 78.3211 94.8853 78.0701 94.4161 77.6411C94.0282 77.2168 93.5726 76.865 93.0693 76.6011Z" fill="#BBE4F3"/>
<path d="M100.605 86.4061C99.92 86.0061 99.3195 85.5661 98.4815 86.2781C97.5248 87.0871 97.2825 85.8461 96.8335 85.4001C96.2379 84.8081 96.0805 83.8561 94.7395 84.3351C94.4851 84.3676 94.227 84.3453 93.9814 84.2694C93.7358 84.1936 93.508 84.0658 93.3124 83.8943C93.1167 83.7228 92.9575 83.5111 92.8448 83.2727C92.732 83.0343 92.6681 82.7743 92.6571 82.5091C92.2709 85.8091 92.9921 88.6261 95.9396 90.4551C98.6804 90.2921 100.101 89.0621 100.605 86.4061Z" fill="#D6EBF3"/>
<path d="M93.0684 76.6021C93.108 77.7871 94.3814 77.8971 94.8593 78.7831C95.1682 79.3571 95.6567 78.5181 96.0245 78.2181C96.2167 78.0411 96.4585 77.9325 96.7145 77.908C96.9705 77.8835 97.2274 77.9445 97.4476 78.0821C98.2972 78.5541 97.408 78.7491 97.3115 79.0751C97.1831 79.5101 97.4235 79.8491 97.7884 79.8001C98.5067 79.7001 99.2616 79.2131 99.14 78.4951C99.0434 77.9301 99.5117 77.4091 99.1265 76.9041C98.776 76.4041 98.2392 75.9581 98.7268 75.2441C98.1012 74.5441 97.0074 75.0951 96.4097 74.3161C96.1725 74.128 95.8863 74.018 95.588 74.0001C95.2898 73.9823 94.9932 74.0575 94.7367 74.2161C94.4673 75.0291 95.1499 75.5501 95.3584 76.3921C94.8322 75.6921 94.9037 74.7101 94.029 74.4761C93.876 74.4595 93.7219 74.4946 93.5897 74.5761C93.2306 75.1971 93.3966 75.9671 93.0655 76.5961L93.0684 76.6021Z" fill="#ADD6E5"/>
<path d="M79.9868 80.9321C80.4755 81.0325 80.9193 81.2955 81.2505 81.6811C84.4027 82.4381 86.8356 80.5381 89.448 79.3021C89.4371 79.1914 89.4232 79.0814 89.4065 78.9721C86.9756 76.5511 84.2559 74.8961 80.7002 75.4601C79.0078 77.0191 78.6439 78.1201 79.3177 79.6301C79.5099 80.0811 79.4336 80.6811 79.9868 80.9321Z" fill="#D6EBF3"/>
<path d="M80.8904 75.6221C82.771 75.9941 84.8641 75.7501 86.4175 77.1221C87.3442 77.8551 88.3482 78.4768 89.4103 78.9751C90.0716 78.3001 91.1259 78.0691 91.4638 77.0281C88.9952 76.3991 87.4312 74.6281 86.1539 72.5011L84.81 72.8011C84.3582 72.9631 83.7934 72.9011 83.5472 73.4761C82.5722 74.0771 81.1539 74.0871 80.8904 75.6221Z" fill="#BBE4F3"/>
<path d="M86.1501 72.4971C86.2698 73.2971 86.125 74.4431 86.8809 74.7131C88.5144 75.2951 89.1362 78.0061 91.46 77.0241C91.9919 76.8431 92.2033 76.3061 92.5741 75.9471C92.9844 75.5471 93.163 74.9401 93.6708 74.6261C93.974 73.9401 93.3812 73.7181 93.0491 73.3841C92.2825 72.6021 91.2147 72.1331 90.8933 70.8931C90.8075 70.6745 90.6605 70.4874 90.4712 70.3561C90.282 70.2247 90.0591 70.1551 89.8313 70.1561C89.196 70.1861 89.3225 70.5911 89.6382 70.9641C90.0031 71.2991 89.9549 71.5361 89.4818 71.6731C89.3312 72.0731 89.1159 72.1731 88.806 71.8291L86.1501 72.4971Z" fill="#ADD6E5"/>
<path d="M93.6708 74.6271C92.5606 74.4041 92.5123 75.1271 92.5741 75.9481C92.8946 76.0351 92.9911 76.3071 93.0713 76.5921C93.5129 76.0442 93.7283 75.3382 93.6708 74.6271Z" fill="#ADD6E5"/>
<path d="M94.6777 74.398L96.4155 74.314C97.548 73.35 97.4958 72.156 97.0324 70.883C96.693 70.5118 96.2615 70.2447 95.7851 70.111C95.0214 70.074 94.2404 70.001 93.8542 70.924C92.4061 72.599 92.6841 73.774 94.6777 74.398Z" fill="#C2E4F1"/>
<path d="M98.2634 69.9991C97.4205 70.4081 97.4205 70.4081 97.6484 71.7071C97.8144 70.9371 97.658 70.3031 98.2634 69.9991Z" fill="#ADD6E5"/>
<path d="M95.7851 70.1111C96.1185 70.4899 96.5524 70.7585 97.0324 70.8831C96.9803 70.6524 96.9282 70.4217 96.876 70.1911L95.7851 70.1111Z" fill="#ADD6E5"/>
<path d="M94.6777 74.3981C92.8791 73.6271 93.1533 72.3311 93.8552 70.9241C93.3377 70.2961 93.2981 70.2321 93.8552 69.8521C94.6555 69.3101 95.5186 68.9291 94.0917 68.0351C93.7664 67.8351 93.7442 67.107 93.5829 66.623L93.245 67.5921C91.8781 65.7403 90.3128 64.0552 88.5791 62.569C87.2841 61.5066 85.7732 60.7623 84.1603 60.392C83.5964 60.172 82.9794 60.1444 82.3993 60.3133C81.8191 60.4823 81.3064 60.8389 80.9358 61.3311C80.5217 61.8656 80.2746 62.5181 80.2271 63.2017C80.1797 63.8853 80.3343 64.5676 80.6703 65.1581C81.5756 66.8815 82.994 68.2561 84.7145 69.0771C86.2099 70.0505 87.8843 70.6917 89.6314 70.9601L89.6816 70.4601C90.1779 70.6831 90.9599 71.3161 90.8904 71.3911C89.9954 72.3601 91.0757 72.3281 91.43 72.5911C92.2697 73.1509 93.0243 73.837 93.6689 74.627C95.0137 74.98 94.4634 76.4571 95.2136 77.3501C95.8894 76.8181 96.4281 76.3881 95.4684 75.5421C95.1603 75.196 94.8947 74.8117 94.6777 74.3981Z" fill="#ADD6E5"/>
<path d="M96.2311 75.7531C96.8654 76.5151 97.1251 76.8991 97.7652 76.6241C97.5721 75.9931 97.0353 76.1141 96.2311 75.7531Z" fill="#ADD6E5"/>
<path d="M88.8021 71.8271C88.8504 72.1491 88.358 72.7731 89.1188 72.6861C89.505 72.6421 89.9809 72.2471 89.477 71.6711L88.8021 71.8271Z" fill="#ADD6E5"/>
<path d="M85.3024 73.0511C85.119 73.1341 84.8197 73.0931 84.8689 73.4191C84.8815 73.4951 85.1441 73.5971 85.2551 73.5651C85.3345 73.5422 85.4079 73.5014 85.4702 73.4455C85.5325 73.3897 85.582 73.3202 85.6152 73.2421C85.6905 72.9431 85.4443 73.0591 85.3024 73.0511Z" fill="#ADD6E5"/>
<path d="M90.6326 72.7081C89.8245 72.9831 90.4723 73.7901 90.0147 74.1771C89.838 74.3261 90.2001 74.6621 90.3478 74.5631C90.8187 74.2187 91.2699 73.8464 91.6994 73.4481L90.6326 72.7081Z" fill="#ADD6E5"/>
<path d="M12.4162 111.251L12.1265 110.977C10.9275 110.542 9.25048 110.666 8.47138 111.666C8.41732 112.122 8.76101 112.455 8.82956 112.898C8.87397 113.198 9.28138 113.14 9.48316 112.877C9.68438 112.639 9.92584 112.441 10.1957 112.293C10.2528 112.324 10.3008 112.37 10.3347 112.427C10.3687 112.484 10.3873 112.549 10.3887 112.616C10.3965 112.904 10.4996 113.18 10.6809 113.399C10.8621 113.617 11.1104 113.765 11.3841 113.816C11.8736 113.974 12.3418 114.363 12.8873 114.525C13.259 114.635 13.2213 114.925 13.1528 115.267C12.9686 116.016 12.9799 116.802 13.1856 117.545C13.232 117.609 13.2601 117.686 13.2668 117.766C13.2734 117.846 13.2584 117.926 13.2233 117.998C13.1566 118.157 13.1479 118.336 13.1987 118.502C13.2494 118.667 13.3562 118.808 13.4994 118.898C14.5705 119.269 15.668 119.553 16.7818 119.747C17.2308 119.584 17.0589 119.163 17.1323 118.847C17.1389 118.798 17.135 118.748 17.121 118.7C17.107 118.653 17.0832 118.609 17.0512 118.572C16.3186 118.124 15.6231 117.614 14.9716 117.047C14.4889 116.647 14.9909 116.57 15.1715 116.389C15.3646 115.969 15.2439 115.705 14.7921 115.645C14.3963 115.593 14.2234 115.479 14.5642 115.093C14.8442 114.777 14.9176 114.439 14.5343 114.13C14.4802 114.087 14.4078 114.014 14.4252 113.961C14.823 112.696 13.4704 112.922 13.0736 112.32C12.8329 112.065 12.5684 111.835 12.2839 111.634C11.9151 111.311 12.4403 111.4 12.4162 111.251Z" fill="#F9EBA4"/>
<path d="M13.762 123.433L13.4936 123.441C13.3527 123.624 13.1016 123.574 12.9423 123.719L11.3079 124.575C11.0519 124.64 10.8122 124.761 10.6048 124.93C10.3974 125.099 10.227 125.311 10.1049 125.553C10.0354 125.838 10.2333 126.135 10.0007 126.429C9.73904 126.758 9.91283 126.929 10.2826 126.961C10.7653 127 10.7489 127.316 10.5896 127.649C10.2382 128.382 10.2768 128.557 10.9565 128.994C11.6052 129.411 11.5888 129.394 11.1042 130.017C10.7083 130.523 10.1117 130.861 9.90703 131.529C9.90153 131.562 9.90383 131.597 9.91375 131.629C9.92366 131.661 9.94089 131.69 9.96399 131.714C10.1677 131.829 10.3733 131.942 10.577 132.059C11.0311 132.15 11.4969 132.159 11.9537 132.084C12.0208 132.071 12.0858 132.048 12.1468 132.016C12.3699 131.792 12.7261 131.887 12.9472 131.658C13.0379 131.546 13.287 131.607 13.2561 131.358C13.0302 130.791 13.5515 130.758 13.8064 130.533C13.8293 130.489 13.8433 130.44 13.8476 130.39C13.8519 130.34 13.8465 130.29 13.8315 130.242C13.7939 130.131 13.7186 130.042 13.6857 129.925C13.4482 129.091 13.3401 129.049 12.6547 129.51C12.6102 129.495 12.5629 129.46 12.5687 129.41C12.6382 128.828 12.6064 128.838 12.3312 127.784C12.2106 127.321 12.2347 126.813 12.1314 126.325C12.4886 126.276 12.6498 126.85 13.0128 126.525C13.1267 126.225 13.1798 125.892 13.5795 125.825C13.6253 125.82 13.6695 125.806 13.7095 125.782C13.7494 125.759 13.7842 125.727 13.8115 125.689C13.8388 125.65 13.858 125.607 13.8679 125.56C13.8779 125.514 13.8783 125.466 13.8692 125.419C13.6964 124.762 14.824 124.03 13.762 123.433Z" fill="#FAEFB5"/>
<path d="M13.7678 130.239C13.7678 130.333 13.7678 130.427 13.7678 130.522C13.8643 130.693 13.9416 130.881 14.1877 130.815C15.0731 130.308 15.8574 129.631 16.499 128.821C15.7131 128.421 15.7585 127.602 15.6842 126.928C15.9863 127.096 16.3368 127.228 16.2509 126.517C16.2267 126.317 16.3986 126.105 16.2016 125.917C15.7701 125.697 15.4167 126.173 14.9987 126.062C14.5691 125.895 14.8336 125.646 14.9282 125.417C14.9585 125.324 14.9585 125.223 14.9282 125.13C14.8645 124.981 14.7264 124.818 14.7969 124.669C15.0866 124.06 14.6425 123.623 14.4861 123.12C14.458 123.106 14.4263 123.1 14.3951 123.104C14.364 123.109 14.3348 123.122 14.3113 123.144C14.1012 123.162 13.9059 123.263 13.7668 123.427C13.8044 123.534 13.8561 123.635 13.9203 123.727C14.1067 123.927 14.1134 124.307 14.0246 124.373C13.5892 124.688 13.4453 125.02 13.735 125.513C13.7436 125.526 13.6123 125.679 13.5554 125.673C12.8516 125.603 12.952 126.11 12.9539 126.549C12.2163 127.058 12.1816 127.187 12.645 128.005C12.7415 128.185 12.8931 128.338 12.8458 128.573C12.7657 128.973 12.9066 129.204 13.3208 129.222C13.5631 129.233 13.6925 129.347 13.6558 129.622C13.6623 129.832 13.7001 130.041 13.7678 130.239Z" fill="#F9E99D"/>
<path d="M28.5485 135.028C28.5568 135.01 28.5606 134.989 28.5596 134.969C28.5586 134.948 28.5528 134.929 28.5427 134.911C28.06 134.823 27.7704 134.356 27.2114 134.267C27.5454 133.912 27.8265 133.508 28.0455 133.067C28.0676 132.968 28.0513 132.864 28.0002 132.777L27.9905 132.784C27.7192 132.624 27.8438 132.371 27.8496 132.145C27.8533 131.816 27.7589 131.494 27.5792 131.222C27.2771 130.568 26.9256 129.942 26.5926 129.305C26.4806 129.09 26.3918 128.82 26.0915 128.788C25.7681 129.315 25.7053 129.947 25.4215 130.505C25.1772 130.99 25.6059 131.183 26.0384 131.218C26.4182 131.577 26.7151 132.019 26.9073 132.513C27.0762 132.802 26.8706 133.093 26.7142 133.347C26.5195 133.569 26.3465 133.811 26.1977 134.068C26.0662 134.194 25.8965 134.269 25.7175 134.28C25.5385 134.291 25.3615 134.237 25.2168 134.127C25.1705 134.116 25.1224 134.115 25.0758 134.125C25.0292 134.135 24.9851 134.154 24.9465 134.183C24.8297 134.269 24.7911 134.592 24.5603 134.321C24.3112 134.033 24.1336 134.121 24.0303 134.443C23.8894 134.893 23.7001 135.09 23.2705 134.72C23.1946 134.667 23.1029 134.643 23.0118 134.654C22.9207 134.664 22.8362 134.708 22.7733 134.777L22.8148 135.327C22.9259 135.509 22.9529 135.727 23.0581 135.914C23.1565 136.33 23.3476 136.716 23.6161 137.042C24.2427 136.894 24.6839 136.342 25.323 136.206C25.4099 136.172 25.4862 136.114 25.5437 136.039C25.6012 135.964 25.6377 135.873 25.6493 135.778C25.7758 135.178 26.1321 135.178 26.5723 135.378C26.6757 135.427 26.7843 135.463 26.8957 135.486C27.3232 135.664 27.7158 135.922 28.0542 136.246C28.8044 136.1 28.5987 135.53 28.5485 135.028Z" fill="#F4CB32"/>
<path d="M27.9895 136.189C27.9895 136.166 27.9973 136.138 27.9895 136.12C27.8177 135.786 28.453 135.546 28.1315 135.266C27.8766 135.044 27.529 135.324 27.2249 135.361C26.7789 135.414 26.5095 134.988 26.0732 135.042C25.743 135.083 25.5055 135.097 25.5209 135.537C25.5364 135.961 25.2941 136.147 24.8895 136.196C24.3873 136.331 23.9395 136.628 23.6104 137.044C23.6692 137.48 24.0931 137.713 24.179 138.134C24.5729 138.262 24.7467 138.799 25.241 138.749C25.4293 138.828 25.6297 138.871 25.8328 138.877C26.44 138.901 26.6418 138.684 26.4719 138.077C26.3667 137.698 26.412 137.529 26.7934 137.426C27.0545 137.346 27.2972 137.212 27.5071 137.033C27.717 136.853 27.8896 136.632 28.0147 136.381C28.0294 136.35 28.035 136.315 28.0305 136.281C28.026 136.247 28.0118 136.215 27.9895 136.189Z" fill="#F4C623"/>
<path d="M16.2258 125.98C16.121 126.106 16.058 126.263 16.046 126.429C16.034 126.595 16.0737 126.76 16.1591 126.901C15.7614 127.011 15.6291 126.351 15.1879 126.678C15.4071 127.032 15.7401 127.278 15.549 127.868C15.4216 128.268 15.9149 128.768 16.498 128.821C17.3877 127.931 18.1993 126.96 18.9232 125.921C19.208 125.571 19.6241 125.321 19.7679 124.855C19.4783 124.674 19.2447 124.373 18.8305 124.555C18.5785 124.667 18.5553 124.314 18.3845 124.235C18.2491 124.222 18.1127 124.239 17.984 124.285C17.8553 124.33 17.7372 124.403 17.6372 124.498C17.2406 124.841 16.8272 125.162 16.3986 125.461C16.2393 125.546 16.0713 125.73 16.2258 125.98Z" fill="#F7E58E"/>
<path d="M22.7675 134.779C22.9606 134.913 23.3526 134.666 23.3642 135.134C23.3642 135.252 23.5042 135.301 23.5573 135.228C23.7137 135.003 24.1288 135.152 24.1578 134.759C24.1693 134.606 24.1172 134.431 24.2697 134.291C24.5256 134.334 24.3943 134.891 24.7949 134.743C25.0633 134.643 24.9523 134.397 24.9832 134.205C24.8529 133.824 24.5005 133.85 24.1384 133.765C24.235 133.705 24.3186 133.625 24.384 133.531C24.4493 133.436 24.495 133.328 24.5182 133.214C24.5413 133.1 24.5414 132.982 24.5184 132.868C24.4954 132.754 24.4499 132.646 24.3846 132.551C24.2292 132.289 24.1047 132.051 23.7571 132.2C23.4511 132.329 23.3709 132.1 23.258 131.819C23.4404 132.183 23.7243 132.207 23.8652 131.977C24.095 131.602 24.904 131.511 24.4628 130.777C24.2714 130.661 24.0735 130.557 23.87 130.465C23.4964 130.354 23.5051 130.875 23.2087 130.892C22.8757 130.944 22.7685 131.101 22.7077 131.486C22.6643 132.105 22.5853 132.72 22.4711 133.329C22.4459 133.407 22.4362 133.489 22.4427 133.57C22.4492 133.652 22.4717 133.731 22.5088 133.803C22.5464 134.145 22.4316 134.528 22.7675 134.779Z" fill="#F5C92B"/>
<path d="M13.4965 118.899C13.3748 118.553 13.1779 118.218 13.4685 117.847C13.5448 117.747 13.4839 117.58 13.3565 117.49C13.26 117.39 13.1007 117.59 13.0167 117.377C12.8829 116.908 12.7054 116.454 12.4866 116.02C12.3409 115.787 12.6073 115.5 12.7164 115.245C12.8062 115.037 13.1615 114.82 12.8352 114.598C12.7647 114.546 12.6838 114.51 12.5985 114.494C12.5131 114.478 12.4254 114.482 12.3417 114.506C12.258 114.529 12.1804 114.572 12.1145 114.63C12.0485 114.688 11.9959 114.761 11.9605 114.843C11.7365 115.232 11.5164 115.624 11.0037 115.637C10.5732 115.788 10.298 116.031 10.5056 116.555C10.6272 116.863 10.3975 117.014 10.2382 117.196L10.4776 117.496C11.4491 118.04 12.4581 118.509 13.4965 118.899Z" fill="#FAEFBB"/>
<path d="M14.4542 123.168C14.4542 123.456 14.3286 123.768 14.6694 123.968C14.8519 124.076 14.7312 124.212 14.6694 124.368C14.5623 124.651 14.4155 124.997 14.8741 125.142C14.9167 125.182 14.9723 125.205 15.03 125.205C15.0878 125.205 15.1434 125.182 15.186 125.142C15.9255 124.523 16.6804 123.925 17.4682 123.372C17.5342 123.325 17.5901 123.264 17.6324 123.193C17.6748 123.122 17.7027 123.043 17.7144 122.961C17.6723 122.651 17.6785 122.336 17.7328 122.028C16.971 122.268 16.2035 122.49 15.4515 122.759C15.2636 122.823 15.0692 122.863 14.8722 122.88C14.7631 123.025 14.542 122.992 14.4542 123.168Z" fill="#F8E794"/>
<path d="M23.34 131.088C23.7387 131.118 23.4925 130.532 23.8468 130.521L23.927 130.475C23.947 130.432 23.9574 130.385 23.9574 130.337C23.9574 130.289 23.947 130.242 23.927 130.199C23.8084 130.016 23.7561 129.796 23.7792 129.577C23.7874 129.406 23.7431 129.237 23.6528 129.094C23.6137 129.062 23.5677 129.041 23.5188 129.033C23.4699 129.024 23.4197 129.028 23.3728 129.045C23.3341 129.066 23.3009 129.096 23.2762 129.133C23.1507 129.345 23.0059 129.514 22.7346 129.394C22.6801 129.377 22.6338 129.34 22.6054 129.289C22.577 129.238 22.5686 129.177 22.5821 129.12C22.6439 128.87 22.7163 128.614 23.031 128.601C23.1643 128.595 23.3014 128.624 23.4008 128.495C23.4433 128.419 23.468 128.333 23.4729 128.245C23.4777 128.158 23.4626 128.07 23.4288 127.989C23.1652 127.671 23.312 127.24 23.1507 126.894C23.1325 126.865 23.1079 126.841 23.0788 126.823C23.0498 126.806 23.0172 126.796 22.9837 126.794C21.9797 127.034 21.8349 127.215 21.8455 128.313C21.7891 128.967 21.8285 129.626 21.9623 130.268C21.8892 131.034 21.9833 131.807 22.2375 132.53C22.5589 132.187 22.3639 131.686 22.6043 131.3C22.8119 130.961 23.0021 130.823 23.34 131.088Z" fill="#F6D247"/>
<path d="M21.9566 130.268C21.9971 129.539 21.9948 128.808 21.9498 128.079C21.9025 127.653 22.336 127.498 22.2762 127.128C22.4172 127.152 22.5618 127.139 22.6967 127.09C22.8316 127.041 22.9526 126.958 23.0485 126.848C23.1189 126.784 23.1679 126.698 23.1885 126.604C23.2091 126.509 23.2003 126.41 23.1634 126.321C22.9981 126.04 22.9322 125.709 22.9771 125.383C22.9966 125.123 22.9677 124.862 22.8921 124.614C22.6672 124.362 22.7502 123.982 22.5474 123.721C22.1207 123.74 22.1526 124.079 22.0821 124.374C22.3364 123.502 22.2583 122.562 21.8639 121.748C21.7548 121.428 21.6033 121.219 21.3069 121.591C20.7778 122.083 21.2769 122.469 21.4324 122.891L21.5753 122.823C21.9209 122.954 21.7596 123.261 21.7616 123.483C21.7751 125.402 21.7664 127.321 21.7732 129.24C21.7732 129.466 21.7017 129.708 21.8446 129.921C21.8312 129.984 21.8345 130.049 21.8543 130.111C21.874 130.172 21.9094 130.226 21.9566 130.268Z" fill="#F5D85D"/>
<path d="M17.0772 118.894C16.609 119.043 17.1661 119.568 16.7876 119.749L16.7789 119.766C17.0406 119.917 17.3717 119.829 17.6218 120.023C18.201 119.923 18.6837 120.341 19.2379 120.338C19.5092 120.446 19.8046 120.473 20.072 120.594L20.3365 120.618C20.4606 120.687 20.6055 120.706 20.742 120.669C20.8067 120.64 20.8591 120.588 20.8893 120.522C20.9195 120.456 20.9255 120.381 20.9061 120.311C20.7333 120.143 20.491 120.094 20.3105 119.94C19.8254 119.648 19.3023 119.43 18.7571 119.293C18.6449 119.307 18.5312 119.292 18.4256 119.251C18.3201 119.209 18.2258 119.141 18.1508 119.054C17.8187 118.777 17.4789 118.595 17.0772 118.894Z" fill="#F6E38C"/>
<path d="M21.4323 122.892C21.3976 122.733 21.5878 122.518 21.4401 122.43C21.0278 122.185 21.3078 121.971 21.4256 121.741C21.2653 121.564 21.4874 121.307 21.3078 121.134C21.251 121.087 21.1852 121.053 21.1147 121.034C21.0252 121.013 20.9323 121.013 20.8428 121.034C20.7533 121.055 20.6696 121.097 20.5982 121.157L20.6088 121.178C20.3491 121.332 20.0296 121.278 19.7718 121.439C19.7319 121.444 19.6926 121.452 19.654 121.464C19.5942 121.622 19.6772 121.722 19.7872 121.81C19.9322 121.872 20.085 121.912 20.241 121.929C20.5702 122.108 20.4051 122.329 20.2844 122.538C20.2511 122.596 20.2242 122.658 20.2043 122.722C20.1323 123.084 20.0079 123.433 19.8355 123.756C19.6772 124.137 19.7187 124.403 20.2217 124.301L20.3433 124.165C20.4341 124.015 20.4563 123.814 20.6465 123.74C20.9178 123.471 21.2943 123.299 21.4323 122.892Z" fill="#F6DA5D"/>
<path d="M20.2188 124.305C19.9147 124.257 19.7699 124.174 19.9891 123.816C20.125 123.65 20.2262 123.457 20.2863 123.248C20.3465 123.039 20.3643 122.82 20.3385 122.604C20.3202 122.59 20.3009 122.562 20.2854 122.564C19.5307 122.939 18.8699 123.49 18.3546 124.173C18.344 124.211 18.3826 124.255 18.4135 124.291C18.4135 124.729 18.4588 125.1 18.9927 124.675C19.3181 124.417 19.4455 125.082 19.7651 124.853L20.2188 124.305Z" fill="#F5DE72"/>
<path d="M19.7853 121.751L19.653 121.468C18.9943 121.579 18.35 121.769 17.7328 122.032C17.6625 122.075 17.6024 122.134 17.5568 122.205C17.5113 122.275 17.4815 122.356 17.4696 122.439C17.4576 122.523 17.4639 122.609 17.4879 122.69C17.5119 122.771 17.553 122.845 17.6082 122.908C17.9529 123.134 18.1943 122.908 18.4395 122.708C18.6061 122.546 18.8258 122.455 19.0545 122.453C19.3267 122.251 19.8461 122.324 19.7853 121.751Z" fill="#F5E286"/>
<path d="M23.34 131.088C23.3411 131.034 23.3282 130.981 23.3028 130.935C23.2773 130.888 23.2403 130.849 23.1954 130.822C23.1505 130.795 23.0995 130.781 23.0477 130.782C22.9959 130.782 22.9451 130.797 22.9007 130.825C22.736 130.891 22.5906 131.001 22.4785 131.142C22.3664 131.284 22.2914 131.453 22.2607 131.633C22.2287 131.932 22.2194 132.233 22.2327 132.533C22.28 132.968 22.1255 133.451 22.5049 133.81C22.7144 133.335 22.7907 132.808 22.725 132.29C22.6623 132.035 23.0639 131.656 22.8824 131.209C22.8254 131.071 23.1759 131.122 23.34 131.088Z" fill="#F4CF41"/>
<path d="M21.8446 129.921C21.8446 127.587 21.8446 125.253 21.8291 122.921C21.8291 122.821 21.9575 122.628 21.7326 122.611C21.6853 122.611 21.6283 122.75 21.5752 122.826C21.8291 123.076 21.7229 123.401 21.7229 123.693C21.7297 125.526 21.7171 127.358 21.7229 129.193C21.7258 129.432 21.6322 129.708 21.8446 129.921Z" fill="#F6DA5D"/>
<path d="M14.1887 130.816C14.041 130.73 13.985 130.502 13.7687 130.523C13.6047 130.49 13.4348 130.52 13.2901 130.606C13.1455 130.693 13.0357 130.831 12.9809 130.994C12.8979 131.194 12.9944 131.349 13.2242 131.375C13.2413 131.395 13.2622 131.41 13.2856 131.421C13.309 131.432 13.3343 131.438 13.3599 131.438C13.3854 131.438 13.4107 131.432 13.4341 131.421C13.4575 131.41 13.4784 131.395 13.4955 131.375C13.7176 131.177 14.0255 131.092 14.1887 130.816Z" fill="#F9ECAB"/>
<path d="M20.5973 121.159H21.1196C21.2808 121.088 21.5106 121.007 21.415 120.796C21.3884 120.733 21.3488 120.677 21.2991 120.632C21.2493 120.587 21.1906 120.554 21.127 120.535C21.0635 120.516 20.9967 120.511 20.9314 120.522C20.866 120.532 20.8037 120.558 20.7488 120.596L20.3298 120.616C20.4766 120.767 20.661 120.898 20.5973 121.159Z" fill="#FBFADC"/>
<path d="M12.1246 131.936H12.9471C12.9471 131.843 12.9471 131.749 12.9471 131.656C12.6729 131.746 12.2704 131.432 12.1246 131.936Z" fill="#FBF9E5"/>
<path d="M17.616 120.023C17.4402 119.567 17.0618 119.823 16.7731 119.766C16.88 119.881 17.0139 119.965 17.1617 120.01C17.3095 120.055 17.466 120.06 17.616 120.023Z" fill="#F7F6D8"/>
<path d="M19.7708 121.441C19.9202 121.477 20.0761 121.472 20.223 121.426C20.3699 121.381 20.5026 121.296 20.6078 121.18C20.3037 121.182 19.9726 121.089 19.7708 121.441Z" fill="#F4E69E"/>
<path d="M14.4532 123.168C14.6463 123.152 14.8462 123.157 14.8684 122.881C14.6463 122.89 14.3721 122.781 14.3094 123.149L14.4532 123.168Z" fill="#FAF3CD"/>
<path d="M20.0662 120.595C19.9582 120.485 19.8256 120.404 19.6801 120.359C19.5346 120.314 19.3808 120.307 19.2321 120.339C19.3401 120.449 19.4727 120.531 19.6182 120.575C19.7637 120.62 19.9176 120.627 20.0662 120.595Z" fill="#F8F4CC"/>
<path d="M12.9433 123.718C13.1605 123.697 13.4444 123.818 13.4946 123.44C13.3858 123.414 13.272 123.428 13.1717 123.479C13.0715 123.529 12.9909 123.614 12.9433 123.718Z" fill="#FAF4D8"/>
<path d="M13.4946 131.375H13.2233L12.9491 131.658C13.1644 131.632 13.4482 131.749 13.4946 131.375Z" fill="#FBF9E5"/>
<path d="M23.0523 135.916C23.0843 135.804 23.0774 135.684 23.033 135.577C22.9886 135.47 22.9093 135.382 22.8091 135.329C22.7771 135.441 22.784 135.561 22.8284 135.668C22.8728 135.775 22.952 135.863 23.0523 135.916Z" fill="#F0E698"/>
<path d="M20.6446 123.743C20.326 123.718 20.324 123.935 20.3414 124.168C20.4217 124.128 20.4914 124.069 20.5442 123.995C20.5971 123.921 20.6315 123.834 20.6446 123.743Z" fill="#F5DE72"/>
<path d="M25.5113 112.794C25.8003 111.271 25.8958 109.715 25.7951 108.166C25.7422 106.569 25.2058 105.03 24.262 103.766C24.0409 103.383 23.7223 103.07 23.3411 102.861C22.9599 102.652 22.5308 102.556 22.1004 102.583C21.5408 102.682 21.0213 102.948 20.6061 103.349C20.1909 103.75 19.8982 104.269 19.7641 104.84C19.6415 105.128 19.6743 105.352 20.0074 105.434C20.6166 105.585 20.297 106.361 20.7546 106.612C20.2719 107.047 20.6986 107.274 20.9371 107.578C20.9867 107.675 21.0573 107.758 21.1433 107.822C21.2293 107.885 21.3284 107.927 21.4327 107.944C21.5371 107.962 21.6439 107.953 21.7446 107.92C21.8454 107.888 21.9375 107.831 22.0135 107.755C21.4497 108.609 21.4516 108.855 21.9653 109.543C22.1381 109.775 22.2858 109.836 22.4615 109.643C22.0106 109.925 22.2742 110.207 22.5648 110.443C22.9326 110.743 23.1894 110.968 22.8052 111.519C22.5571 111.875 22.9432 112.297 23.1508 112.652C23.2006 112.689 23.2607 112.707 23.3217 112.704C23.4955 112.58 23.4752 112.322 23.648 112.197C23.6929 112.165 23.74 112.137 23.789 112.113C23.8382 112.107 23.9029 112.113 23.9067 112.156C24.0787 112.985 24.0404 113.847 23.7957 114.656C23.754 114.758 23.727 114.865 23.7156 114.975C23.6992 115.175 23.7001 115.366 23.6973 115.562C23.6973 115.819 23.6876 116.076 23.705 116.331C23.7223 116.586 23.6818 116.9 23.9946 116.958C24.2842 117.012 24.2842 116.658 24.4223 116.496C24.771 115.625 25.0528 114.726 25.2651 113.809C25.4688 113.504 25.3877 113.123 25.5113 112.794Z" fill="#F3D022"/>
<path d="M29.0505 113.51C27.8642 114.215 26.8453 115.187 26.0683 116.353C25.9872 116.611 26.0683 116.875 25.9399 117.153C25.7768 117.506 26.2469 117.853 26.8976 117.922C27.3382 117.716 27.7357 117.423 28.0677 117.059C28.1141 116.968 28.1874 116.895 28.2769 116.85C28.3664 116.806 28.4674 116.792 28.5649 116.811C28.7069 116.806 28.8491 116.814 28.9897 116.835C29.2301 116.898 29.1645 117.13 29.2243 117.292C29.5323 117.96 29.9156 117.392 30.267 117.362C30.6622 117.285 31.0612 117.231 31.4622 117.201C31.6582 117.218 31.8529 117.155 32.0049 117.026C32.1568 116.896 32.2541 116.711 32.2761 116.508C32.3834 116.15 32.5258 115.805 32.7008 115.477C32.8939 114.944 32.7443 114.745 32.0917 114.702C32.3002 114.521 32.7327 114.702 32.6844 114.322C32.6255 113.855 32.4914 113.336 32.0193 113.172C31.5472 113.008 31.0538 112.587 30.4746 112.972C30.3027 113.088 30.1009 112.772 29.903 112.958H29.8982C29.7862 113.124 29.4782 113.158 29.5806 113.466C29.5854 113.477 29.6037 113.485 29.6057 113.505C29.5733 113.474 29.5373 113.446 29.4985 113.424C29.4231 113.397 29.3421 113.39 29.2635 113.405C29.1849 113.42 29.1115 113.457 29.0505 113.51Z" fill="#F4CB1E"/>
<path d="M29.9107 112.963C30.2119 113.116 30.4504 113.373 30.8404 112.995C31.0731 112.768 32.2248 113.463 32.3648 113.826C32.4382 114.017 32.5154 114.206 32.6149 114.458C32.0472 114.317 31.7653 114.502 31.8483 115.091C32.0279 115.218 32.0598 115.082 32.1061 114.982C32.1202 114.943 32.1426 114.908 32.1718 114.879C32.201 114.85 32.2362 114.828 32.2746 114.816C32.3131 114.803 32.3538 114.8 32.3936 114.806C32.4335 114.812 32.4715 114.827 32.5048 114.851C32.5398 114.872 32.5705 114.9 32.595 114.933C32.6196 114.967 32.6376 115.005 32.648 115.045C32.6584 115.085 32.661 115.128 32.6557 115.169C32.6503 115.211 32.6371 115.251 32.6168 115.287C32.3517 115.74 32.1593 116.235 32.0472 116.752C32.0211 117.015 31.5577 117.06 31.4921 117.03C31.0007 116.811 30.6232 117.23 30.1791 117.209C30.0188 117.527 30.2573 117.664 30.4407 117.824C30.9287 117.776 31.4105 117.676 31.8783 117.524C32.0638 117.437 32.2734 117.421 32.4691 117.48C32.7018 117.58 32.9084 117.589 33.058 117.337C33.2077 117.085 33.3699 117.277 33.5291 117.318C33.6145 117.344 33.7045 117.349 33.7919 117.331C33.8792 117.314 33.9613 117.275 34.0312 117.218C34.6212 116.854 35.0944 116.318 35.3915 115.677C35.4957 115.421 35.5614 115.149 35.6811 114.898C35.7535 114.749 35.8105 114.54 35.6888 114.437C35.2959 114.106 35.4677 113.812 35.684 113.492C35.7054 113.451 35.7139 113.403 35.7084 113.357C35.7029 113.31 35.6836 113.267 35.6531 113.232C35.236 113.232 35.5508 112.817 35.3635 112.686L35.3567 112.678C35.2766 112.578 35.098 112.578 35.0845 112.405L35.0777 112.398C34.9416 112.228 34.6915 112.267 34.5564 112.091C34.0592 111.638 33.4538 111.851 32.892 111.811C32.6265 111.792 32.359 111.821 32.0916 111.829C31.8681 112.023 31.5858 112.129 31.2942 112.129C31.1547 112.223 31.0073 112.305 30.8539 112.372C30.5041 112.501 30.1832 112.702 29.9107 112.963Z" fill="#F5CF2F"/>
<path d="M12.4152 111.25C12.1719 111.29 11.9141 111.199 11.6428 111.35C12.4365 112.179 13.3704 112.85 14.3982 113.33C14.3142 113.68 13.9473 114.118 14.6135 114.458C14.8249 114.566 14.5411 114.923 14.3644 115.083C14.1877 115.243 14.0979 115.354 14.1713 115.608C14.2678 115.908 14.4464 115.846 14.654 115.808C15.0836 115.725 15.1589 115.992 15.1367 116.348C15.2651 116.548 15.5045 116.568 15.6619 116.718C15.9149 116.818 16.1446 116.961 16.3985 117.058C16.5974 117.064 16.7911 117.124 16.9595 117.234C17.0061 117.269 17.0567 117.298 17.1101 117.32C17.2798 117.356 17.4332 117.449 17.5464 117.585C17.6035 117.664 17.6761 117.729 17.7593 117.777C17.8424 117.825 17.9344 117.854 18.0291 117.862C18.0926 117.85 18.1513 117.82 18.1981 117.774C18.4086 117.317 18.7899 116.836 17.9587 116.581C17.754 116.518 17.9741 116.298 17.9365 116.149C17.8602 115.843 18.1296 115.634 18.1643 115.356C16.7445 113.658 14.9824 112.302 13.0022 111.386C12.8147 111.309 12.6166 111.263 12.4152 111.25Z" fill="#F8E795"/>
<path d="M21.2923 121.178C21.3059 121.378 21.2257 121.592 21.4246 121.74C21.5086 121.445 21.5936 121.399 21.6949 121.733C22.0024 122.508 22.0998 123.354 21.9768 124.182C21.972 124.273 21.9798 124.364 22 124.453C22.3254 124.299 22.3138 123.931 22.5185 123.724C22.6237 123.809 22.7318 123.741 22.838 123.733C23.0263 123.714 23.2358 123.898 23.4018 123.671C23.5795 123.309 23.314 123.061 23.1914 122.776C23.1035 122.623 23.0214 122.469 23.1778 122.308C23.4549 122.095 23.3284 121.664 23.6142 121.456C23.536 121.314 23.537 121.225 23.7108 121.142C24.2404 120.914 24.79 120.739 25.352 120.62C25.6173 120.588 25.8718 120.493 26.0954 120.342C25.9641 120.142 25.7189 120.126 25.548 119.988C25.2699 119.877 25.0556 120.17 24.7872 120.119C24.5546 120.019 24.7158 119.889 24.7544 119.767C24.7845 119.675 24.7825 119.574 24.7486 119.483C24.6028 119.203 24.7071 118.814 24.3972 118.605C24.0989 118.68 24.0641 119.012 23.8701 119.188C23.6719 119.326 23.5068 119.509 23.3873 119.723C23.3644 119.754 23.345 119.788 23.3294 119.823C23.2908 119.737 23.3873 119.71 23.4018 119.645C23.4861 119.448 23.5474 119.24 23.5843 119.028L23.8652 118.052C23.6924 117.884 23.5196 117.952 23.3458 118.052C23.239 118.118 23.1379 118.194 23.0437 118.278C23.0042 118.325 22.9717 118.377 22.9471 118.434C22.8554 118.634 22.811 118.879 22.5513 118.934C22.3958 118.749 22.6343 118.648 22.6372 118.497C22.7656 118.057 22.5851 117.554 22.8959 117.152C23.0101 116.814 23.0009 116.444 22.8699 116.113C22.4103 115.826 22.0097 115.377 21.387 115.521C21.3293 115.602 21.2996 115.701 21.3025 115.801C21.3055 115.901 21.341 115.998 21.4034 116.075C21.5743 116.875 21.778 117.675 21.8929 118.482C21.9209 118.682 22.2925 119.154 21.6718 119.195C21.2605 119.006 21.1504 119.353 21.0471 119.614C20.9438 119.875 20.9207 120.243 21.2084 120.367C21.7953 120.623 21.4391 120.896 21.2923 121.178Z" fill="#F4D54D"/>
<path d="M21.4169 115.521C21.8996 115.64 22.2414 116.121 22.7839 116.076C22.8511 116.009 22.9032 115.927 22.9366 115.837C22.97 115.746 22.9838 115.65 22.977 115.553C23.005 115.163 22.894 114.753 23.1508 114.399C23.215 114.231 23.2478 114.052 23.2474 113.872C23.2391 113.627 23.3067 113.385 23.4404 113.182C23.475 113.095 23.4827 113 23.4624 112.908C23.4422 112.817 23.395 112.734 23.3275 112.672C23.0678 112.192 22.6227 111.731 23.2541 111.186C23.2894 111.154 23.3162 111.114 23.332 111.068C23.3477 111.023 23.3519 110.974 23.344 110.926C23.3362 110.879 23.3166 110.834 23.2871 110.796C23.2577 110.759 23.2194 110.73 23.1759 110.712C23.062 110.641 22.9635 110.543 22.8525 110.466C22.4769 110.209 22.1149 109.952 22.7212 109.431C21.9585 109.993 22.0512 109.152 21.8185 108.938C21.5646 108.705 21.6515 108.378 21.9962 108.204C22.2308 108.085 22.4789 107.959 22.2578 107.628C22.0367 107.297 21.861 107.574 21.7104 107.714C21.5598 107.854 21.3966 107.914 21.302 107.758C21.1428 107.514 20.9407 107.304 20.7063 107.137C20.5393 107.009 20.6957 106.827 20.8212 106.731C21.0578 106.551 21.1051 106.468 20.7536 106.401C20.5605 106.363 20.6301 106.131 20.6021 105.976C20.5393 105.62 20.5731 105.196 19.9948 105.276C19.7351 105.312 19.8133 105.008 19.766 104.844C19.6261 104.96 19.5337 105.127 19.5073 105.311C19.4062 105.551 19.3619 105.813 19.3779 106.074C19.7061 106.636 19.3557 107.216 19.4184 107.785C19.4481 107.846 19.4967 107.896 19.5565 107.925C19.7828 107.935 20.0084 107.958 20.2323 107.994C20.9023 108.187 20.9573 108.325 20.8116 109.037C20.7457 109.394 20.7644 109.763 20.8661 110.111C20.9678 110.46 21.1495 110.777 21.3957 111.037C21.5289 111.132 21.7027 111.117 21.8851 111.248C21.7127 111.425 21.5959 111.652 21.5501 111.899C21.5042 112.146 21.5315 112.401 21.6283 112.632C21.7664 112.962 21.8649 113.354 22.3321 113.398C22.0184 113.743 21.6576 114.038 21.2615 114.274C21.2239 114.289 21.1901 114.312 21.1627 114.343C21.1353 114.373 21.115 114.41 21.1034 114.449C21.0919 114.489 21.0893 114.531 21.0959 114.572C21.1026 114.613 21.1183 114.652 21.1417 114.686C21.1485 114.771 21.1553 114.856 21.163 114.941C21.3223 115.074 21.2673 115.294 21.3561 115.455L21.4169 115.521Z" fill="#F4D432"/>
<path d="M21.1369 114.683C21.5684 114.313 21.9894 113.929 22.4393 113.583C22.5184 113.522 22.7289 113.612 22.7047 113.399C22.6806 113.186 22.5261 113.199 22.3485 113.22C21.8079 113.274 21.9044 112.708 21.747 112.436C21.6552 112.3 21.6186 112.132 21.6451 111.968C21.6717 111.804 21.7592 111.658 21.889 111.56C22.0685 111.447 22.2964 111.376 22.1873 111.108C22.0994 110.894 21.8697 110.993 21.6988 110.975C21.609 110.965 21.5173 110.975 21.4265 110.975C21.0476 110.76 20.7314 110.444 20.5113 110.059C20.3269 109.766 20.1251 109.592 19.7911 109.843C19.9045 110.615 20.0894 111.374 20.3433 112.109C20.4289 112.309 20.4736 112.525 20.4746 112.743C20.4879 112.87 20.5274 112.992 20.5904 113.102C20.7054 113.651 20.8891 114.183 21.1369 114.683Z" fill="#F5D948"/>
<path d="M18.1653 115.348C17.5745 115.603 17.81 116.234 17.616 116.669C17.5812 116.747 17.6652 116.889 17.757 116.862C18.7736 116.567 18.1171 117.262 18.1431 117.555C18.1466 117.625 18.1466 117.696 18.1431 117.766C18.3664 118.107 18.6589 118.393 19.0001 118.604C19.3413 118.815 19.723 118.947 20.1184 118.989C20.3192 118.696 20.3723 118.318 20.6175 118.05C19.8468 117.105 19.0283 116.203 18.1653 115.348Z" fill="#F6E07A"/>
<path d="M19.7912 109.842C20.4168 109.711 20.3704 110.432 20.7324 110.663C20.9622 110.81 21.1273 111.021 21.4266 110.973C21.2461 110.24 20.5664 109.589 21.1273 108.729C21.1561 108.677 21.1744 108.619 21.1811 108.559C21.1877 108.499 21.1826 108.439 21.166 108.381C21.1493 108.323 21.1216 108.27 21.0844 108.224C21.0473 108.177 21.0014 108.139 20.9497 108.112C20.4959 107.858 20.0499 107.552 19.5015 107.864C19.4154 107.987 19.3685 108.135 19.3674 108.287C19.3664 108.438 19.4113 108.587 19.4957 108.711C19.549 109.099 19.6482 109.479 19.7912 109.842Z" fill="#F5D83F"/>
<path d="M24.4068 118.602C24.5207 118.893 24.3701 119.286 24.7206 119.487C24.7408 119.466 24.7601 119.446 24.7814 119.428C24.7944 119.396 24.8137 119.368 24.8379 119.344C24.862 119.32 24.8907 119.302 24.922 119.29C24.9533 119.278 24.9867 119.273 25.0199 119.275C25.0532 119.277 25.0857 119.286 25.1154 119.302C25.9361 119.152 26.3357 118.391 26.9498 117.942C26.9874 117.914 26.9343 117.813 26.8773 117.767C26.7888 117.774 26.6999 117.772 26.6118 117.76C26.4814 117.74 26.359 117.683 26.2584 117.594C26.1579 117.506 26.0834 117.39 26.0432 117.26C25.9863 116.95 26.3328 116.932 26.5578 116.86C26.4941 116.544 26.0384 116.712 26.0751 116.353C25.5358 116.892 25.073 117.508 24.7003 118.181C24.6124 118.328 24.5864 118.519 24.4107 118.604L24.4068 118.602Z" fill="#F3CE31"/>
<path d="M20.6185 118.051C20.2487 118.219 19.9128 118.404 20.1937 118.915C20.3472 119.308 20.7266 119.587 20.7334 120.055C20.7551 120.149 20.7989 120.236 20.8608 120.309L20.7488 120.597C20.9042 120.76 21.6032 120.538 21.1195 121.157L21.2924 121.178C21.5473 120.995 21.757 120.752 21.9044 120.469C21.7364 120.153 21.1601 120.549 21.1524 119.976C21.1338 119.803 21.1769 119.628 21.2736 119.486C21.3703 119.343 21.5139 119.242 21.6775 119.201C21.3711 118.774 21.0154 118.388 20.6185 118.051Z" fill="#F5DB67"/>
<path d="M23.34 118.199C23.4996 118.096 23.686 118.046 23.8739 118.056C24.1139 117.56 24.2991 117.039 24.4261 116.5L24.0023 116.885C23.7677 116.423 23.9473 115.94 23.872 115.485C23.8294 115.452 23.7778 115.434 23.7247 115.434C23.6717 115.434 23.6201 115.452 23.5775 115.485C23.5125 115.572 23.4715 115.676 23.4588 115.785C23.4427 115.956 23.4362 116.129 23.4395 116.301C23.4582 116.53 23.3919 116.757 23.2541 116.937C23.2131 117.032 23.1867 117.133 23.1759 117.237C23.1609 117.42 23.1586 117.603 23.1691 117.786C23.1677 117.863 23.1822 117.94 23.2117 118.012C23.2411 118.083 23.2849 118.147 23.34 118.199Z" fill="#F2D13D"/>
<path d="M29.6298 113.525L29.905 112.965C29.5636 113.024 29.2582 113.22 29.0544 113.51L29.6337 113.524L29.6298 113.525Z" fill="#F5CF2F"/>
<path d="M23.4955 119.785C23.6075 119.574 23.8643 119.465 23.8817 119.185C23.8239 119.192 23.7654 119.181 23.7138 119.154C23.6621 119.126 23.6197 119.083 23.592 119.03C23.5025 119.092 23.43 119.178 23.3816 119.277C23.3332 119.377 23.3106 119.488 23.3159 119.6C23.2966 119.748 23.3613 119.804 23.4955 119.785Z" fill="#F8F2C8"/>
<path d="M25.5112 112.794C25.3136 113.092 25.2274 113.454 25.2689 113.813C25.7265 113.57 25.4755 113.145 25.5112 112.794Z" fill="#F5F3CC"/>
<path d="M21.4111 116.081L21.4169 115.518L21.4072 115.523C21.3965 115.502 21.3813 115.484 21.3629 115.471C21.3444 115.457 21.3231 115.448 21.3007 115.444C21.2783 115.44 21.2553 115.442 21.2336 115.449C21.2119 115.456 21.192 115.468 21.1755 115.484C21.1726 115.718 21.0568 115.999 21.4111 116.081Z" fill="#F7F2C9"/>
<path d="M21.1755 115.485L21.4072 115.524C21.4072 115.291 21.5192 115.008 21.1591 114.939L21.1755 115.485Z" fill="#F1DB6F"/>
<path d="M20.5808 112.706C20.5915 112.594 20.5754 112.482 20.534 112.378C20.4926 112.275 20.4271 112.183 20.3433 112.112C20.3433 112.292 20.3465 112.472 20.353 112.652C20.408 112.76 20.4891 112.759 20.5808 112.706Z" fill="#F3E277"/>
<path d="M20.5818 112.701L20.3539 112.647C20.3337 112.74 20.3465 112.837 20.3899 112.92C20.4334 113.003 20.5047 113.068 20.5905 113.101C20.5876 112.967 20.5847 112.834 20.5818 112.701Z" fill="#F9F5D5"/>
<path d="M30.8559 112.372C31.0548 112.391 31.2344 112.372 31.2961 112.129C31.2068 112.108 31.1131 112.121 31.0322 112.165C30.9513 112.21 30.8887 112.283 30.8559 112.372Z" fill="#F6EFBF"/>
<path d="M24.4116 118.604C24.7235 118.62 24.7109 118.404 24.7013 118.182C24.5536 118.287 24.3914 118.38 24.4116 118.604Z" fill="#F4D54D"/>
<path d="M25.5345 120.07C25.6011 120.441 25.9071 120.27 26.1079 120.343L26.889 120.32C27.7047 120.007 28.535 119.737 29.3769 119.51C29.6405 119.4 29.9166 119.31 30.1792 119.182C30.3723 118.982 30.297 118.759 30.2159 118.546C30.1556 118.41 30.1467 118.255 30.191 118.112C30.2354 117.97 30.3296 117.849 30.4553 117.775L30.1811 117.21C30.045 117.056 29.988 117.132 29.8982 117.279C29.6916 117.616 29.4947 117.614 29.3605 117.211C29.3241 117.175 29.2784 117.15 29.2287 117.139C29.1791 117.129 29.1276 117.134 29.0805 117.153C28.1025 118.142 27.0066 118.997 25.8193 119.698C25.7499 119.737 25.6888 119.79 25.6398 119.854C25.5909 119.918 25.555 119.991 25.5345 120.07Z" fill="#F4D13B"/>
<path d="M30.4427 123.185C29.7842 123.231 29.1973 122.811 28.5359 122.885C28.2222 123.7 28.2289 123.674 29.0544 123.915C29.6935 124.103 29.5236 124.699 29.5535 125.181C29.5458 125.223 29.5478 125.267 29.5592 125.308C29.5706 125.35 29.5911 125.388 29.6192 125.42C29.6473 125.452 29.6822 125.476 29.721 125.492C29.7599 125.507 29.8017 125.513 29.8431 125.509C30.2602 125.416 30.4282 124.803 30.9543 124.94C31.0805 124.848 31.2245 124.786 31.3762 124.758C31.5371 124.749 31.6933 124.699 31.831 124.612C32.5463 123.944 32.5463 123.944 31.4448 123.426C31.36 123.381 31.2697 123.347 31.1764 123.326C30.9253 123.329 30.676 123.281 30.4427 123.185Z" fill="#F4D243"/>
<path d="M31.4043 123.465C31.4323 123.502 31.4584 123.541 31.4873 123.576C31.6688 123.795 32.054 123.654 32.1708 123.968C32.2877 124.282 31.7152 124.092 31.8204 124.433C31.8279 124.479 31.8279 124.527 31.8204 124.573L31.8793 124.642C32.0299 124.727 32.1979 124.795 32.2172 125.013C32.2328 125.08 32.2551 125.145 32.2838 125.207C32.4549 125.411 32.6817 125.557 32.9342 125.625C33.1868 125.694 33.4534 125.681 33.6991 125.59C34.2784 125.39 34.8847 125.404 35.4562 125.221C35.6647 124.672 35.1463 124.764 34.933 124.585C34.5844 124.623 34.3537 124.303 34.0245 124.272C33.8662 124.115 33.6383 124.115 33.4568 124.016L33.4626 124.004C33.2602 123.943 33.0657 123.857 32.8833 123.748C32.4006 123.799 32.0038 123.47 31.5443 123.422C31.4806 123.377 31.4323 123.388 31.4043 123.465Z" fill="#F6D756"/>
<path d="M29.5757 125.174C29.7621 125.126 29.9503 125.074 29.8383 124.804C29.7852 124.679 29.6346 124.557 29.6453 124.449C29.7321 123.757 29.3624 123.666 28.8304 123.712C28.6064 123.679 28.3876 123.615 28.1797 123.522C28.9801 123.449 28.5785 123.122 28.5311 122.883C28.1624 122.809 27.8418 122.525 27.4363 122.609C27.2548 123.009 27.3495 123.553 26.8359 123.763C26.8359 123.787 26.8194 123.817 26.8291 123.833C27.5978 124.549 28.553 125.016 29.5757 125.174Z" fill="#F3CE37"/>
<path d="M26.8812 123.73C27.864 123.782 27.3958 123.059 27.4402 122.609L26.4873 122.294C26.3671 122.218 26.2301 122.176 26.0896 122.171C25.948 122.159 25.8054 122.175 25.6696 122.218C25.5527 122.27 25.4547 122.359 25.3894 122.473C25.324 122.586 25.2948 122.718 25.3056 122.849C25.3379 122.994 25.4042 123.129 25.4987 123.242C25.9158 123.541 26.2739 124.012 26.8812 123.73Z" fill="#F2CA26"/>
<path d="M23.9019 123.431L24.1433 123.471C24.4715 123.026 24.9397 122.671 25.0121 122.061C25.0498 121.896 24.9542 121.816 24.8287 121.755C24.3972 121.769 24.0564 121.396 23.6142 121.455C23.4713 121.555 22.9674 121.242 23.2406 121.828C23.2889 121.928 23.1296 122.14 23.0668 122.3C22.977 122.437 23.0552 122.541 23.1286 122.647C23.3177 122.972 23.5839 123.242 23.9019 123.431Z" fill="#F5D13E"/>
<path d="M36.6977 126.293L36.4815 126.26C36.1552 126.592 35.8424 126.924 36.4071 127.322C36.5664 127.433 36.5326 127.604 36.5336 127.766C36.5102 127.904 36.5171 128.046 36.5539 128.181C36.5907 128.316 36.6563 128.44 36.746 128.545L37.0028 128.232C37.0028 127.872 37.0028 127.513 37.0028 127.154C36.9198 126.954 36.9198 126.722 36.7614 126.554L36.6977 126.293Z" fill="#F7D658"/>
<path d="M25.6619 122.308H26.0674C26.1504 122.018 25.8617 122.148 25.7845 122.039L25.5296 122.008C25.4147 121.949 25.3047 121.929 25.212 122.051C25.1975 122.453 25.3973 122.441 25.6619 122.308Z" fill="#F5D13E"/>
<path d="M31.4043 123.465L31.5452 123.421C31.438 123.312 31.3071 123.232 31.1637 123.186C31.0202 123.141 30.8683 123.132 30.7207 123.16C30.6985 123.53 31.0442 123.26 31.1436 123.421L31.4043 123.465Z" fill="#F9F4D8"/>
<path d="M25.7874 122.039L26.0702 122.308L26.4883 122.295C26.3299 121.987 26.0596 122.01 25.7874 122.039Z" fill="#F5F1C0"/>
<path d="M25.2535 122.041L25.5325 122.011C25.4464 121.91 25.3367 121.834 25.214 121.79C25.0912 121.745 24.9596 121.734 24.8316 121.758L25.0083 122.008C25.0206 122.029 25.0373 122.047 25.0572 122.06C25.0771 122.074 25.0997 122.082 25.1232 122.086C25.1468 122.089 25.1707 122.086 25.1933 122.079C25.2158 122.071 25.2364 122.058 25.2535 122.041Z" fill="#F7ECBB"/>
<path d="M33.4578 124.017C33.5251 124.104 33.612 124.173 33.7109 124.218C33.8098 124.263 33.9178 124.282 34.0254 124.274C33.9405 123.938 33.6788 124.017 33.4578 124.017Z" fill="#F4EA9E"/>
<path d="M32.8843 123.749C32.9808 124.062 33.2347 124.002 33.4635 124.005C33.3971 123.913 33.3087 123.842 33.207 123.797C33.1053 123.752 32.994 123.735 32.8843 123.749Z" fill="#F8F1C9"/>
<path d="M31.1436 123.422L30.7207 123.161L30.4427 123.187C30.6116 123.471 30.8771 123.449 31.1436 123.422Z" fill="#F3DF8F"/>
<path d="M30.4514 117.776C29.6656 117.705 29.9793 118.288 30.0537 118.607C30.1124 118.795 30.1535 118.987 30.1763 119.183L30.4331 119.175C30.5885 119.009 30.8521 119.095 31.0008 118.914L30.995 118.905C31.1875 118.83 31.3758 118.743 31.5588 118.645C31.7663 118.619 31.9589 118.521 32.1043 118.365C32.2278 118.137 32.5107 118.242 32.6652 118.078C32.7671 118.069 32.8662 118.038 32.9566 117.988C33.047 117.938 33.1268 117.87 33.1913 117.788C33.3292 117.622 33.4227 117.422 33.4626 117.207C33.4144 116.914 33.0832 116.849 33.0446 116.997C32.8795 117.624 32.4924 117.128 32.2578 117.23C31.6708 117.476 30.9969 117.402 30.4514 117.776Z" fill="#F6D64A"/>
<path d="M35.6532 113.238C35.6252 113.5 35.4022 113.615 35.2583 113.787C35.1618 113.902 35.0594 114.115 35.1289 114.145C35.9978 114.528 35.1811 115.198 35.3906 115.683L35.6657 115.369C35.796 115.146 35.8018 114.878 35.9119 114.648C35.8646 114.171 36.0432 113.653 35.6532 113.238Z" fill="#F5D34A"/>
<path d="M33.4626 117.204C33.0938 117.258 33.2086 117.555 33.1913 117.785C33.4857 117.624 33.9849 117.785 34.0302 117.224L33.4626 117.204Z" fill="#F3DA66"/>
<path d="M35.3655 112.69C35.2892 112.968 35.0198 113.357 35.6551 113.236C35.6774 113.124 35.6605 113.008 35.6074 112.908C35.5543 112.808 35.4686 112.73 35.3655 112.69Z" fill="#F5D34A"/>
<path d="M31.0017 118.912C30.7748 118.912 30.519 118.841 30.434 119.173C30.6599 119.172 30.9331 119.279 31.0017 118.912Z" fill="#F7EEB6"/>
<path d="M32.6642 118.076C32.4363 118.086 32.1361 117.943 32.1033 118.363C32.3234 118.338 32.586 118.399 32.6642 118.076Z" fill="#F2DE77"/>
<path d="M35.0865 112.41C35.0643 112.519 34.847 112.536 34.931 112.67C35.0469 112.856 35.2149 112.646 35.3587 112.683C35.3622 112.645 35.3575 112.608 35.3449 112.572C35.3323 112.537 35.3122 112.505 35.2861 112.479C35.2599 112.452 35.2284 112.433 35.1938 112.421C35.1593 112.409 35.1226 112.405 35.0865 112.41Z" fill="#F5D34A"/>
<path d="M35.9119 114.648C35.8211 114.741 35.7517 114.854 35.7089 114.979C35.6661 115.104 35.651 115.237 35.6648 115.369C35.9612 115.207 35.937 114.928 35.9119 114.648Z" fill="#F7F4CF"/>
<path d="M34.5593 112.096C34.6452 112.359 34.8489 112.408 35.0806 112.403C35.045 112.295 34.9723 112.204 34.8762 112.147C34.7801 112.09 34.6674 112.072 34.5593 112.096Z" fill="#F5D34A"/>
<path d="M31.5587 118.642C31.4511 118.632 31.3428 118.65 31.244 118.696C31.1453 118.741 31.0595 118.812 30.9949 118.902C31.1034 118.928 31.2172 118.917 31.3189 118.87C31.4207 118.823 31.5049 118.743 31.5587 118.642Z" fill="#F5E598"/>
<path d="M27.9886 136.329C27.5397 136.508 27.4094 137.123 26.8793 137.197C26.7953 137.208 26.7191 137.305 26.6389 137.307C26.0954 137.319 25.9303 137.449 26.2846 138.007C26.5916 138.493 26.4198 138.714 25.8502 138.732C25.6465 138.739 25.4418 138.74 25.2381 138.743C25.6927 138.945 26.1991 138.987 26.6786 138.86C27.158 138.733 27.5836 138.446 27.8892 138.043C28.0436 137.831 28.2753 137.628 28.2628 137.313C28.452 136.904 28.2049 136.622 27.9886 136.329Z" fill="#F4CA30"/>
<path d="M27.978 133.068C27.5619 133.331 27.4885 133.946 26.9682 134.116C26.8871 134.143 26.8967 134.409 26.9952 134.409C27.5156 134.409 27.8235 134.809 28.2309 135.023C28.3005 135.059 28.4375 134.952 28.5428 134.912L28.5157 134.495C28.3553 134.24 28.2667 133.944 28.2599 133.64L28.2464 133.499C28.146 133.361 28.1412 133.162 27.978 133.068Z" fill="#F4CE42"/>
<path d="M27.9876 136.329C27.8602 136.724 28.3014 136.949 28.2608 137.317C28.4645 136.979 28.5957 136.6 28.6457 136.205C28.6957 135.81 28.6632 135.409 28.5504 135.028C28.5331 135.502 28.5949 136.016 27.9924 136.188L27.9876 136.329Z" fill="#F4CE42"/>
<path d="M28.2589 133.639C28.0388 133.907 28.1122 134.149 28.5147 134.494C28.547 134.341 28.5404 134.181 28.4956 134.032C28.4508 133.882 28.3692 133.747 28.2589 133.639Z" fill="#F4DA67"/>
<path d="M27.9722 132.377L27.7308 132.19C27.6497 132.467 27.2481 132.89 27.9886 132.79L27.9722 132.377Z" fill="#F4CE42"/>
<path d="M27.978 133.068C27.9799 133.158 28.0059 133.246 28.0531 133.322C28.1003 133.398 28.1668 133.459 28.2454 133.498C28.2703 133.367 28.2605 133.231 28.2172 133.105C28.1739 132.978 28.0986 132.867 27.9992 132.781L27.978 133.068Z" fill="#F4DA67"/>
<path d="M8.56891 111.821L8.30438 111.832C8.39416 112.254 7.99061 112.523 8.00895 112.952C7.96819 113.627 8.06693 114.304 8.29859 114.937C8.47912 115.083 8.38644 115.364 8.56214 115.513C8.56016 115.551 8.56566 115.588 8.57829 115.624C8.59092 115.659 8.61042 115.691 8.63558 115.718C8.66074 115.746 8.69104 115.767 8.72457 115.782C8.75811 115.796 8.79417 115.803 8.83053 115.803C8.96956 115.782 9.16746 115.712 9.1105 115.577C8.88749 115.05 9.36441 114.802 9.5353 114.466C9.57102 114.386 9.62535 114.317 9.69338 114.264C9.76141 114.212 9.84102 114.177 9.92501 114.165C10.009 114.152 10.0948 114.161 10.1745 114.191C10.2543 114.221 10.3256 114.271 10.382 114.337C10.5783 114.522 10.7367 114.746 10.8477 114.995C10.9587 115.245 11.0199 115.515 11.0279 115.79C11.5646 115.873 11.8234 115.467 12.0107 115.09C12.198 114.713 12.4219 114.574 12.8168 114.703C12.8487 114.983 12.5021 115.044 12.4837 115.251C12.449 115.635 11.777 116.051 12.5513 116.451C12.6788 116.517 12.7193 117.044 12.8409 117.357C13.0128 117.803 12.9433 117.832 13.3536 117.498C13.1388 116.805 13.1174 116.062 13.2918 115.357C13.4347 114.674 13.2223 114.157 12.5523 114.187C12.1758 114.206 11.9421 114.158 11.8118 113.778C11.7848 113.7 11.6853 113.584 11.6303 113.59C10.3511 113.731 10.7102 112.581 10.3752 111.881C10.0856 112.281 9.49862 112.266 9.33835 112.832C9.30456 112.95 9.16264 112.963 9.04389 112.938C8.90776 112.909 8.81316 112.758 8.87012 112.688C9.27077 112.192 8.63938 112.114 8.56891 111.821Z" fill="#F9EEB1"/>
<path d="M8.56606 115.514C8.54675 115.288 8.6626 114.997 8.30249 114.938V115.505L8.56606 115.514Z" fill="#FAF6D4"/>
<path d="M11.0317 115.79C11.0317 115.543 11.248 115.446 11.3773 115.29C11.5067 115.134 11.7548 114.948 11.6361 114.778C11.5747 114.669 11.4877 114.577 11.3831 114.511C11.2785 114.446 11.1597 114.409 11.0375 114.403C10.9508 114.421 10.8616 114.42 10.7752 114.4C10.6889 114.381 10.6073 114.343 10.5355 114.29C9.93983 113.828 9.81239 113.938 9.32678 114.506C9.01893 114.863 8.84432 115.322 8.83441 115.801C9.19507 116.369 9.67492 116.845 10.2381 117.194C10.8049 117.276 10.8869 116.871 10.7064 116.523C10.4573 116.044 10.6987 115.928 11.0317 115.79Z" fill="#F8EA9E"/>
<path d="M20.8598 120.028C20.8677 119.795 20.8087 119.565 20.6903 119.367C20.5719 119.168 20.3994 119.011 20.1946 118.914C19.457 118.646 18.765 118.258 18.1441 117.766C18.0997 117.775 18.0562 117.785 18.0128 117.797C17.9944 117.934 17.9273 118.059 17.8246 118.147C17.7219 118.236 17.591 118.281 17.4576 118.275C17.4086 118.27 17.3592 118.275 17.3121 118.29C17.2649 118.305 17.2212 118.329 17.1833 118.362C17.1453 118.394 17.1141 118.434 17.0912 118.48C17.0684 118.525 17.0545 118.574 17.0502 118.625C17.058 118.715 17.0657 118.804 17.0734 118.894C17.4497 118.869 17.8234 118.975 18.1354 119.194C18.2792 119.377 18.5496 119.281 18.6924 119.465C19.3007 119.465 19.7042 120.056 20.3105 120.059C20.3887 120.127 20.489 120.162 20.5911 120.156C20.6932 120.15 20.7893 120.105 20.8598 120.028Z" fill="#CDC6F2"/>
<path d="M17.0502 118.625C17.3012 118.345 17.6845 118.439 17.9963 118.255C18.3902 118.023 18.0127 117.94 18.0127 117.796L17.6014 117.478C17.4566 117.305 17.1863 117.402 17.0521 117.205C16.9179 117.011 16.6408 117.114 16.5047 116.923C16.2247 116.855 16.0297 116.536 15.6947 116.623C15.5828 116.528 15.4442 116.474 15.2999 116.468C15.1555 116.462 15.0132 116.505 14.8944 116.59C14.8477 116.623 14.8094 116.667 14.7824 116.719C14.7555 116.77 14.7407 116.828 14.7394 116.886C14.7381 116.945 14.7502 117.003 14.7748 117.056C14.7994 117.109 14.8357 117.155 14.8809 117.19C15.4118 117.548 15.8357 118.047 16.3966 118.373C16.5824 118.528 16.8117 118.617 17.0502 118.625Z" fill="#C9BBF4"/>
<path d="M14.876 117.192C14.7496 116.392 15.3057 116.642 15.6899 116.63C15.6339 116.27 15.3481 116.386 15.1396 116.344C14.9388 116.39 14.6424 116.273 14.6057 116.614C14.5797 116.84 14.4773 117.155 14.876 117.192Z" fill="#E4D3CA"/>
<path d="M9.12306 126.561C9.11608 126.669 9.08792 126.775 9.04029 126.871C8.99265 126.968 8.92654 127.054 8.84598 127.123C8.52765 128.006 8.42065 128.956 8.53415 129.891C8.69634 130.675 9.31808 131.05 9.66467 131.654H9.93885C10.4301 130.921 11.0364 130.279 11.7326 129.754C11.7745 129.732 11.8094 129.699 11.8332 129.657C11.8569 129.615 11.8685 129.567 11.8664 129.518C11.8644 129.47 11.8488 129.423 11.8217 129.384C11.7945 129.344 11.7569 129.314 11.7133 129.296C11.3976 129.196 11.2518 128.888 10.9352 128.766C10.3791 128.555 10.3559 128.151 10.8097 127.732C11.2267 127.349 10.6851 127.092 10.6957 126.742C10.7054 126.442 10.4563 126.842 10.2999 126.811C10.2169 126.793 10.129 126.795 9.93016 126.779C10.1129 126.645 10.2421 126.447 10.2935 126.222C10.3449 125.996 10.3149 125.759 10.2092 125.555C9.80659 125.844 9.6135 126.376 9.12306 126.561Z" fill="#FAF2BF"/>
<path d="M13.7677 130.239C13.8565 130.225 14.0052 130.166 13.9608 130.109C13.8951 130.043 13.8458 129.962 13.817 129.872C13.7881 129.782 13.7806 129.686 13.7951 129.592C13.8096 129.499 13.8456 129.41 13.9002 129.334C13.9548 129.258 14.0262 129.196 14.1085 129.155C13.8933 129.127 13.6767 129.111 13.4597 129.109C13.09 129.14 12.9056 129.001 12.9384 128.592C12.9719 128.432 12.9546 128.264 12.8892 128.115C12.7796 128.017 12.6927 127.895 12.6347 127.758C12.5767 127.621 12.5492 127.472 12.5542 127.323C12.5592 127.173 12.5966 127.026 12.6636 126.894C12.7306 126.761 12.8255 126.646 12.9413 126.556C12.6613 126.523 12.5551 126.256 12.3621 126.1C12.3129 126.051 12.2506 126.018 12.1832 126.006C12.1159 125.994 12.0467 126.004 11.9846 126.033C11.8311 126.111 11.8581 126.251 11.918 126.393C12.0744 126.8 12.1435 127.238 12.1207 127.676C12.1207 127.966 12.1004 128.212 12.4972 128.284C12.866 128.35 12.7202 128.609 12.5571 128.801C12.2037 129.214 12.2375 129.574 12.7009 129.93C12.7839 129.797 12.8573 129.687 12.923 129.572C12.9886 129.457 13.0379 129.299 13.2126 129.344C13.2914 129.359 13.3623 129.403 13.4124 129.468C13.4625 129.533 13.4886 129.614 13.4858 129.697C13.5042 129.916 13.4221 130.197 13.7677 130.239Z" fill="#F9ECAB"/>
<path d="M10.3453 131.944C10.6023 132.144 10.9152 132.251 11.2365 132.25C11.5579 132.249 11.87 132.139 12.1255 131.937H10.4843C10.4755 131.927 10.4645 131.918 10.4522 131.913C10.4399 131.908 10.4265 131.905 10.4132 131.906C10.3998 131.906 10.3867 131.91 10.375 131.917C10.3632 131.923 10.3531 131.933 10.3453 131.944Z" fill="#FBF9E5"/>
<path d="M10.3453 131.944L10.4863 131.933C10.4361 131.56 10.1532 131.68 9.9389 131.655C9.96846 131.742 10.0237 131.816 10.0968 131.868C10.1698 131.92 10.2568 131.947 10.3453 131.944Z" fill="#FAF2BF"/>
<path d="M18.4163 122.59C18.1373 122.668 17.9413 122.976 17.6082 122.906C17.4393 123.468 16.8417 123.486 16.4932 123.839C15.9796 124.308 15.4393 124.744 14.8751 125.146C14.8703 125.239 14.8654 125.332 14.8616 125.424C14.7715 125.545 14.7231 125.694 14.7242 125.847C14.7252 125.999 14.7756 126.147 14.8674 126.267C15.3752 126.453 15.7488 125.949 16.2257 125.981C16.8496 125.283 17.5926 124.709 18.4173 124.29C19.0102 123.672 19.6529 123.108 20.3385 122.604L20.3279 122.588C20.4233 122.472 20.4739 122.324 20.4698 122.172C20.4657 122.019 20.4072 121.874 20.3056 121.764L19.7843 121.749C19.6356 122.133 19.2051 122.072 18.9618 122.306C18.8305 122.504 18.5515 122.398 18.4163 122.59Z" fill="#D1C5F6"/>
<path d="M14.8674 126.263C14.8674 125.982 14.8655 125.701 14.8616 125.42C14.4484 125.708 14.4127 125.989 14.8674 126.263Z" fill="#E7D8CB"/>
<path d="M24.4271 130.799C24.4551 131.105 23.8314 131.999 23.5871 131.99C23.2821 131.985 23.4027 131.67 23.283 131.525C23.145 132.331 23.1865 132.392 23.9164 132.297C24.121 132.271 24.1365 132.391 24.1654 132.529C24.2253 132.81 24.6356 133.029 24.262 133.389C24.093 133.552 23.8353 133.689 23.9135 134.089C24.0838 134.005 24.2733 133.971 24.4609 133.993C24.6485 134.014 24.8267 134.089 24.9754 134.209H25.2487C25.6136 134.544 25.9776 134.121 26.3425 134.209C26.3995 133.73 26.9217 133.585 27.0482 133.139C27.0984 132.959 27.2317 132.753 27.1448 132.61C26.8223 132.079 26.6833 131.401 26.0693 131.092C25.8235 131.178 25.5634 131.212 25.3046 131.192C25.0816 131.169 24.9658 130.992 24.8219 130.847C24.778 130.804 24.727 130.771 24.6713 130.747C24.6124 130.732 24.5507 130.732 24.4918 130.747L24.4271 130.799Z" fill="#F5C620"/>
<path d="M25.2535 131.372C25.5334 131.298 25.8781 131.426 26.075 131.089C26.0615 130.997 26.05 130.906 25.9428 130.875C25.8086 130.836 25.687 131.189 25.5566 130.906C25.4833 130.74 25.4533 130.478 25.5875 130.37C26.1021 129.956 26.05 129.379 26.0702 128.816C25.7707 128.074 25.4011 127.365 24.9667 126.699C24.6819 126.558 24.4077 126.33 24.0756 126.591C24.026 126.684 23.9951 126.786 23.9849 126.891C23.9675 127.074 23.9694 127.257 23.9666 127.44C24.0037 127.988 24.1209 128.528 24.3141 129.04C24.5862 129.585 24.7191 130.194 24.7003 130.807C24.9433 130.922 25.1393 131.122 25.2535 131.372Z" fill="#F3CA27"/>
<path d="M26.3483 134.204C26.0365 134.297 26.0587 133.985 25.9052 133.756C25.8087 134.149 25.6233 134.368 25.2545 134.204C25.3255 134.28 25.4104 134.34 25.5044 134.382C25.5983 134.423 25.6994 134.444 25.8014 134.444C25.9035 134.444 26.0045 134.423 26.0985 134.382C26.1924 134.34 26.2774 134.28 26.3483 134.204Z" fill="#F5C92B"/>
<path d="M23.8469 130.521C23.9212 130.88 24.1915 130.802 24.4261 130.799C24.4668 130.758 24.4907 130.702 24.4929 130.642C24.495 130.583 24.4753 130.526 24.4377 130.481C24.3606 130.421 24.2652 130.392 24.169 130.399C24.0729 130.406 23.9825 130.449 23.9145 130.52L23.8469 130.521Z" fill="#EAD0A4"/>
<path d="M23.9145 130.52L24.4049 130.506C24.7505 130.05 24.5806 129.577 24.4474 129.106C24.347 128.541 24.2466 127.977 24.1462 127.413C23.9772 127.23 24.0361 127 24.0236 126.784C24.0129 126.62 24.0506 126.457 24.0448 126.293C24.0371 126.195 24.0122 126.098 23.9714 126.009C23.8399 125.836 23.7672 125.622 23.7648 125.402C23.7534 125.308 23.7263 125.216 23.6847 125.131C23.6182 125.045 23.5689 124.946 23.5394 124.84C23.5099 124.734 23.5009 124.624 23.5129 124.514C23.5198 124.273 23.4872 124.033 23.4163 123.803L23.3449 123.728C23.1074 123.917 23.063 123.304 22.8033 123.59C22.7093 123.736 22.6574 123.907 22.6537 124.082C22.6499 124.258 22.6944 124.431 22.782 124.581L22.8158 125.405C23.0292 125.661 22.8361 126.031 23.0485 126.287V126.849L23.0765 126.834C23.3497 127.177 23.0659 127.646 23.3227 127.992C23.3227 128.177 23.3227 128.362 23.3227 128.546C23.3313 128.575 23.3391 128.605 23.3468 128.635C23.4133 128.807 23.4907 128.974 23.5785 129.135L23.6287 129.662C23.7861 129.826 23.7088 130.092 23.8681 130.255C23.8903 130.342 23.9 130.43 23.9145 130.52Z" fill="#DED5F6"/>
<path d="M23.3275 128.546C23.119 128.563 22.951 128.117 22.7077 128.494C22.5387 128.754 22.2655 129.001 22.3553 129.33C22.4393 129.636 22.7685 129.625 23.0311 129.641C23.4723 129.668 23.2821 129.303 23.3449 129.096C23.4106 129.018 23.4476 128.918 23.4492 128.814C23.4508 128.71 23.4169 128.609 23.3536 128.529L23.3275 128.546Z" fill="#F6CD30"/>
<path d="M23.3227 127.991C23.2522 127.602 23.5814 127.122 23.0765 126.833C23.1344 127.224 22.8457 127.697 23.3227 127.991Z" fill="#E5D7B3"/>
<path d="M23.873 130.253C23.873 130.02 23.9695 129.747 23.6336 129.66C23.6287 129.895 23.5302 130.17 23.873 130.253Z" fill="#E8CFAF"/>
<path d="M23.3564 128.528L23.3467 129.095L23.5833 129.133C23.5968 128.896 23.7078 128.617 23.3564 128.528Z" fill="#E1D8AB"/>
<path d="M22.781 124.58C22.7881 124.247 22.7952 123.916 22.8023 123.588L22.5194 123.724C22.6053 124.01 22.3167 124.418 22.781 124.58Z" fill="#EAD491"/>
<path d="M23.0475 126.286C23.006 125.986 23.2522 125.596 22.8148 125.404C22.8563 125.708 22.6024 126.096 23.0475 126.286Z" fill="#EBD5A0"/>
<path d="M20.8588 120.028L20.3143 120.061C20.3809 120.417 20.6474 120.301 20.8617 120.309C20.8608 120.216 20.8598 120.122 20.8588 120.028Z" fill="#DBD1BC"/>
<path d="M18.6963 119.464C18.6345 119.1 18.3603 119.205 18.1392 119.193C18.1991 119.564 18.4752 119.456 18.6963 119.464Z" fill="#DED5BD"/>
<path d="M20.3057 121.764C20.3134 122.039 20.3211 122.313 20.3279 122.588C20.743 122.301 20.8077 122.024 20.3057 121.764Z" fill="#E6D39B"/>
<path d="M18.4163 122.59C18.6355 122.571 18.9154 122.678 18.9628 122.306C18.7446 122.325 18.4656 122.221 18.4163 122.59Z" fill="#E1D2BE"/>
<path d="M23.3284 117.202L23.3632 116.937C23.4533 116.791 23.4925 116.617 23.4742 116.445C23.4897 116.221 23.425 115.98 23.593 115.785L23.6296 115.519C23.7841 115.351 23.7127 115.091 23.8594 114.919L23.899 114.66C24.0598 113.892 24.0925 113.101 23.9955 112.321C23.9955 112.121 23.843 111.986 23.6094 112.101L23.6248 112.123C23.424 112.253 23.5225 112.538 23.3545 112.685L23.3265 112.668C23.3265 112.851 23.3178 113.033 23.313 113.215C23.174 113.392 23.2396 113.65 23.089 113.822L23.0398 114.364C22.8032 114.723 23.0571 115.181 22.8177 115.539C22.8061 115.717 22.7945 115.894 22.783 116.072C22.783 116.441 22.7804 116.81 22.7752 117.18C22.6482 117.45 22.6121 117.756 22.6729 118.049C22.6912 118.277 22.7694 118.461 23.0533 118.333L23.0813 118.348C23.1785 118.206 23.2211 118.032 23.201 117.859C23.2135 117.635 23.1498 117.394 23.3284 117.202Z" fill="#DBCFF2"/>
<path d="M23.6093 112.102C23.9955 112.133 23.9144 112.452 23.9173 112.686C23.925 113.344 23.9067 114.002 23.899 114.661C23.9384 114.657 23.9768 114.645 24.0116 114.626C24.0465 114.606 24.0771 114.579 24.1015 114.547C24.126 114.515 24.1437 114.478 24.1537 114.438C24.1637 114.398 24.1657 114.357 24.1596 114.316C24.1596 113.616 24.1596 112.916 24.1596 112.211C24.1596 112.04 24.1365 111.878 23.9289 111.844C23.8909 111.831 23.8504 111.829 23.8111 111.836C23.7718 111.843 23.7348 111.86 23.7033 111.886C23.6718 111.911 23.6468 111.944 23.6304 111.982C23.614 112.019 23.6068 112.061 23.6093 112.102Z" fill="#F2CC47"/>
<path d="M23.8594 114.92C23.5167 115.01 23.6354 115.29 23.6296 115.52L23.871 115.489L23.8594 114.92Z" fill="#E9CC88"/>
<path d="M23.3555 112.686C23.6837 112.622 23.5988 112.344 23.6258 112.124C23.229 112.154 23.3564 112.453 23.3555 112.686Z" fill="#E7CA97"/>
<path d="M25.5306 120.07C26.776 119.387 27.9266 118.532 28.9511 117.53C29.0323 117.453 29.0883 117.352 29.1114 117.24C29.1724 117.155 29.2021 117.051 29.195 116.945C29.1879 116.84 29.1446 116.74 29.0728 116.665H28.5727C28.4124 116.823 28.1267 116.719 28.006 116.958C27.6664 117.28 27.2868 117.553 26.8774 117.771C26.3402 118.373 25.7016 118.869 24.9929 119.234C24.8606 119.273 24.7998 119.392 24.7177 119.491L24.6945 119.747C24.6264 119.825 24.59 119.927 24.5931 120.032C24.5961 120.138 24.6384 120.237 24.711 120.311C25.0469 120.45 25.2419 120.09 25.5306 120.07Z" fill="#DACDF3"/>
<path d="M28.006 116.957C28.2213 116.916 28.5003 117.003 28.5717 116.664C28.3342 116.661 28.0311 116.519 28.006 116.957Z" fill="#EFCE4B"/>
<path d="M29.0728 116.665C29.085 116.856 29.0978 117.048 29.1114 117.239L29.3556 117.208C29.3112 117 29.5024 116.659 29.0728 116.665Z" fill="#E8C8B2"/>
<path d="M29.6298 113.524C29.6511 113.757 29.7824 113.834 29.987 113.779C30.0305 113.767 30.0981 113.672 30.0836 113.651C29.9793 113.44 29.7814 113.561 29.625 113.525L29.6298 113.524Z" fill="#F5CF2F"/>
<path d="M16.4999 116.928C16.5521 117.294 16.8301 117.189 17.0473 117.21C17 116.835 16.721 116.943 16.4999 116.928Z" fill="#E0D0BE"/>
<path d="M17.0512 117.206C17.1053 117.576 17.3766 117.477 17.6005 117.479C17.5445 117.12 17.2665 117.226 17.0512 117.206Z" fill="#E7D9B5"/>
<path d="M23.0533 118.334C22.5184 118.064 22.9268 117.55 22.7752 117.181C22.307 117.581 22.6314 118.147 22.4856 118.615C22.4239 118.698 22.3955 118.803 22.4065 118.907C22.4175 119.011 22.4669 119.107 22.5445 119.174C22.7186 119.131 22.8694 119.019 22.9646 118.862C23.0597 118.705 23.0916 118.515 23.0533 118.334Z" fill="#DBC3D7"/>
<path d="M23.9019 123.431C23.7899 123.043 23.4192 122.877 23.2097 122.578C23.0764 122.548 23.0214 122.604 23.0426 122.743C23.0513 123.101 23.4443 123.333 23.3419 123.727H23.3352C23.3674 123.765 23.4127 123.788 23.4614 123.792C23.5101 123.796 23.5583 123.78 23.5958 123.748C23.5934 123.706 23.5997 123.663 23.6143 123.624C23.6288 123.584 23.6513 123.548 23.6802 123.518C23.7091 123.488 23.7438 123.465 23.782 123.45C23.8202 123.435 23.8611 123.429 23.9019 123.431Z" fill="#F8F6D6"/>
<path d="M23.4964 119.785L23.3178 119.603C23.2633 119.634 23.2153 119.675 23.1765 119.725C23.1377 119.775 23.1089 119.833 23.0919 119.894C23.0749 119.956 23.07 120.02 23.0775 120.084C23.0849 120.148 23.1046 120.209 23.1353 120.265C23.4008 120.216 23.423 119.978 23.4964 119.785Z" fill="#F7E994"/>
<path d="M24.7177 120.309L24.7013 119.745C24.6641 119.743 24.6269 119.75 24.5924 119.765C24.558 119.779 24.5272 119.802 24.5023 119.831C24.4774 119.86 24.459 119.894 24.4485 119.931C24.438 119.968 24.4357 120.007 24.4416 120.045C24.4426 120.242 24.5246 120.331 24.7177 120.309Z" fill="#E1CAC0"/>
<path d="M22.5445 119.173C22.5252 118.987 22.5055 118.801 22.4856 118.614C22.4468 118.618 22.4093 118.63 22.3757 118.651C22.3422 118.672 22.3135 118.7 22.2917 118.733C22.27 118.767 22.2556 118.805 22.2497 118.845C22.2438 118.885 22.2466 118.925 22.2577 118.964C22.28 119.141 22.3987 119.178 22.5445 119.173Z" fill="#F1CE72"/>
<path d="M23.0842 117.792C23.0842 117.977 23.0842 118.163 23.0842 118.349L23.3429 118.199L23.3246 117.759C23.3085 117.741 23.2884 117.727 23.266 117.718C23.2437 117.71 23.2197 117.707 23.196 117.71C23.1724 117.714 23.1499 117.723 23.1304 117.737C23.111 117.751 23.0951 117.77 23.0842 117.792Z" fill="#E9CF75"/>
<path d="M23.0427 122.742L23.2097 122.577C23.1624 122.484 23.1131 122.391 23.0678 122.299C22.6246 122.421 22.865 122.584 23.0427 122.742Z" fill="#F9EA92"/>
<path d="M21.3483 119.85C21.4207 119.913 21.4613 119.975 21.5105 119.983C21.5598 119.991 21.5984 119.93 21.6418 119.899C21.6022 119.858 21.5684 119.799 21.5211 119.783C21.4738 119.767 21.4265 119.818 21.3483 119.85Z" fill="#F5DB67"/>
<path d="M19.4947 106.131C19.2874 106.689 19.2912 107.307 19.5053 107.862C19.5285 107.68 19.4947 107.462 19.5825 107.323C19.7009 107.144 19.7566 106.928 19.7407 106.711C19.7247 106.494 19.6379 106.29 19.4947 106.131Z" fill="#F5D83F"/>
<path d="M22.8178 115.54C23.258 115.222 22.9993 114.763 23.0398 114.365C22.5571 114.674 22.8622 115.143 22.8178 115.54Z" fill="#EDD06E"/>
<path d="M23.089 113.823C23.4366 113.729 23.3207 113.452 23.313 113.217C22.9712 113.313 23.0765 113.586 23.089 113.823Z" fill="#E4CEA2"/>
<path d="M24.7187 119.49C24.8857 119.49 25.0083 119.446 24.9938 119.233C24.9619 119.133 24.9726 118.943 24.8287 119.001C24.6134 119.088 24.7389 119.32 24.7187 119.49Z" fill="#F4D54D"/>
<path d="M23.0842 117.792L23.3227 117.759L23.3285 117.202C22.9693 117.276 23.0871 117.562 23.0842 117.792Z" fill="#E1C9BD"/>
<path d="M23.3506 116.372C23.3506 116.56 23.3593 116.75 23.3642 116.938C23.7069 116.849 23.5988 116.575 23.5939 116.338C23.5772 116.32 23.5568 116.307 23.5342 116.299C23.5117 116.291 23.4877 116.289 23.4641 116.292C23.4405 116.295 23.4179 116.304 23.3983 116.318C23.3786 116.332 23.3623 116.351 23.3506 116.372Z" fill="#E9D085"/>
<path d="M23.3507 116.372L23.593 116.343C23.593 116.158 23.593 115.972 23.593 115.786C23.2474 115.863 23.3594 116.144 23.3507 116.372Z" fill="#E1CBCD"/>
<path d="M36.746 128.545C36.7012 128.205 36.696 127.861 36.7306 127.52C36.7508 127.438 36.7248 127.267 36.6948 127.26C35.8993 127.087 36.4747 126.608 36.4805 126.26C36.2696 126.243 36.0575 126.27 35.8572 126.341C35.6569 126.411 35.4725 126.523 35.3152 126.67C35.4942 126.521 35.6403 126.334 35.7438 126.121C35.8474 125.909 35.906 125.676 35.9157 125.438C35.8891 125.351 35.8369 125.274 35.7662 125.22C35.6956 125.165 35.6101 125.134 35.5218 125.132C34.6877 124.913 33.9443 125.513 33.1285 125.413C32.8389 125.377 32.4798 125.413 32.3668 124.996C31.9526 124.99 31.969 125.296 31.971 125.584C32.0106 125.884 31.7315 125.875 31.5848 125.984C31.3705 126.147 31.0953 126.249 31.0944 126.593C31.0384 126.219 30.936 125.893 30.4697 125.934C30.3956 125.991 30.3405 126.071 30.3124 126.162C30.2737 126.309 30.1862 126.438 30.0652 126.525C29.8721 126.681 29.5728 126.768 29.4328 126.653C28.7049 126.053 28.1199 126.737 27.473 126.828C28.2468 127.617 29.1243 128.289 30.0797 128.823C30.2098 128.91 30.3355 129.003 30.4562 129.103C30.5014 129.101 30.5466 129.106 30.5904 129.118C30.743 129.186 30.8885 129.27 31.0248 129.368C31.4052 129.361 31.6697 129.768 32.0723 129.683C32.5784 129.595 33.0986 129.673 33.5591 129.908C33.9771 130.158 34.2175 129.914 34.1519 129.514C34.0187 128.693 34.5188 128.564 35.0826 128.454C35.4694 128.449 35.8412 128.298 36.1281 128.029C36.2797 127.846 36.1281 128.109 36.1851 128.08C36.2816 128.358 36.4071 128.595 36.7528 128.542L36.746 128.545Z" fill="#F5D34C"/>
<path d="M25.2535 122.035L25.0073 122.003C24.7805 122.53 24.2022 122.835 24.1442 123.469C24.6804 124.221 25.3248 124.883 26.0548 125.432C26.18 125.482 26.2945 125.556 26.3918 125.652C26.489 125.748 26.5671 125.862 26.6215 125.989C27.1641 126.249 27.5088 125.981 27.7858 125.527C27.5213 124.927 26.9044 124.77 26.442 124.427C26.0963 124.169 25.6947 123.995 25.3655 123.707C25.2912 123.653 25.2332 123.578 25.198 123.492C25.1628 123.405 25.1519 123.31 25.1666 123.217C25.1869 123.064 25.3317 122.999 25.3916 122.874C25.3723 122.629 25.5847 122.506 25.6648 122.31C25.4727 122.308 25.2738 122.318 25.2535 122.035Z" fill="#F3CB2D"/>
<path d="M27.7135 125.446C27.5841 125.618 27.4182 125.757 27.2286 125.851C27.0391 125.946 26.831 125.994 26.6206 125.991C26.8168 126.353 27.1126 126.645 27.4702 126.832C27.8564 126.787 28.3159 127.123 28.6065 126.532C28.703 126.332 28.9212 126.552 29.0477 126.675C29.128 126.746 29.2214 126.8 29.3223 126.833C29.4231 126.867 29.5294 126.878 29.6348 126.868C29.7401 126.857 29.8423 126.825 29.9352 126.772C30.0281 126.72 30.1098 126.648 30.1753 126.562C30.0025 126.352 29.7216 126.345 29.5198 126.189C29.4042 126.144 29.2836 126.113 29.1607 126.099C29.0721 126.089 28.9866 126.06 28.9097 126.014C28.8328 125.967 28.7663 125.904 28.7146 125.829C28.4144 125.609 28.1595 125.258 27.7135 125.446Z" fill="#F2CF3C"/>
<path d="M23.8662 126.004L23.899 126.269C23.9956 126.361 24.0274 126.511 24.1655 126.561C24.4493 126.519 24.6714 126.867 24.9755 126.699C24.6269 125.864 24.2187 125.057 23.7542 124.285C23.536 124.258 23.5148 124.423 23.4858 124.585C23.4533 124.781 23.4937 124.982 23.5988 125.148L23.6336 125.408C23.788 125.573 23.7166 125.834 23.8662 126.004Z" fill="#F4D551"/>
<path d="M23.6026 124.587C23.601 124.528 23.614 124.469 23.6404 124.417C23.6667 124.364 23.7055 124.32 23.7532 124.287C23.7017 124.107 23.6496 123.927 23.5968 123.748L23.3361 123.727L23.3593 124.551C23.422 124.658 23.508 124.656 23.6026 124.587Z" fill="#EFD375"/>
<path d="M26.6205 125.99C26.6852 125.528 26.4844 125.355 26.0538 125.433C26.0944 125.568 26.1678 125.691 26.267 125.788C26.3662 125.886 26.488 125.955 26.6205 125.99Z" fill="#F2CF3C"/>
<path d="M36.745 128.544C36.2623 128.329 36.2961 127.92 36.4245 127.414C36.0596 128.249 35.35 128.23 34.7283 128.361C34.1596 128.481 33.8169 128.717 33.9984 129.397C34.0272 129.484 34.031 129.577 34.0092 129.666C33.9874 129.755 33.9411 129.835 33.8758 129.897C33.479 129.447 32.7694 129.685 32.3707 129.143C32.1564 129.255 32.4894 129.715 32.0646 129.685C32.2167 129.842 32.4151 129.943 32.6284 129.97C32.8785 130.163 33.2077 130.07 33.4693 130.222C33.992 130.295 34.5237 130.254 35.0298 130.1C35.536 129.947 36.0053 129.685 36.4072 129.331C36.5257 129.243 36.6194 129.123 36.6788 128.985C36.7381 128.847 36.761 128.694 36.745 128.544Z" fill="#F7D658"/>
<path d="M29.123 126.254L29.4898 126.286C29.6315 126.381 29.7982 126.427 29.9666 126.419C30.135 126.411 30.2968 126.348 30.4292 126.24C30.435 126.157 30.4408 126.074 30.4466 125.992C30.3328 125.745 30.1382 125.547 29.8972 125.434C29.8592 125.443 29.8198 125.443 29.7817 125.435C29.7436 125.426 29.708 125.408 29.6773 125.383C29.6466 125.358 29.6218 125.327 29.6045 125.29C29.5873 125.254 29.5781 125.214 29.5777 125.174C28.6345 124.789 27.7316 124.305 26.8832 123.73C26.4035 123.619 25.9461 123.423 25.5316 123.149C25.4858 123.109 25.4274 123.089 25.3678 123.092C25.3082 123.095 25.2519 123.121 25.2101 123.165C25.1573 123.252 25.1325 123.355 25.1391 123.458C25.1457 123.561 25.1833 123.659 25.2467 123.738C25.7295 124.372 26.5086 124.57 27.0878 125.066C27.2867 125.211 27.497 125.338 27.7163 125.446C28.0661 125.562 28.3917 125.744 28.676 125.985C28.8121 126.099 28.9762 126.156 29.123 126.254Z" fill="#DED1F4"/>
<path d="M29.8963 125.434C30.0046 125.686 30.2014 125.885 30.4466 125.992C30.7285 126.127 31.0654 126.2 30.854 126.683C30.7748 126.865 30.9824 126.988 31.2238 127.072C31.1427 126.325 31.5665 126.097 32.1583 125.959C32.4479 125.891 32.2799 125.75 32.0907 125.706C31.7268 125.47 31.4506 125.118 31.0867 124.882L30.9979 124.856C30.4447 124.665 30.155 125.023 29.8963 125.434Z" fill="#F3CE37"/>
<path d="M31.8175 124.573H31.272C31.2073 124.751 31.301 124.852 31.4323 124.936C31.4993 124.965 31.5728 124.976 31.645 124.966C31.7172 124.956 31.7854 124.926 31.8426 124.879C31.8722 124.832 31.8858 124.777 31.8813 124.721C31.8767 124.666 31.8543 124.614 31.8175 124.573Z" fill="#F6D756"/>
<path d="M31.4082 124.857L31.2721 124.574C31.2352 124.57 31.1978 124.574 31.1627 124.587C31.1276 124.6 31.0957 124.62 31.0694 124.647C31.0431 124.675 31.023 124.707 31.0106 124.744C30.9983 124.78 30.9939 124.819 30.9979 124.857C31.0551 124.908 31.1278 124.935 31.203 124.935C31.2783 124.935 31.351 124.908 31.4082 124.857Z" fill="#F5D34C"/>
<path d="M31.4082 124.856H30.9979C31.2875 125.241 31.5134 125.718 32.0917 125.706C32.0917 125.433 32.0473 125.139 32.3649 124.997C32.3649 124.951 32.3649 124.903 32.3649 124.856C32.2914 124.783 32.1935 124.742 32.0917 124.742C31.9899 124.742 31.892 124.783 31.8185 124.856H31.4082Z" fill="#F4D243"/>
<path d="M31.8175 124.856H32.3639C32.3205 124.475 32.0328 124.599 31.8175 124.572V124.856Z" fill="#F5D34C"/>
<path d="M25.2641 123.178L25.5296 123.149C25.5345 123.094 25.5241 123.038 25.4997 122.989C25.4752 122.94 25.4377 122.899 25.3915 122.871C25.1907 122.871 24.9861 122.871 24.988 123.171C25.0259 123.206 25.0743 123.225 25.1248 123.226C25.1753 123.228 25.2246 123.211 25.2641 123.178Z" fill="#F0CC4F"/>
<path d="M35.9147 125.44C35.7429 125.699 35.4031 125.833 35.5131 126.294C35.5585 126.485 35.1395 126.554 34.8991 126.694C35.0777 126.852 35.1318 127.337 35.4861 126.74C35.6454 126.472 36.1387 126.416 36.4795 126.264C36.4577 126.089 36.3948 125.923 36.2963 125.779C36.1979 125.635 36.0668 125.519 35.9147 125.44Z" fill="#F7D658"/>
<path d="M24.4416 129.106C24.4281 129.573 24.4139 130.039 24.3991 130.506C24.4068 130.606 24.4136 130.701 24.4204 130.799L24.7023 130.806C25.1174 130.157 24.8133 129.626 24.4416 129.106Z" fill="#F4CB32"/>
<path d="M25.2545 131.371C25.3163 130.929 25.1309 130.743 24.7071 130.805C24.7364 130.944 24.8035 131.071 24.9006 131.171C24.9976 131.272 25.1205 131.341 25.2545 131.371Z" fill="#F4CB32"/>
<path d="M23.9029 126.82C23.9029 127.05 23.7928 127.332 24.1452 127.407C24.1452 127.219 24.1452 127.032 24.1452 126.845C24.1325 126.825 24.1156 126.807 24.0956 126.795C24.0756 126.782 24.0532 126.774 24.0299 126.772C24.0066 126.77 23.983 126.773 23.961 126.781C23.9391 126.789 23.9192 126.803 23.9029 126.82Z" fill="#E4D7BE"/>
<path d="M23.9029 126.824L24.1462 126.849C24.153 126.749 24.1597 126.656 24.1655 126.56C24.1679 126.522 24.1628 126.485 24.1505 126.449C24.1382 126.414 24.119 126.382 24.0941 126.354C24.0692 126.327 24.0391 126.305 24.0057 126.29C23.9723 126.275 23.9364 126.268 23.9 126.268C23.9 126.455 23.901 126.639 23.9029 126.824Z" fill="#EFD17A"/>
<path d="M23.8662 126.004C23.8768 125.767 23.9685 125.497 23.6345 125.404C23.6277 125.64 23.5244 125.915 23.8662 126.004Z" fill="#E7D5AB"/>
<path d="M23.6026 124.588L23.3584 124.548C23.3584 124.781 23.2387 125.066 23.5978 125.148L23.6026 124.588Z" fill="#DFD3D0"/>
<path d="M33.6122 126.916C33.6982 126.749 33.7146 126.674 33.759 126.638C33.9424 126.494 34.4483 126.579 34.2147 126.158C34.1158 126.029 33.9824 125.933 33.8312 125.882C33.68 125.83 33.5175 125.826 33.3641 125.87C33.3226 125.881 33.2898 125.924 33.2483 125.942C32.9943 126.056 32.5319 125.878 32.501 126.242C32.4721 126.575 33.031 126.442 33.1247 126.6C33.2946 126.88 33.8304 126.985 33.5852 127.524C33.4481 127.824 33.7503 127.954 33.9665 127.953C34.3151 127.953 34.7244 128.338 35.0121 127.825C35.0826 127.7 35.0469 127.607 34.9098 127.554C34.8267 127.521 34.6896 127.482 34.68 127.425C34.5699 126.823 34.2214 126.662 33.6122 126.916Z" fill="#F7D658"/>
<path d="M30.4292 126.24L29.4898 126.286C29.6366 126.596 29.9146 126.557 30.1753 126.563C30.3616 126.541 30.4572 126.443 30.4292 126.24Z" fill="#EDD27C"/>
<path d="M32.8312 127.31C32.8744 127.343 32.9223 127.368 32.9731 127.386C33.0388 127.399 33.1093 127.362 33.0755 127.28C33.0608 127.253 33.041 127.23 33.0173 127.211C32.9935 127.192 32.9664 127.179 32.9374 127.171C32.8631 127.153 32.8254 127.209 32.8312 127.31Z" fill="#F7D658"/>
<path d="M25.2641 123.178L24.987 123.167C25.0025 123.391 24.8712 123.687 25.2438 123.738L25.2641 123.178Z" fill="#E2CFBC"/>
<path d="M29.123 126.254C29.0776 125.976 28.872 125.987 28.6731 125.986C28.7025 126.081 28.7649 126.16 28.8481 126.21C28.9313 126.26 29.0293 126.275 29.123 126.254Z" fill="#F5D34C"/>
<path d="M212.246 144.721C209.905 142.5 207.579 140.256 205.069 138.267C201.585 135.56 197.937 133.089 194.146 130.867C193.342 129.619 193.47 129.382 195.059 129.209C199.353 131.434 203.407 134.125 207.154 137.235C209.044 138.621 210.788 140.208 212.357 141.97C212.309 142.889 213.025 143.842 212.246 144.721Z" fill="#ADD6E5"/>
<path d="M62.5395 102.949L60.7669 102.619C57.4285 102.075 54.0543 101.867 50.7265 101.197C49.569 100.963 48.4484 100.564 47.3967 100.012C47.3042 99.9952 47.2106 99.9865 47.1167 99.986C46.159 99.086 46.1291 98.146 47.1466 97.879C48.4895 97.528 49.9126 97.118 51.2536 98.021C53.0184 99.121 55.0188 98.531 56.8859 98.974C59.5515 99.606 62.2923 99.849 64.9328 100.643C64.4047 101.589 63.4653 102.106 62.9054 103.019C62.8462 103.054 62.7771 103.066 62.7102 103.053C62.6433 103.04 62.5828 103.003 62.5395 102.949Z" fill="#ADD6E5"/>
<path d="M181.06 124.32C180.191 124.461 179.591 123.527 178.735 123.628C176.343 123.08 174.033 122.2 171.867 121.014C169.206 120.522 166.632 119.633 164.024 118.907C163.627 118.856 163.254 118.682 162.955 118.407C162.916 117.838 162.608 117.663 162.121 117.588C161.664 117.518 161.082 117.416 161.078 116.722C161.073 115.996 161.824 116.454 162.072 116.068C165.845 116.854 169.556 117.931 173.174 119.29C175.233 120.011 177.253 120.87 179.291 121.667C179.926 121.915 180.518 122.266 181.045 122.707C181.602 123.227 181.918 123.776 181.06 124.32Z" fill="#ADD6E5"/>
<path d="M224.75 167.664C223.851 163.758 222.453 159.994 220.594 156.47C220.424 156.135 220.325 155.766 220.305 155.388C220.21 155.132 220.189 154.853 220.244 154.585C220.299 154.317 220.427 154.071 220.614 153.877C221.28 153.366 221.282 154.494 221.751 154.54C224.117 158.088 225.745 162.106 226.533 166.34C226.616 167.34 227.162 168.282 226.822 169.34C226.629 169.94 226.445 170.203 225.907 169.664C225.339 169.13 224.937 168.434 224.75 167.664Z" fill="#ADD6E5"/>
<path d="M85.1451 131.922C87.6155 128.418 90.8596 125.577 94.6063 123.637C95.0572 123.274 95.6982 123.795 96.1211 123.21C96.1793 123.092 96.2613 122.989 96.3614 122.907C96.4615 122.825 96.5775 122.766 96.7015 122.734C96.8255 122.702 96.9546 122.698 97.0802 122.723C97.2057 122.747 97.3247 122.799 97.4292 122.875C97.912 123.233 97.8627 123.803 97.6928 124.355C96.3528 125.855 94.5204 126.511 92.9728 127.668C91.0227 129.098 89.2739 130.803 87.7769 132.732C87.6046 132.993 87.3609 133.195 87.0769 133.312C86.3046 133.406 85.5072 133.572 85.0254 132.612C85.0022 132.539 84.9946 132.462 85.0029 132.386C85.0112 132.309 85.0354 132.236 85.0737 132.17C85.1196 132.096 85.1443 132.01 85.1451 131.922Z" fill="#ADD6E5"/>
<path d="M221.751 154.54C220.916 155.58 221.332 153.808 220.703 154.126C220.56 154.898 220.524 155.687 220.594 156.47C218.214 152.263 215.416 148.326 212.246 144.721C212.213 143.985 212.423 143.242 211.9 142.549C211.61 142.171 212.102 142.082 212.357 141.975C216.127 145.606 219.3 149.85 221.751 154.54Z" fill="#ADD6E5"/>
<path d="M131.801 115.659L130.568 115.777C128.561 116.518 126.434 116.321 124.372 116.716C122.207 117.131 120.027 117.537 117.855 117.922C117.381 118.057 116.886 118.093 116.399 118.03C116.161 117.961 115.879 117.841 115.909 117.546C116.021 116.488 115.523 116.666 114.994 116.978C114.245 117.419 113.618 117.542 113.322 116.409C116.361 115.492 119.47 114.849 122.615 114.486C123.484 114.386 124.345 114.186 125.222 114.115C125.314 114.057 125.428 114.015 125.498 114.071C126.478 114.912 127.249 114.671 127.854 113.529C129.5 113.318 131.159 113.243 132.816 113.305C133.128 113.326 133.518 113.405 133.169 113.832C132.941 114.172 132.603 114.417 132.216 114.522C131.829 114.627 131.419 114.586 131.059 114.406C131.116 115.021 132.102 114.849 131.801 115.659Z" fill="#ADD6E5"/>
<path d="M181.06 124.321C181.633 122.49 179.835 122.595 179.292 121.674C182.53 122.85 185.698 124.222 188.78 125.783C189.964 126.202 191.08 126.805 192.09 127.569C192.562 128.697 193.561 128.669 194.45 128.891C194.571 128.88 194.692 128.904 194.8 128.961C194.907 129.018 194.997 129.106 195.059 129.214C194.461 129.569 193.399 129.614 194.147 130.872C189.811 128.625 185.514 126.269 181.06 124.321Z" fill="#ADD6E5"/>
<path d="M97.0363 121.664C95.106 118.625 92.6693 115.965 89.8399 113.81C90.339 113.276 90.7977 113.089 92.2487 112.824C95.0225 114.699 97.2834 117.282 98.8136 120.324C98.9279 120.516 98.9676 120.745 98.9247 120.966C98.72 121.272 98.4277 121.505 98.0889 121.63C97.7501 121.755 97.382 121.767 97.0363 121.664Z" fill="#ADD6E5"/>
<path d="M83.2605 109.584L75.8653 106.313C75.9879 105.293 75.7243 103.924 77.3675 104.279C80.5398 105.221 83.5524 106.666 86.2987 108.561C86.5835 109.501 85.929 109.522 85.4357 109.531C84.7087 109.544 83.9875 109.643 83.2605 109.584Z" fill="#ADD6E5"/>
<path d="M162.073 116.074L161.169 116.782C161.742 117.118 162.179 117.434 162.801 117.198C162.871 117.171 162.947 117.162 163.022 117.173C163.096 117.183 163.167 117.212 163.228 117.258C163.29 117.304 163.339 117.364 163.372 117.434C163.406 117.504 163.422 117.581 163.419 117.659C163.458 118.031 163.137 118.01 162.92 118.084C162.305 118.731 161.741 118.067 161.153 118.005C160.487 117.609 159.718 117.439 158.954 117.52C158.713 117.549 158.468 117.524 158.237 117.444C158.006 117.365 157.795 117.234 157.618 117.061V117.067C156.77 116.829 155.888 116.745 155.011 116.819C153.163 116.731 151.389 116.063 149.538 116.08C148.721 115.593 148.765 115.035 149.479 114.504C149.865 114.177 150.327 113.96 150.82 113.875C150.979 113.867 151.139 113.887 151.293 113.934C152.068 114.097 152.861 114.16 153.651 114.121C155.611 113.878 157.596 114.242 159.357 115.167C160.223 115.583 161.135 115.888 162.073 116.074Z" fill="#ADD6E5"/>
<path d="M113.322 116.408C113.834 116.715 114.255 117.458 114.921 116.526C115.5 115.715 116.135 116.548 116.784 116.562C116.698 117.201 115.91 117.088 116.012 117.733C115.915 117.835 115.791 117.905 115.655 117.933C114.373 117.832 113.103 118.246 112.108 119.089C110.23 120.195 108.136 120.389 106.104 120.837C105.567 120.289 105.093 119.679 104.691 119.019C107.48 117.862 110.37 116.987 113.322 116.408Z" fill="#ADD6E5"/>
<path d="M104.695 119.025C105.183 119.509 106.398 119.341 105.916 120.693C105.893 120.893 105.703 120.893 105.612 121.017C105.513 121.01 105.414 121.027 105.323 121.066C104.039 121.546 102.761 122.052 101.468 122.498C100.502 122.832 100.255 123.42 100.762 124.398C101.068 124.963 101.211 125.607 101.174 126.254C101.291 126.479 101.34 126.735 101.315 126.989C101.29 127.243 101.191 127.483 101.033 127.679C100.431 127.145 100.374 126.365 100.106 125.706C100.058 125.73 100.026 125.817 100.049 125.945C100.167 126.614 100.586 127.554 99.8563 127.822C99.2056 128.06 99.1622 126.947 98.8127 126.465C98.7161 126.337 98.6302 126.206 98.5462 126.065C98.4108 125.87 98.3189 125.646 98.2772 125.41C98.2354 125.174 98.2449 124.931 98.3049 124.699C99.7337 122.882 99.7337 122.882 98.7876 121.011C98.7985 120.78 98.8101 120.549 98.8223 120.319C99.0185 120.579 99.3026 120.752 99.6172 120.802C99.9318 120.853 100.253 120.778 100.517 120.593C101.832 119.87 103.238 119.342 104.695 119.025Z" fill="#ADD6E5"/>
<path d="M131.801 115.659C131.337 115.139 130.445 115.126 130.398 114.02C131.299 113.829 132.438 114.492 133.249 113.473C134.6 113.104 135.971 113.406 137.33 113.301C137.86 113.26 138.408 113.45 138.917 113.148H141.826C141.863 113.179 141.891 113.219 141.908 113.265C141.925 113.311 141.93 113.361 141.922 113.41C141.902 113.503 141.88 113.551 141.856 113.551C141.322 113.846 140.724 113.996 140.119 113.989C140.609 114.768 141.348 114.672 142.05 114.694C142.683 114.597 143.329 114.67 143.927 114.907C144.446 115.225 144.478 115.561 143.755 115.594C140.268 115.586 136.783 115.586 133.302 115.594C132.865 115.513 132.415 115.56 132.002 115.73C131.934 115.711 131.867 115.687 131.801 115.659Z" fill="#ADD6E5"/>
<path d="M224.75 167.664C225.04 168.571 226.199 168.664 226.208 169.911C227.21 168.657 226.312 167.456 226.533 166.338C227.513 169.774 227.728 173.396 227.16 176.93C226.812 176.271 226.786 175.358 225.845 175.176C225.584 175.125 225.578 174.502 225.324 174.224C225.133 172.037 224.942 169.851 224.75 167.664Z" fill="#ADD6E5"/>
<path d="M67.2672 103.664L62.8706 102.855C63.111 101.609 64.0369 101.144 64.9289 100.642C66.4396 100.717 67.9266 101.06 69.3255 101.655C68.8621 102.605 67.8571 102.875 67.2672 103.664Z" fill="#ADD6E5"/>
<path d="M83.2615 109.584C83.5387 109.334 83.8742 109.162 84.2347 109.087C84.5953 109.012 84.9686 109.035 85.3179 109.155C85.4174 109.218 85.5316 109.252 85.6483 109.253C85.765 109.255 85.8799 109.223 85.9807 109.162C86.0815 109.101 86.1645 109.013 86.2208 108.907C86.2772 108.802 86.3048 108.682 86.3007 108.561C87.1991 108.9 88.018 109.432 88.7036 110.122C89.4287 110.936 89.4123 111.531 88.2991 111.802C87.9271 111.947 87.5222 111.975 87.1348 111.883L83.2615 109.584Z" fill="#ADD6E5"/>
<path d="M87.1387 111.886C87.4804 111.708 87.8347 111.351 88.162 111.381C89.4518 111.496 88.8253 110.696 88.7075 110.126C90.1605 110.591 91.0583 111.947 92.2526 112.826L92.6755 113.652C92.2314 113.914 91.9997 113.574 91.71 113.39C91.2486 113.1 90.6683 112.447 90.6306 113.796C90.622 114.076 90.12 113.713 89.8477 113.812C88.8522 113.322 87.9379 112.672 87.1387 111.886Z" fill="#ADD6E5"/>
<path d="M225.324 174.224C225.958 175.107 227.561 175.187 227.158 176.929L227.078 178.184C226.854 178.942 226.677 179.715 226.549 180.497L226.558 180.523C225.89 180.19 226.238 178.961 225.338 178.833C224.81 178.51 224.814 178.033 225.02 177.496L225.013 177.509C225.462 176.669 224.965 175.698 225.315 174.844L225.324 174.224Z" fill="#ADD6E5"/>
<path d="M67.2662 103.665C67.2797 102.152 68.6438 102.331 69.3245 101.656C69.5716 101.999 69.9404 101.928 70.2687 101.994C70.5334 102.363 70.7221 102.784 70.8229 103.231C70.9237 103.678 70.9345 104.142 70.8547 104.594C69.6296 104.42 68.4263 104.108 67.2662 103.665Z" fill="#ADD6E5"/>
<path d="M77.3695 104.279C76.2158 104.368 76.49 105.745 75.8673 106.313L74.0783 105.683C73.6391 103.74 73.8708 103.424 75.5979 103.613C76.0768 104.198 76.9466 103.509 77.3695 104.279Z" fill="#ADD6E5"/>
<path d="M75.5979 103.613C74.2029 103.505 74.0078 104.474 74.0783 105.683L72.0973 105.192C72.0779 105.106 72.0586 105.021 72.0403 104.936C71.8385 103.186 72.1919 102.797 73.8582 102.936C74.4471 103.136 75.1162 103.08 75.5979 103.613Z" fill="#ADD6E5"/>
<path d="M73.8582 102.936C72.5857 102.862 72.1832 103.755 72.0403 104.936C71.6214 104.949 71.2087 104.83 70.8567 104.594C70.1915 103.857 70.706 102.794 70.2706 101.994C71.4214 102.518 72.7682 102.129 73.8582 102.936Z" fill="#ADD6E5"/>
<path d="M126.709 113.784L127.605 113.805C127.516 114.205 128.076 114.712 127.611 114.967C127.354 115.118 127.061 115.19 126.766 115.175C126.472 115.161 126.187 115.06 125.945 114.884C125.681 114.651 125.437 114.394 125.217 114.115C125.64 113.592 126.212 113.875 126.709 113.784Z" fill="#ADD6E5"/>
<path d="M194.45 128.886C192.956 129.359 191.99 128.819 192.09 127.564C192.958 127.827 193.762 128.278 194.45 128.886Z" fill="#ADD6E5"/>
<path d="M149.285 115.741L147.208 115.76L146.367 115.741C146.171 115.631 145.967 115.534 145.759 115.451C144.681 114.824 145.01 114.291 145.855 113.816C146.067 113.692 146.304 113.623 146.547 113.615C146.789 113.607 147.03 113.659 147.249 113.768C148.525 113.909 149.839 113.511 151.08 114.111C150.519 114.704 149.173 114.241 149.285 115.741Z" fill="#ADD6E5"/>
<path d="M114.528 118.387C113.704 118.228 112.955 118.717 112.152 118.722C113.128 117.422 114.417 117.531 115.731 117.749L114.811 118.383H114.67L114.528 118.387Z" fill="#ADD6E5"/>
<path d="M225.316 174.843C225.231 175.734 225.652 176.693 225.014 177.508C224.918 176.607 225.022 175.696 225.316 174.843Z" fill="#ADD6E5"/>
<path d="M98.7808 121.015C99.3437 121.455 100.083 121.647 99.9992 122.756C99.9104 123.928 99.1679 124.246 98.4313 124.656C98.272 124.714 98.0976 124.708 97.9423 124.639C97.787 124.571 97.6622 124.444 97.5923 124.285C97.4958 123.845 97.5981 123.234 97.1801 123.034C96.6491 122.779 96.5188 123.377 96.2649 123.761C95.6924 124.627 95.174 123.561 94.6092 123.63C95.2618 122.737 96.6559 122.959 97.0353 121.656C97.5609 121.304 98.1587 121.085 98.7808 121.015Z" fill="#ADD6E5"/>
<path d="M101.462 131.204C101.229 133.354 100.591 135.436 99.5841 137.331C98.7275 139.134 97.2948 140.574 95.5293 141.407C94.7378 141.126 94.0085 140.684 93.3841 140.107C93.3586 139.92 93.3997 139.729 93.4999 139.571C93.6002 139.413 93.7525 139.298 93.9286 139.248C95.7957 138.461 96.8529 136.772 97.8618 135.019C98.2466 134.63 98.5148 134.135 98.6341 133.592C98.6727 133.534 98.7225 133.486 98.7804 133.45C98.8383 133.413 98.903 133.39 98.9701 133.381C99.2225 133.28 99.4498 133.122 99.6351 132.917C99.8204 132.713 99.959 132.468 100.041 132.201C100.122 131.934 100.145 131.651 100.106 131.373C100.068 131.096 99.9702 130.831 99.8197 130.598C99.6372 130.872 99.4451 131.026 99.2317 130.636C99.1117 130.391 99.0815 130.109 99.1468 129.843C99.189 129.7 99.2615 129.568 99.3591 129.457C101.215 129.308 101.215 129.308 101.462 131.204Z" fill="#ADD6E5"/>
<path d="M84.5262 139.416C83.9778 138.324 83.7381 137.094 83.8346 135.867C83.9311 134.64 84.3599 133.467 85.0717 132.481C85.5457 133.149 86.2659 132.96 86.8867 133.114C86.9253 133.38 86.9125 133.652 86.8491 133.913C86.7856 134.175 86.6727 134.42 86.5169 134.636C86.2701 135.038 86.1142 135.492 86.0607 135.964C86.0072 136.437 86.0575 136.916 86.208 137.366C86.2373 137.525 86.2515 137.686 86.2505 137.848C86.2206 138.435 86.1316 139.017 85.9849 139.585C85.8633 139.985 85.6953 140.442 85.1653 140.06L84.5262 139.416Z" fill="#ADD6E5"/>
<path d="M85.1644 140.058C86.2379 139.503 85.4462 138.213 86.0033 137.458C87.2699 137.981 87.9844 139.423 89.2983 139.869C89.8921 140.269 90.5399 140.71 90.1035 141.62C89.6208 142.626 88.8031 142.252 88.0587 142.062C86.9072 141.742 85.8897 141.038 85.1644 140.058Z" fill="#ADD6E5"/>
<path d="M101.462 131.204C101.23 129.931 100.336 129.687 99.3678 129.56C99.0046 129.047 98.7629 128.452 98.6623 127.824C98.5617 127.196 98.6049 126.552 98.7886 125.945C99.5204 126.21 99.25 127.235 99.8679 127.667C100.2 126.836 99.1776 125.816 100.225 125.118C100.446 125.837 100.997 126.401 100.889 127.334C101.306 126.976 101.082 126.578 101.171 126.258C101.579 127.871 101.677 129.552 101.462 131.204Z" fill="#ADD6E5"/>
<path d="M88.0588 142.06C88.2065 142.054 88.3532 142.036 88.5 142.044C89.1178 142.08 89.7792 142.032 89.9626 141.277C90.1557 140.483 89.2868 140.508 88.9798 140.077C89.5175 139.523 90.0717 139.817 90.621 140.036C90.8508 140.181 91.1091 140.269 91.3767 140.295C91.6443 140.321 91.9141 140.284 92.1657 140.186C92.3018 140.148 92.4419 140.129 92.5828 140.127C93.2103 140.227 93.4719 140.578 93.1012 141.21C92.8634 141.728 92.5721 142.217 92.2323 142.669C90.8228 142.696 89.3669 142.988 88.0588 142.06Z" fill="#ADD6E5"/>
<path d="M92.2362 142.666C92.1929 142.377 92.2164 142.081 92.3046 141.803C92.3929 141.525 92.5435 141.272 92.744 141.066C93.0713 140.778 92.9969 140.676 92.2323 140.388C92.4514 139.577 92.9081 139.732 93.3908 140.044C94.1332 140.434 95.1151 140.369 95.5148 141.41C94.5591 142.142 93.422 142.578 92.2362 142.666Z" fill="#ADD6E5"/>
<path d="M161.165 117.69C160.422 117.681 159.693 117.483 159.041 117.113C159.413 117.013 159.804 117.014 160.176 117.115C160.547 117.216 160.888 117.414 161.165 117.69Z" fill="#ADD6E5"/>
<path d="M151.075 114.105C151.899 113.986 152.739 114.092 153.511 114.413C152.694 114.341 151.826 114.782 151.075 114.105Z" fill="#ADD6E5"/>
<path d="M146.02 115.45L144.232 115.422C143.59 114.814 142.826 115.212 142.121 115.116C141.782 115.06 141.437 115.06 141.098 115.116C140.764 115.136 140.432 115.051 140.146 114.873C139.859 114.694 139.631 114.431 139.491 114.116C139.501 113.134 140.396 113.767 140.875 113.511C141.205 113.42 141.551 113.398 141.889 113.449C143.674 113.593 145.486 113.199 147.25 113.769C146.864 113.766 146.48 113.844 146.123 113.997C145.403 114.453 145.199 114.891 146.02 115.45Z" fill="#ADD6E5"/>
<path d="M98.7847 133.503C99.1419 132.324 98.8619 131.02 99.364 129.87C99.6275 130.478 100.189 130.811 100.426 131.496C100.554 131.895 100.564 132.324 100.455 132.729C100.347 133.134 100.124 133.497 99.8158 133.77C99.3099 134.419 99.1053 133.707 98.7847 133.503Z" fill="#ADD6E5"/>
<path d="M98.1784 135.14C98.1589 134.838 98.203 134.535 98.3075 134.253C98.412 133.97 98.5745 133.714 98.7837 133.503C98.7818 134.139 98.8841 134.822 98.1784 135.14Z" fill="#ADD6E5"/>
<path d="M86.2746 134.491C86.0099 135.45 85.9163 136.451 85.9985 137.445C85.5757 136.401 85.3642 135.382 86.2746 134.491Z" fill="#ADD6E5"/>
<path d="M90.7629 140.407L92.242 140.383C92.1554 140.5 92.0444 140.595 91.9173 140.661C91.7902 140.728 91.6503 140.763 91.5081 140.766C91.3658 140.768 91.2248 140.737 91.0958 140.675C90.9668 140.613 90.853 140.521 90.7629 140.407Z" fill="#ADD6E5"/>
</g>
</g>
<defs>
<clipPath id="clip0_103_239">
<rect width="226" height="176" fill="white"/>
</clipPath>
</defs>
</svg>
