<svg xmlns="http://www.w3.org/2000/svg" width="134.869" height="20.199" viewBox="0 0 134.869 20.199">
  <g id="Group_43954" data-name="Group 43954" transform="translate(-729.131 -355.311)">
    <path id="Icon_awesome-facebook-f" data-name="Icon awesome-facebook-f" d="M11.719,11.362l.561-3.656H8.772V5.334a1.828,1.828,0,0,1,2.061-1.975h1.595V.247A19.446,19.446,0,0,0,9.6,0C6.709,0,4.82,1.751,4.82,4.92V7.706H1.609v3.656H4.82V20.2H8.772V11.362Z" transform="translate(727.522 355.311)" fill="#add6e5"/>
    <path id="Icon_ionic-logo-whatsapp" data-name="Icon ionic-logo-whatsapp" d="M12.533,2.25a9.878,9.878,0,0,0-9.916,9.84A9.738,9.738,0,0,0,4.04,17.17L2.25,22.449l5.49-1.744A9.933,9.933,0,0,0,22.449,12.09,9.878,9.878,0,0,0,12.533,2.25Zm4.931,13.576a2.561,2.561,0,0,1-1.754,1.13c-.465.025-.478.36-3.014-.741a10.346,10.346,0,0,1-4.18-3.953A4.863,4.863,0,0,1,7.58,9.627a2.81,2.81,0,0,1,.965-2.062.971.971,0,0,1,.687-.289c.2,0,.329-.006.477,0s.369-.031.561.48.651,1.765.71,1.893a.459.459,0,0,1,0,.441,1.722,1.722,0,0,1-.269.41c-.132.142-.278.318-.4.426s-.269.251-.131.508a7.588,7.588,0,0,0,1.343,1.792,6.919,6.919,0,0,0,1.988,1.322c.249.135.4.12.551-.042s.66-.71.838-.954.345-.2.575-.105,1.45.746,1.7.882.414.2.474.311A2.082,2.082,0,0,1,17.464,15.826Z" transform="translate(756.881 353.061)" fill="#add6e5"/>
    <path id="Icon_metro-instagram" data-name="Icon metro-instagram" d="M19.416,1.928H5.924A3.363,3.363,0,0,0,2.571,5.281V18.774a3.363,3.363,0,0,0,3.353,3.353H19.416a3.363,3.363,0,0,0,3.353-3.353V5.281A3.363,3.363,0,0,0,19.416,1.928ZM9.037,10.765H16.3a3.846,3.846,0,1,1-7.267,0Zm11.208,0V18.34A1.266,1.266,0,0,1,18.982,19.6H6.358A1.266,1.266,0,0,1,5.1,18.34V10.765H7.07a5.74,5.74,0,1,0,11.2,0h1.975Zm0-4.42a.633.633,0,0,1-.631.631H18.351a.633.633,0,0,1-.631-.631V5.084a.633.633,0,0,1,.631-.631h1.262a.633.633,0,0,1,.631.631Z" transform="translate(796.56 353.383)" fill="#add6e5"/>
    <path id="Icon_awesome-twitter" data-name="Icon awesome-twitter" d="M22.313,8.414c.016.221.016.442.016.663a14.4,14.4,0,0,1-14.5,14.5A14.4,14.4,0,0,1,0,21.291a10.544,10.544,0,0,0,1.231.063,10.208,10.208,0,0,0,6.328-2.178,5.106,5.106,0,0,1-4.766-3.535,6.428,6.428,0,0,0,.963.079A5.391,5.391,0,0,0,5.1,15.547a5.1,5.1,0,0,1-4.087-5v-.063a5.133,5.133,0,0,0,2.3.647A5.1,5.1,0,0,1,1.736,4.312,14.488,14.488,0,0,0,12.245,9.645a5.754,5.754,0,0,1-.126-1.168A5.1,5.1,0,0,1,20.94,4.99a10.035,10.035,0,0,0,3.235-1.231,5.083,5.083,0,0,1-2.241,2.809,10.218,10.218,0,0,0,2.935-.789,10.956,10.956,0,0,1-2.556,2.635Z" transform="translate(839.131 351.931)" fill="#add6e5"/>
  </g>
</svg>
