<svg xmlns="http://www.w3.org/2000/svg" width="152.448" height="115.923" viewBox="0 0 152.448 115.923">
  <g id="Group_43757" data-name="Group 43757" transform="translate(-215.412 -63.077)">
    <g id="Group_43755" data-name="Group 43755" transform="translate(0 11.354)">
      <g id="Group_111" data-name="Group 111" transform="translate(301.05 79.043)">
        <g id="Group_109" data-name="Group 109" transform="translate(0 20.026)">
          <g id="Group_108" data-name="Group 108">
            <g id="Group_107" data-name="Group 107" transform="translate(0)">
              <g id="Group_106" data-name="Group 106" transform="translate(0 6.732)">
                <g id="Group_105" data-name="Group 105" transform="translate(0 0)">
                  <g id="Group_104" data-name="Group 104">
                    <ellipse id="Ellipse_5" data-name="Ellipse 5" cx="8.125" cy="7.448" rx="8.125" ry="7.448" transform="translate(45.536 44.475) rotate(-67.941)" fill="#ffc89e"/>
                    <path id="Path_208" data-name="Path 208" d="M701.465,186.688a4.408,4.408,0,1,1-2.271-6.089A4.6,4.6,0,0,1,701.465,186.688Z" transform="translate(-640.449 -144.82)" fill="#efa47d"/>
                    <ellipse id="Ellipse_6" data-name="Ellipse 6" cx="8.125" cy="7.448" rx="8.125" ry="7.448" transform="translate(0 25.239) rotate(-67.944)" fill="#ffc89e"/>
                    <path id="Path_209" data-name="Path 209" d="M628.563,156.013a4.408,4.408,0,1,1-2.271-6.089A4.6,4.6,0,0,1,628.563,156.013Z" transform="translate(-614.843 -134.046)" fill="#efa47d"/>
                    <path id="Rectangle_21" data-name="Rectangle 21" d="M21.481,0h0A21.481,21.481,0,0,1,42.962,21.481V26.72A21.481,21.481,0,0,1,21.481,48.2h0A21.481,21.481,0,0,1,0,26.72V21.481A21.481,21.481,0,0,1,21.481,0Z" transform="translate(3.074 39.817) rotate(-67.942)" fill="#ffc89e"/>
                    <path id="Path_210" data-name="Path 210" d="M661.813,168.539l-.975.889a11.5,11.5,0,0,0-.585-1.629,10.925,10.925,0,0,0-.7,1.749" transform="translate(-628.722 -140.429)" fill="none" stroke="#4f0200" stroke-miterlimit="10" stroke-width="1"/>
                    <g id="Group_100" data-name="Group 100" transform="translate(17.588 18.842)">
                      <path id="Path_211" data-name="Path 211" d="M642.255,166.717h0a4.99,4.99,0,0,1-2.751-6.5l.992-2.448a4.99,4.99,0,0,1,6.5-2.75h0a4.99,4.99,0,0,1,2.751,6.5l-.992,2.448A4.99,4.99,0,0,1,642.255,166.717Z" transform="translate(-639.138 -154.653)" fill="#f7fffa"/>
                      <path id="Path_212" data-name="Path 212" d="M651.247,162.505a4.972,4.972,0,0,0-.166-4.1,3.627,3.627,0,0,0-1.066-.671c-2.253-.913-4.993.6-6.119,3.379s-.213,5.773,2.041,6.686a3.623,3.623,0,0,0,.625.183,4.984,4.984,0,0,0,3.694-3.025Z" transform="translate(-640.64 -155.641)" fill="#2b2b2b"/>
                    </g>
                    <g id="Group_101" data-name="Group 101" transform="translate(37.383 26.775)">
                      <path id="Path_213" data-name="Path 213" d="M673.205,179.181h0a4.99,4.99,0,0,0,6.214-3.343l.76-2.53a4.989,4.989,0,0,0-3.342-6.214h0a4.989,4.989,0,0,0-6.214,3.342l-.761,2.53A4.991,4.991,0,0,0,673.205,179.181Z" transform="translate(-669.651 -166.881)" fill="#f7fffa"/>
                      <path id="Path_214" data-name="Path 214" d="M670.624,170.683a4.97,4.97,0,0,1,2.7-3.094,3.615,3.615,0,0,1,1.252.144c2.329.7,3.517,3.595,2.654,6.467s-3.451,4.633-5.779,3.933a3.6,3.6,0,0,1-.6-.248,4.982,4.982,0,0,1-.985-4.672Z" transform="translate(-669.651 -167.128)" fill="#2b2b2b"/>
                    </g>
                    <g id="Group_103" data-name="Group 103" transform="translate(21.657 34.135)">
                      <path id="Path_215" data-name="Path 215" d="M649.821,178.3c3.972.9,3.227,3.817,4.875,4.04s4.186-1.586,5.827.754-1.807,10.415-11.3,5.291C642.572,184.8,645.848,177.406,649.821,178.3Z" transform="translate(-645.411 -178.227)" fill="#2b2b2b"/>
                      <path id="Path_216" data-name="Path 216" d="M661.6,189.579a11.582,11.582,0,0,0-3.242-1.512c-3.9-1.13-7.809-.139-10.031,2.235a8.676,8.676,0,0,0,1.913,1.377C656.854,195.246,660.529,192.417,661.6,189.579Z" transform="translate(-646.436 -181.52)" fill="#ffac9f"/>
                      <path id="Path_217" data-name="Path 217" d="M649.848,178.362c-.046,2.832,2.173,5.6,5.509,6.565a7.615,7.615,0,0,0,6.993-1.248,2.024,2.024,0,0,0-.27-.584c-1.64-2.34-4.179-.531-5.827-.754s-.9-3.145-4.875-4.04A2.961,2.961,0,0,0,649.848,178.362Z" transform="translate(-646.969 -178.228)" fill="#f7fffa"/>
                      <g id="Group_102" data-name="Group 102" transform="translate(3.752 0.007)">
                        <path id="Path_218" data-name="Path 218" d="M662.178,182.656a2.705,2.705,0,0,0-.281-.254,5.847,5.847,0,0,1-1.212.743c-.01-.018-.017-.037-.03-.054a.688.688,0,0,0-.262-.236.738.738,0,0,0-.379-.079.719.719,0,0,0-.348.117.691.691,0,0,0-.263.33c-.016.023-.033.046-.048.069l-.007.01c0,.008-.008.015-.011.023a1.6,1.6,0,0,0-.064.184c0,.008,0,.017,0,.025s0,.032,0,.049a6.046,6.046,0,0,1-3.265-.316l.02-.028v0l.058-.166v0l.012-.176v0h0a.611.611,0,0,0-.017-.086l-.017-.085v-.006s-.074-.153-.077-.156a.847.847,0,0,0-.058-.069l-.056-.066-.145-.1-.086-.03c-.012-.005-.024,0-.036-.007l-.026-.01a.4.4,0,0,0-.089-.029c-.06-.008-.12-.01-.18-.013a.226.226,0,0,0-.042,0c-.056.009-.116.022-.172.034l-.011,0-.022.007-.021.009c-.052.025-.108.05-.158.077l-.01.006a1.175,1.175,0,0,0-.161.134.243.243,0,0,0-.031.034l-.012.016a7.56,7.56,0,0,1-1.881-1.864.234.234,0,0,0,.023-.027c.012-.016.022-.032.033-.048l.051-.073c.02-.029.043-.06.061-.091.006-.01.007-.022.012-.033a.621.621,0,0,0,.1-.221.475.475,0,0,0,0-.249.47.47,0,0,0-.087-.226.628.628,0,0,0-.239-.215l-.093-.032h0l-.076-.026.076.026c-.009-.006-.017-.014-.027-.019a.472.472,0,0,0-.226-.1c-.03,0-.071-.005-.093-.006a.563.563,0,0,0-.093-.006.785.785,0,0,0-.177.035,8.433,8.433,0,0,1-.411-1.106,2.922,2.922,0,0,0-.416-.029,8.261,8.261,0,0,0,.457,1.427c-.013.02-.029.038-.04.057a.489.489,0,0,0-.038.1.508.508,0,0,0-.033.1l-.012.174v0a1.3,1.3,0,0,0,.034.174l.049.1.031.158.07.144.1.122a.468.468,0,0,0,.213.12.316.316,0,0,0,.163.034.307.307,0,0,0,.146-.008,7.33,7.33,0,0,0,2.14,2.116c0,.018,0,.03,0,.048a.689.689,0,0,0,.374.569.7.7,0,0,0,.358.074.687.687,0,0,0,.333-.112l.012-.008c.033.014.065.032.1.045a6.589,6.589,0,0,0,3.7.373l.017.034,0,.007a.112.112,0,0,0,.014.021.672.672,0,0,0,.253.227.665.665,0,0,0,.895-.289l.075-.119.036-.058.019-.03a.286.286,0,0,0,.014-.033l-.005.015c0-.005,0-.011.006-.016a.972.972,0,0,0,.045-.126c0-.014.012-.027.014-.04v0c0-.012.01-.022.012-.034v0A5.653,5.653,0,0,0,662.178,182.656Zm-9.15-2.418-.053.149-.006.009C652.991,180.344,653.012,180.291,653.028,180.238Zm-.943-.726h0l.014,0Zm8.482,3.684a.477.477,0,0,0-.091-.127l.1.119v0Z" transform="translate(-651.194 -178.238)" fill="#a0a0a0"/>
                        <path id="Path_219" data-name="Path 219" d="M653.42,180.142h0l.085.03Z" transform="translate(-651.976 -178.907)" fill="#a0a0a0"/>
                        <path id="Path_220" data-name="Path 220" d="M653.418,180.142h0Z" transform="translate(-651.975 -178.906)" fill="#a0a0a0"/>
                      </g>
                    </g>
                  </g>
                  <path id="Path_221" data-name="Path 221" d="M638.278,175.844c-.706,1.742-3.134,2.4-5.424,1.474s-3.573-3.091-2.867-4.833,3.134-2.4,5.423-1.475S638.983,174.1,638.278,175.844Z" transform="translate(-618.268 -141.409)" fill="#ffb8a1"/>
                  <path id="Path_222" data-name="Path 222" d="M681.1,192.327c-.706,1.742-3.134,2.4-5.424,1.474s-3.573-3.091-2.867-4.833,3.134-2.4,5.423-1.475S681.8,190.586,681.1,192.327Z" transform="translate(-633.309 -147.199)" fill="#ffb8a1"/>
                </g>
              </g>
              <path id="Path_223" data-name="Path 223" d="M670.027,121.2c-22.813-14.215-45.857-.258-44.642,13.071,0,0,6.716,1.668,8.077,2.341,2.915,1.442,7.332-6.765,9.482-6.929,0,0-4.249,6.275-3.532,6.492.329.1,6.8,3.272,13.7,6.669,1.486-2.593,5.889-10.276,5.566-9.659-.334.639-2.852,8.476-3.548,10.653l4.937,2.436c1.5-2.243,5.959-8.846,5.706-7.627a93.528,93.528,0,0,1-3.706,8.615c4.476,2.212,7.825,3.87,7.825,3.87s3.708-9.029,3.824-7.69a68.131,68.131,0,0,1-.66,10.577s6.674,1.416,6.754,7.177C679.811,161.193,692.839,135.413,670.027,121.2Z" transform="translate(-616.704 -115.234)" fill="#2b2b2b"/>
            </g>
          </g>
        </g>
        <path id="Path_229" data-name="Path 229" d="M648.545,151.086a5.193,5.193,0,0,1,5.191.911" transform="translate(-624.854 -107.684)" fill="#2b2b2b" stroke="#2b2b2b" stroke-miterlimit="10" stroke-width="1"/>
        <path id="Path_230" data-name="Path 230" d="M679.716,162.887a3.438,3.438,0,0,1,2.62.4,8.505,8.505,0,0,1,2.052,1.772" transform="translate(-635.803 -111.906)" fill="#2b2b2b" stroke="#2b2b2b" stroke-miterlimit="10" stroke-width="1"/>
        <g id="Group_110" data-name="Group 110" transform="translate(25.038 0.001)">
          <path id="Path_231" data-name="Path 231" d="M664.864,105.157s-14.9-13.454-14.219-14.423,5.779-3.293,5.779-3.293l2.8,6.322-.488-8.1,8.336.126-.862,5.976,4.542-7.4s6.48.182,6.646,1.514-5.831,11.765-5.831,11.765l6.153-8.226,2.235,1.491s-6.632,14.43-7.847,14.9S664.864,105.157,664.864,105.157Z" transform="translate(-650.623 -84.367)" fill="#2b2b2b"/>
          <path id="Path_232" data-name="Path 232" d="M665.749,111.834c2.3-3.827,9.208-1.365,6.409,3.473S663.45,115.662,665.749,111.834Z" transform="translate(-655.753 -93.356)" fill="#2b2b2b"/>
          <path id="Path_233" data-name="Path 233" d="M671.182,112.963c1.889,1.637-.17,5.032-2.818,2.914S669.766,111.735,671.182,112.963Z" transform="translate(-656.546 -94.28)" fill="#2b2b2b"/>
          <path id="Path_234" data-name="Path 234" d="M677.466,112.794c2.3-3.828,9.208-1.366,6.409,3.473S675.167,116.621,677.466,112.794Z" transform="translate(-659.869 -93.692)" fill="#2b2b2b"/>
          <path id="Path_235" data-name="Path 235" d="M683.966,113.157c1.423,1.234-.128,3.791-2.123,2.2S682.9,112.232,683.966,113.157Z" transform="translate(-661.356 -94.381)" fill="#2b2b2b"/>
        </g>
      </g>
      <g id="Group_43656" data-name="Group 43656" transform="translate(234.139 83.641)">
        <g id="Group_148" data-name="Group 148" transform="translate(0 16.586)">
          <g id="Group_147" data-name="Group 147" transform="translate(0 0)">
            <g id="Group_146" data-name="Group 146" transform="translate(0)">
              <g id="Group_145" data-name="Group 145">
                <g id="Group_144" data-name="Group 144">
                  <ellipse id="Ellipse_7" data-name="Ellipse 7" cx="9.481" cy="10.343" rx="9.481" ry="10.343" transform="matrix(0.973, -0.232, 0.232, 0.973, 0, 35.196)" fill="#fdc59d"/>
                  <path id="Path_294" data-name="Path 294" d="M52.97,165.705a5.612,5.612,0,1,0,10.877-2.591,5.612,5.612,0,1,0-10.877,2.591Z" transform="translate(-48.711 -121.028)" fill="#efa47d"/>
                  <path id="Path_295" data-name="Path 295" d="M138.186,141.95c1.324,5.557,6.526,9.078,11.62,7.864s8.15-6.7,6.827-12.259-6.527-9.078-11.62-7.864S136.862,136.393,138.186,141.95Z" transform="translate(-74.794 -112.174)" fill="#fdc59d"/>
                  <path id="Path_296" data-name="Path 296" d="M144.3,142.663a5.612,5.612,0,1,0,4.025-7.228A5.861,5.861,0,0,0,144.3,142.663Z" transform="translate(-76.708 -113.965)" fill="#efa47d"/>
                  <path id="Rectangle_28" data-name="Rectangle 28" d="M27.345,0h6.669A27.345,27.345,0,0,1,61.36,27.345v0A27.345,27.345,0,0,1,34.014,54.69h-6.67A27.345,27.345,0,0,1,0,27.345v0A27.345,27.345,0,0,1,27.345,0Z" transform="translate(5.209 14.219) rotate(-13.399)" fill="#fdc59d"/>
                  <g id="Group_141" data-name="Group 141" transform="translate(37.093 39.625)">
                    <path id="Path_297" data-name="Path 297" d="M114.041,161.779c-4.9,1.164-3.94,4.77-5.977,5.069s-5.2-1.9-7.2,1.016,2.383,12.865,14.065,6.389C123.1,169.721,118.944,160.615,114.041,161.779Z" transform="translate(-100.399 -161.677)" fill="#2b2b2b"/>
                    <path id="Path_298" data-name="Path 298" d="M101.036,175.172a14.353,14.353,0,0,1,3.991-1.917c4.811-1.453,9.663-.283,12.447,2.625a10.749,10.749,0,0,1-2.349,1.731C106.993,182.119,102.4,178.67,101.036,175.172Z" transform="translate(-100.594 -165.035)" fill="#ffac9f"/>
                    <path id="Path_299" data-name="Path 299" d="M116,161.833c.1,3.5-2.61,6.961-6.725,8.2a9.425,9.425,0,0,1-8.673-1.444,2.475,2.475,0,0,1,.326-.727c2-2.919,5.163-.717,7.2-1.016s1.073-3.9,5.977-5.069A3.661,3.661,0,0,1,116,161.833Z" transform="translate(-100.461 -161.678)" fill="#f7fffa"/>
                  </g>
                  <path id="Path_300" data-name="Path 300" d="M81.941,142.231a9.611,9.611,0,0,1,.913-2.275,2.889,2.889,0,0,1,3.992-1.224,9.623,9.623,0,0,1,1.815,1.2" transform="translate(-57.648 -114.91)" fill="none" stroke="#4f0200" stroke-miterlimit="10" stroke-width="0.75"/>
                  <path id="Path_301" data-name="Path 301" d="M115.575,133.935a13.037,13.037,0,0,1,1.118-2.221,3.091,3.091,0,0,1,1.162-1.205,2.55,2.55,0,0,1,2.216.157,21.194,21.194,0,0,1,1.92,1.268" transform="translate(-67.958 -112.44)" fill="none" stroke="#4f0200" stroke-miterlimit="10" stroke-width="0.75"/>
                  <path id="Path_302" data-name="Path 302" d="M107.53,151.435l1.056,1.3a14.71,14.71,0,0,1,1.049-1.938,13.9,13.9,0,0,1,.544,2.335" transform="translate(-65.492 -118.719)" fill="none" stroke="#4f0200" stroke-miterlimit="10" stroke-width="0.5"/>
                  <g id="Group_142" data-name="Group 142" transform="translate(48.073 22.732)">
                    <path id="Path_303" data-name="Path 303" d="M124.837,153.12h0a6.352,6.352,0,0,0,4.707-7.651l-.779-3.271a6.352,6.352,0,0,0-7.651-4.707h0a6.352,6.352,0,0,0-4.707,7.651l.779,3.271A6.352,6.352,0,0,0,124.837,153.12Z" transform="translate(-116.233 -137.317)" fill="#f7fffa"/>
                    <path id="Path_304" data-name="Path 304" d="M116.408,145.994a6.326,6.326,0,0,1,1-5.131,4.6,4.6,0,0,1,1.47-.641c3.011-.718,6.17,1.711,7.054,5.425s-.839,7.306-3.85,8.023a4.559,4.559,0,0,1-.822.11,6.342,6.342,0,0,1-4.069-4.515Z" transform="translate(-116.233 -138.169)" fill="#2b2b2b"/>
                  </g>
                  <g id="Group_143" data-name="Group 143" transform="translate(24.098 28.946)">
                    <path id="Path_305" data-name="Path 305" d="M91.011,161.872h0a6.351,6.351,0,0,1-8-4.081l-1.038-3.2a6.352,6.352,0,0,1,4.081-8h0a6.353,6.353,0,0,1,8,4.081l1.037,3.2A6.351,6.351,0,0,1,91.011,161.872Z" transform="translate(-81.659 -146.279)" fill="#f7fffa"/>
                    <path id="Path_306" data-name="Path 306" d="M95.679,150.9a6.332,6.332,0,0,0-3.521-3.863,4.61,4.61,0,0,0-1.59.218c-2.944.955-4.375,4.673-3.2,8.3s4.521,5.8,7.464,4.844a4.562,4.562,0,0,0,.759-.334,6.34,6.34,0,0,0,1.123-5.973Z" transform="translate(-83.283 -146.512)" fill="#2b2b2b"/>
                  </g>
                </g>
                <path id="Path_307" data-name="Path 307" d="M129.578,163.32c.554,2.327,3.483,3.623,6.542,2.894s5.089-3.206,4.535-5.533-3.484-3.623-6.543-2.9S129.023,160.993,129.578,163.32Z" transform="translate(-72.222 -120.798)" fill="#faa29d"/>
                <path id="Path_308" data-name="Path 308" d="M78.862,176.759c.554,2.327,3.483,3.623,6.542,2.894s5.089-3.206,4.535-5.533-3.484-3.623-6.543-2.9S78.307,174.432,78.862,176.759Z" transform="translate(-56.676 -124.917)" fill="#faa29d"/>
              </g>
            </g>
          </g>
        </g>
        <path id="Path_309" data-name="Path 309" d="M115.558,98.764s9.672-5.308,7.525-8.444-16.949-2-16.949-2,5.982-3.716-2.738-6c-25.371-6.656-30.088,7.972-32.753,14.078-1.683-1.091-3.761-2.041-4.919-1.07-2.163,1.813-.058,5.2-.058,5.2s-5.569-1.592-5.832,1.389c-.132,1.507,1.731,2.7,3.607,3.519-8.213,9.9-5.159,21.223-4.193,24.08.177,2.5.956,10.219,3.924,12.242,2.686,1.83,2.285-7.738,1.928-12.529,10.027-4.222,14.279-20.479,14.279-20.479s-1.216,9.881,4.524,9.629c2.978-.13,3.919-5.368,4.211-8.242.019,2.017.61,4.863,3.94,4.07,5.031-1.2,2.351-8.563,2.351-8.563,4.773,9.771,14.589,10.556,21.091,9.837l5.553,6.47C134.636,107.208,115.558,98.764,115.558,98.764Z" transform="translate(-50.274 -80.618)" fill="#2b2b2b"/>
        <g id="Group_149" data-name="Group 149" transform="translate(10.185 2.908)">
          <path id="Path_310" data-name="Path 310" d="M104.781,85.732c1.733,2.387-8.213,6.638-9.62,3.451S103.048,83.345,104.781,85.732Z" transform="translate(-71.841 -84.812)" fill="#686868"/>
          <path id="Path_311" data-name="Path 311" d="M106.972,93.931c.34,1.912-5.722,6.253-7.8,4.473S106.631,92.02,106.972,93.931Z" transform="translate(-73.025 -87.468)" fill="#686868"/>
          <path id="Path_312" data-name="Path 312" d="M64.25,121.6c1.809.83,2.133,5.069-1.1,5.9S62.442,120.769,64.25,121.6Z" transform="translate(-61.596 -96.069)" fill="#686868"/>
          <path id="Path_313" data-name="Path 313" d="M71.866,121.045c1.971.43,2.636,6.581-.639,6.832S69.894,120.614,71.866,121.045Z" transform="translate(-64.009 -95.913)" fill="#686868"/>
        </g>
      </g>
    </g>
    <g id="Group_43756" data-name="Group 43756" transform="translate(-177 -516.043)">
      <path id="Icon_ionic-ios-close" data-name="Icon ionic-ios-close" d="M14.695,14.044l1.969-1.969a.461.461,0,1,0-.652-.652l-1.969,1.969-1.969-1.969a.461.461,0,1,0-.652.652l1.969,1.969-1.969,1.969a.461.461,0,1,0,.652.652L14.042,14.7l1.969,1.969a.461.461,0,1,0,.652-.652Z" transform="translate(468.127 595.831)" fill="#ffd764"/>
      <path id="Icon_ionic-ios-close-2" data-name="Icon ionic-ios-close" d="M16.481,15.488l3-3a.7.7,0,1,0-.994-.994l-3,3-3-3a.7.7,0,1,0-.994.994l3,3-3,3a.7.7,0,0,0,.994.994l3-3,3,3a.7.7,0,0,0,.994-.994Z" transform="translate(429.127 572.831)" fill="#add6e5"/>
      <path id="Icon_ionic-ios-close-3" data-name="Icon ionic-ios-close" d="M13.361,12.967l1.2-1.2a.281.281,0,0,0-.4-.4l-1.2,1.2-1.2-1.2a.281.281,0,1,0-.4.4l1.2,1.2-1.2,1.2a.281.281,0,0,0,.4.4l1.2-1.2,1.2,1.2a.281.281,0,1,0,.4-.4Z" transform="translate(410.648 594.231)" fill="#faa29d"/>
      <path id="Icon_ionic-ios-close-4" data-name="Icon ionic-ios-close" d="M14.695,14.044l1.969-1.969a.461.461,0,1,0-.652-.652l-1.969,1.969-1.969-1.969a.461.461,0,1,0-.652.652l1.969,1.969-1.969,1.969a.461.461,0,1,0,.652.652L14.042,14.7l1.969,1.969a.461.461,0,1,0,.652-.652Z" transform="translate(397.127 624.831)" fill="#ffd764"/>
      <path id="Icon_ionic-ios-close-5" data-name="Icon ionic-ios-close" d="M16.481,15.488l3-3a.7.7,0,1,0-.994-.994l-3,3-3-3a.7.7,0,1,0-.994.994l3,3-3,3a.7.7,0,0,0,.994.994l3-3,3,3a.7.7,0,0,0,.994-.994Z" transform="translate(381.127 595.909)" fill="#add6e5"/>
      <path id="Icon_ionic-ios-close-6" data-name="Icon ionic-ios-close" d="M16.481,15.488l3-3a.7.7,0,1,0-.994-.994l-3,3-3-3a.7.7,0,1,0-.994.994l3,3-3,3a.7.7,0,0,0,.994.994l3-3,3,3a.7.7,0,0,0,.994-.994Z" transform="translate(472.127 567.831)" fill="#faa29d"/>
    </g>
  </g>
</svg>
