<svg id="Group_43704" data-name="Group 43704" xmlns="http://www.w3.org/2000/svg" width="20.075" height="18.739" viewBox="0 0 20.075 18.739">
  <path id="Path_33140" data-name="Path 33140" d="M13.007,23.457l-8.7-8.365a1.006,1.006,0,0,1,0-1.448l8.7-8.365a1,1,0,0,1,1.7.724v4.35h7.7a1.675,1.675,0,0,1,1.673,1.673v4.684A1.675,1.675,0,0,1,22.4,18.384h-7.7v4.35A1,1,0,0,1,13.007,23.457Z" transform="translate(-4 -4.999)" fill="#fff"/>
  <path id="Path_33141" data-name="Path 33141" d="M24.075,12H4a1.006,1.006,0,0,0,.308.724l8.7,8.365a1,1,0,0,0,1.7-.724v-4.35h7.7a1.675,1.675,0,0,0,1.673-1.673Z" transform="translate(-4 -2.63)" fill="#fafafa"/>
</svg>
